<svg width="25" height="21" viewBox="0 0 25 21" fill="none" xmlns="http://www.w3.org/2000/svg">
<path d="M20.896 0.402344C20.8192 0.40603 20.7751 0.40829 20.7513 0.40958C20.706 0.412035 20.7343 0.410983 20.7513 0.40958C20.7647 0.408475 20.771 0.407152 20.7289 0.407152C19.7952 0.407152 18.9242 1.43316 18.9242 2.83663C18.9242 3.54399 19.1618 4.17708 19.5105 4.61551L20.0258 5.26129L19.2157 5.38763C18.683 5.47033 18.3247 5.7166 18.024 6.12117C17.7233 6.52575 17.5023 7.10217 17.3557 7.77547C17.0941 8.97701 17.0737 10.4568 17.072 11.7729H18.6073L18.6372 12.2189L18.995 17.6708H22.3146L22.7196 12.2139L22.7528 11.7728H24.3669C24.3548 10.4746 24.2851 9.01435 23.9964 7.82176C23.8344 7.15245 23.6039 6.57612 23.3061 6.16588C23.0082 5.75568 22.6655 5.50864 22.1931 5.41949L21.4002 5.26927L21.9189 4.64272C22.2835 4.20168 22.5336 3.56158 22.5336 2.83658C22.5336 1.52006 21.7517 0.514202 20.9054 0.403929L20.896 0.402344Z" fill="#9D8BF9"/>
<path d="M20.7289 0.407152C19.7952 0.407152 18.9242 1.43316 18.9242 2.83663C18.9242 3.54399 19.1618 4.17708 19.5105 4.61551L20.0258 5.26129L19.2157 5.38763C18.683 5.47033 18.3247 5.7166 18.024 6.12117C17.7233 6.52575 17.5023 7.10217 17.3557 7.77547C17.0941 8.97701 17.0737 10.4568 17.072 11.7729H18.6073L18.6372 12.2189L18.995 17.6708H22.3146L22.7196 12.2139L22.7528 11.7728H24.3669C24.3548 10.4746 24.2851 9.01435 23.9964 7.82176C23.8344 7.15245 23.6039 6.57612 23.3061 6.16588C23.0082 5.75568 22.6655 5.50864 22.1931 5.41949L21.4002 5.26927L21.9189 4.64272C22.2835 4.20168 22.5336 3.56158 22.5336 2.83658C22.5336 1.52006 21.7517 0.514202 20.9054 0.403929L20.896 0.402344C20.8192 0.40603 20.7751 0.40829 20.7513 0.40958M20.7289 0.407152C20.771 0.407152 20.7647 0.408475 20.7513 0.40958M20.7289 0.407152C20.8245 0.407152 20.6704 0.413969 20.7513 0.40958M20.7513 0.40958C20.7343 0.410983 20.706 0.412035 20.7513 0.40958ZM8.55082 0.574964C6.23562 0.575271 3.51468 0.849776 0.398438 1.49075V2.46898C13.9173 0.543407 17.626 4.42023 11.8105 6.52718C5.89252 8.67125 1.19272 19.4294 19.851 20.3672C20.071 20.3896 20.2974 20.4023 20.5287 20.4023C21.6525 20.4023 22.6643 20.1235 23.3596 19.7071C24.055 19.2907 24.3984 18.7792 24.3984 18.2798C24.3984 17.7804 24.055 17.2689 23.3597 16.8525C23.3481 16.8454 23.3354 16.8386 23.3235 16.8316L23.2226 18.1855L23.1895 18.6282H18.1123L18.0839 18.1807L17.9185 15.6489C11.4524 15.7921 9.68385 10.5081 13.8786 8.97578C14.9068 8.60016 15.7492 8.16582 16.41 7.69558C16.4186 7.65353 16.4261 7.61093 16.4352 7.56924C16.5997 6.8136 16.8516 6.11166 17.2722 5.54577C17.5217 5.2101 17.8392 4.92843 18.2165 4.72896C18.0589 2.55281 14.7697 0.573993 8.55082 0.574964Z" stroke="#9D8BF9" stroke-width="0.8"/>
</svg>
