<svg width="25" height="21" viewBox="0 0 25 21" fill="none" xmlns="http://www.w3.org/2000/svg">
<path d="M20.8975 0.402344C20.8207 0.40603 20.7766 0.40829 20.7528 0.40958C20.7075 0.412035 20.7358 0.410983 20.7528 0.40958C20.7662 0.408475 20.7725 0.407152 20.7304 0.407152C19.7966 0.407152 18.9256 1.43316 18.9256 2.83663C18.9256 3.54399 19.1633 4.17708 19.512 4.61551L20.0273 5.26129L19.2171 5.38763C18.6845 5.47033 18.3262 5.7166 18.0255 6.12117C17.7248 6.52575 17.5037 7.10217 17.3572 7.77547C17.0956 8.97701 17.0752 10.4568 17.0734 11.7729H18.6087L18.6386 12.2189L18.9965 17.6708H22.3161L22.7211 12.2139L22.7542 11.7728H24.3683C24.3562 10.4746 24.2866 9.01435 23.9979 7.82176C23.8358 7.15245 23.6053 6.57612 23.3075 6.16588C23.0097 5.75568 22.6669 5.50864 22.1946 5.41949L21.4017 5.26927L21.9204 4.64272C22.285 4.20168 22.535 3.56158 22.535 2.83658C22.535 1.52006 21.7532 0.514202 20.9068 0.403929L20.8975 0.402344Z" fill="#9D8BF9"/>
<path d="M20.7304 0.407152C19.7966 0.407152 18.9256 1.43316 18.9256 2.83663C18.9256 3.54399 19.1633 4.17708 19.512 4.61551L20.0273 5.26129L19.2171 5.38763C18.6845 5.47033 18.3262 5.7166 18.0255 6.12117C17.7248 6.52575 17.5037 7.10217 17.3572 7.77547C17.0956 8.97701 17.0752 10.4568 17.0734 11.7729H18.6087L18.6386 12.2189L18.9965 17.6708H22.3161L22.7211 12.2139L22.7542 11.7728H24.3683C24.3562 10.4746 24.2866 9.01435 23.9979 7.82176C23.8358 7.15245 23.6053 6.57612 23.3075 6.16588C23.0097 5.75568 22.6669 5.50864 22.1946 5.41949L21.4017 5.26927L21.9204 4.64272C22.285 4.20168 22.535 3.56158 22.535 2.83658C22.535 1.52006 21.7532 0.514202 20.9068 0.403929L20.8975 0.402344C20.8207 0.40603 20.7766 0.40829 20.7528 0.40958M20.7304 0.407152C20.7725 0.407152 20.7662 0.408475 20.7528 0.40958M20.7304 0.407152C20.826 0.407152 20.6718 0.413969 20.7528 0.40958M20.7528 0.40958C20.7358 0.410983 20.7075 0.412035 20.7528 0.40958ZM8.55228 0.574964C6.23708 0.575271 3.51614 0.849776 0.399902 1.49075V2.46898C13.9188 0.543407 17.6275 4.42023 11.812 6.52718C5.89399 8.67125 1.19418 19.4294 19.8524 20.3672C20.0724 20.3896 20.2988 20.4023 20.5301 20.4023C21.6539 20.4023 22.6658 20.1235 23.3611 19.7071C24.0565 19.2907 24.3999 18.7792 24.3999 18.2798C24.3999 17.7804 24.0565 17.2689 23.3611 16.8525C23.3495 16.8454 23.3368 16.8386 23.325 16.8316L23.2241 18.1855L23.191 18.6282H18.1138L18.0854 18.1807L17.92 15.6489C11.4539 15.7921 9.68532 10.5081 13.88 8.97578C14.9082 8.60016 15.7506 8.16582 16.4115 7.69558C16.42 7.65353 16.4276 7.61093 16.4367 7.56924C16.6012 6.8136 16.8531 6.11166 17.2737 5.54577C17.5232 5.2101 17.8406 4.92843 18.2179 4.72896C18.0603 2.55281 14.7711 0.573993 8.55228 0.574964Z" stroke="#9D8BF9" stroke-width="0.8"/>
</svg>
