<svg width="320" height="300" viewBox="0 0 320 300" fill="none" xmlns="http://www.w3.org/2000/svg">
<path d="M11.3012 20.3223C8.99387 19.3987 6.37474 20.5204 5.45117 22.8277C4.5276 25.135 5.64933 27.7542 7.95664 28.6777L9.62891 24.5L11.3012 20.3223ZM286.374 224.082L290.848 223.601L286.374 224.082ZM9.62891 24.5C7.95664 28.6777 7.95659 28.6777 7.95655 28.6777C7.95655 28.6777 7.95652 28.6777 7.95652 28.6777C7.95653 28.6777 7.95658 28.6777 7.95667 28.6778C7.95686 28.6778 7.95722 28.678 7.95775 28.6782C7.95882 28.6786 7.96058 28.6793 7.96303 28.6803C7.96793 28.6823 7.9756 28.6853 7.98601 28.6895C8.00684 28.6979 8.03865 28.7107 8.08131 28.7278C8.16663 28.7622 8.29534 28.8141 8.46631 28.8833C8.80824 29.0216 9.31919 29.2292 9.99012 29.5038C11.332 30.0531 13.3137 30.8707 15.863 31.94L17.6036 27.7902L19.3441 23.6405C16.7698 22.5607 14.7642 21.7332 13.3996 21.1746C12.7174 20.8954 12.1953 20.6833 11.8426 20.5405C11.6662 20.4692 11.5321 20.4151 11.4415 20.3786C11.3962 20.3604 11.3618 20.3466 11.3383 20.3372C11.3266 20.3325 11.3177 20.3289 11.3115 20.3264C11.3084 20.3251 11.3059 20.3242 11.3042 20.3235C11.3034 20.3231 11.3027 20.3229 11.3022 20.3227C11.3019 20.3226 11.3017 20.3225 11.3015 20.3224C11.3015 20.3224 11.3014 20.3223 11.3013 20.3223C11.3012 20.3223 11.3012 20.3223 9.62891 24.5ZM33.8241 34.7517L32.0185 38.8736C36.7767 40.9578 42.124 43.335 47.9529 45.9803L49.8126 41.8826L51.6722 37.7848C45.8049 35.1221 40.4215 32.7288 35.6296 30.6298L33.8241 34.7517ZM65.7165 49.2227L63.8048 53.2965C68.8674 55.6722 74.1614 58.1945 79.6377 60.8519L81.6022 56.8034L83.5668 52.7548C78.0533 50.0794 72.7241 47.5404 67.6282 45.149L65.7165 49.2227ZM97.3232 64.5628L95.3039 68.5843C100.395 71.1406 105.592 73.7936 110.861 76.5355L112.939 72.5436L115.016 68.5516C109.706 65.7886 104.47 63.1158 99.3424 60.5413L97.3232 64.5628ZM128.456 80.771L126.316 84.7298C131.395 87.4747 136.509 90.2919 141.629 93.1748L143.837 89.2536L146.045 85.3324C140.876 82.4225 135.717 79.5802 130.595 76.8122L128.456 80.771ZM159.041 98.0041L156.758 101.882C161.769 104.832 166.759 107.839 171.702 110.896L174.069 107.069L176.436 103.242C171.434 100.148 166.388 97.1074 161.324 94.1262L159.041 98.0041ZM188.882 116.486L186.419 120.252C191.318 123.456 196.138 126.705 200.852 129.991L203.426 126.3L205.999 122.609C201.207 119.267 196.313 115.969 191.345 112.72L188.882 116.486ZM217.624 136.566L214.921 140.164C219.642 143.712 224.212 147.293 228.596 150.899L231.454 147.424L234.313 143.949C229.818 140.251 225.144 136.588 220.327 132.969L217.624 136.566ZM244.711 158.938L241.663 162.248C246.011 166.254 250.09 170.274 253.859 174.298L257.144 171.222L260.428 168.146C256.49 163.941 252.251 159.765 247.76 155.629L244.711 158.938ZM268.545 184.651L264.96 187.371C268.547 192.1 271.629 196.798 274.152 201.448L278.107 199.302L282.063 197.156C279.29 192.045 275.948 186.964 272.13 181.931L268.545 184.651ZM284.735 215.469L280.391 216.644C281.113 219.315 281.619 221.955 281.9 224.564L286.374 224.082L290.848 223.601C290.513 220.491 289.915 217.387 289.078 214.293L284.735 215.469ZM286.374 224.082L281.9 224.564C282.241 227.731 282.344 230.587 282.242 233.161L286.738 233.34L291.235 233.519C291.357 230.444 291.229 227.142 290.848 223.601L286.374 224.082ZM281.47 250.656L277.835 248.003C275.025 251.853 270.807 254.466 265.097 256.079L266.32 260.409L267.543 264.74C274.598 262.748 280.789 259.222 285.104 253.31L281.47 250.656ZM248.106 262.592L248.071 258.092C242.493 258.136 236.462 257.774 230.11 257.187L229.697 261.668L229.283 266.149C235.792 266.75 242.15 267.139 248.142 267.092L248.106 262.592ZM211.418 259.627L211.965 255.16C205.907 254.418 199.722 253.644 193.604 252.996L193.131 257.471L192.657 261.946C198.683 262.584 204.775 263.347 210.871 264.093L211.418 259.627ZM174.795 256.055L174.97 251.559C168.385 251.303 161.951 251.397 155.884 252.079L156.387 256.551L156.889 261.023C162.369 260.407 168.325 260.308 174.621 260.552L174.795 256.055ZM138.677 261.171L136.761 257.1C130.485 260.054 125.112 264.393 121.162 270.546L124.949 272.977L128.736 275.408C131.663 270.848 135.655 267.567 140.594 265.243L138.677 261.171ZM119.064 290.295L114.602 289.712C114.203 292.768 114 296.027 114 299.5H118.5H123C123 296.375 123.182 293.508 123.526 290.879L119.064 290.295Z" fill="#E9E9E9"/>
<rect width="48" height="48" rx="24" fill="#D5F7E3"/>
<path d="M22.6385 28.4727L29.4926 21.6185L28.1315 20.2574L22.6385 25.7504L19.8676 22.9796L18.5065 24.3407L22.6385 28.4727ZM23.9996 33.7227C22.6547 33.7227 21.3908 33.4674 20.2079 32.957C19.025 32.4466 17.9961 31.7539 17.1211 30.8789C16.2461 30.0039 15.5534 28.975 15.043 27.7921C14.5326 26.6092 14.2773 25.3453 14.2773 24.0004C14.2773 22.6555 14.5326 21.3916 15.043 20.2088C15.5534 19.0259 16.2461 17.997 17.1211 17.122C17.9961 16.247 19.025 15.5543 20.2079 15.0438C21.3908 14.5334 22.6547 14.2782 23.9996 14.2782C25.3445 14.2782 26.6084 14.5334 27.7912 15.0438C28.9741 15.5543 30.003 16.247 30.878 17.122C31.753 17.997 32.4457 19.0259 32.9562 20.2088C33.4666 21.3916 33.7218 22.6555 33.7218 24.0004C33.7218 25.3453 33.4666 26.6092 32.9562 27.7921C32.4457 28.975 31.753 30.0039 30.878 30.8789C30.003 31.7539 28.9741 32.4466 27.7912 32.957C26.6084 33.4674 25.3445 33.7227 23.9996 33.7227ZM23.9996 31.7782C26.1709 31.7782 28.01 31.0247 29.5169 29.5178C31.0239 28.0109 31.7773 26.1717 31.7773 24.0004C31.7773 21.8291 31.0239 19.99 29.5169 18.4831C28.01 16.9761 26.1709 16.2227 23.9996 16.2227C21.8283 16.2227 19.9891 16.9761 18.4822 18.4831C16.9753 19.99 16.2218 21.8291 16.2218 24.0004C16.2218 26.1717 16.9753 28.0109 18.4822 29.5178C19.9891 31.0247 21.8283 31.7782 23.9996 31.7782Z" fill="#38E07B"/>
<path d="M6.36043 67.304V65.904H8.81043C9.14643 65.904 9.44043 65.8387 9.69243 65.708C9.95376 65.568 10.1591 65.3767 10.3084 65.134C10.4578 64.882 10.5324 64.588 10.5324 64.252C10.5324 63.916 10.4578 63.6267 10.3084 63.384C10.1591 63.132 9.95376 62.9407 9.69243 62.81C9.44043 62.67 9.14643 62.6 8.81043 62.6H6.36043V61.2H8.89443C9.51043 61.2 10.0611 61.326 10.5464 61.578C11.0411 61.83 11.4284 62.1847 11.7084 62.642C11.9978 63.0993 12.1424 63.636 12.1424 64.252C12.1424 64.868 11.9978 65.4047 11.7084 65.862C11.4284 66.3193 11.0411 66.674 10.5464 66.926C10.0611 67.178 9.51043 67.304 8.89443 67.304H6.36043ZM5.25443 71V61.2H6.86443V71H5.25443ZM13.4936 71V64.28H15.0336V71H13.4936ZM15.0336 67.262L14.5016 66.996C14.5016 66.1467 14.6883 65.4607 15.0616 64.938C15.4443 64.406 16.0183 64.14 16.7836 64.14C17.1196 64.14 17.423 64.2007 17.6936 64.322C17.9643 64.4433 18.2163 64.6393 18.4496 64.91L17.4416 65.946C17.3203 65.8153 17.185 65.722 17.0356 65.666C16.8863 65.61 16.7136 65.582 16.5176 65.582C16.0883 65.582 15.7336 65.7173 15.4536 65.988C15.1736 66.2587 15.0336 66.6833 15.0336 67.262ZM22.0697 71.14C21.4164 71.14 20.8237 70.986 20.2917 70.678C19.7597 70.3607 19.3351 69.936 19.0177 69.404C18.7097 68.872 18.5557 68.2793 18.5557 67.626C18.5557 66.9727 18.7097 66.3847 19.0177 65.862C19.3351 65.3393 19.7597 64.924 20.2917 64.616C20.8237 64.2987 21.4164 64.14 22.0697 64.14C22.7324 64.14 23.3297 64.294 23.8617 64.602C24.3937 64.91 24.8137 65.33 25.1217 65.862C25.4391 66.3847 25.5977 66.9727 25.5977 67.626C25.5977 68.2793 25.4391 68.872 25.1217 69.404C24.8137 69.936 24.3937 70.3607 23.8617 70.678C23.3297 70.986 22.7324 71.14 22.0697 71.14ZM22.0697 69.656C22.4524 69.656 22.7884 69.572 23.0777 69.404C23.3764 69.2267 23.6051 68.984 23.7637 68.676C23.9317 68.368 24.0157 68.018 24.0157 67.626C24.0157 67.234 23.9317 66.8887 23.7637 66.59C23.5957 66.2913 23.3671 66.058 23.0777 65.89C22.7884 65.7127 22.4524 65.624 22.0697 65.624C21.6964 65.624 21.3604 65.7127 21.0617 65.89C20.7724 66.058 20.5437 66.2913 20.3757 66.59C20.2171 66.8887 20.1377 67.234 20.1377 67.626C20.1377 68.018 20.2171 68.368 20.3757 68.676C20.5437 68.984 20.7724 69.2267 21.0617 69.404C21.3604 69.572 21.6964 69.656 22.0697 69.656ZM27.611 71V63.118C27.611 62.67 27.709 62.2733 27.905 61.928C28.1103 61.5733 28.3903 61.2933 28.745 61.088C29.0997 60.8827 29.515 60.78 29.991 60.78C30.3457 60.78 30.6537 60.8407 30.915 60.962C31.1857 61.074 31.4377 61.2373 31.671 61.452L30.663 62.46C30.5697 62.3853 30.467 62.3293 30.355 62.292C30.2523 62.2453 30.131 62.222 29.991 62.222C29.7203 62.222 29.5103 62.3013 29.361 62.46C29.221 62.6187 29.151 62.8333 29.151 63.104V71H27.611ZM26.001 65.68V64.28H32.553V65.68H26.001ZM31.671 71V64.28H33.211V71H31.671ZM32.441 63.692C32.1797 63.692 31.9603 63.6033 31.783 63.426C31.615 63.2487 31.531 63.0293 31.531 62.768C31.531 62.5067 31.615 62.2873 31.783 62.11C31.9603 61.9327 32.1797 61.844 32.441 61.844C32.7117 61.844 32.931 61.9327 33.099 62.11C33.267 62.2873 33.351 62.5067 33.351 62.768C33.351 63.0293 33.267 63.2487 33.099 63.426C32.931 63.6033 32.7117 63.692 32.441 63.692ZM34.9311 71V60.92H36.4711V71H34.9311ZM41.3071 71.14C40.6351 71.14 40.0284 70.9907 39.4871 70.692C38.9551 70.384 38.5304 69.964 38.2131 69.432C37.9051 68.9 37.7511 68.3027 37.7511 67.64C37.7511 66.9773 37.9051 66.3847 38.2131 65.862C38.5211 65.33 38.9364 64.91 39.4591 64.602C39.9911 64.294 40.5791 64.14 41.2231 64.14C41.8484 64.14 42.3991 64.2847 42.8751 64.574C43.3604 64.8633 43.7384 65.26 44.0091 65.764C44.2891 66.268 44.4291 66.842 44.4291 67.486C44.4291 67.598 44.4197 67.7147 44.4011 67.836C44.3917 67.948 44.3731 68.074 44.3451 68.214H38.8291V66.954H43.5471L42.9731 67.458C42.9544 67.0473 42.8751 66.702 42.7351 66.422C42.5951 66.142 42.3944 65.9273 42.1331 65.778C41.8811 65.6287 41.5684 65.554 41.1951 65.554C40.8031 65.554 40.4624 65.638 40.1731 65.806C39.8837 65.974 39.6597 66.212 39.5011 66.52C39.3424 66.8187 39.2631 67.178 39.2631 67.598C39.2631 68.018 39.3471 68.3867 39.5151 68.704C39.6831 69.0213 39.9211 69.2687 40.2291 69.446C40.5371 69.614 40.8917 69.698 41.2931 69.698C41.6384 69.698 41.9557 69.6373 42.2451 69.516C42.5437 69.3947 42.7957 69.2173 43.0011 68.984L43.9811 69.978C43.6544 70.3607 43.2577 70.65 42.7911 70.846C42.3244 71.042 41.8297 71.14 41.3071 71.14Z" fill="#1E1E1E"/>
<path d="M165.281 182.14C164.507 182.14 163.849 182 163.307 181.72C162.766 181.44 162.281 181.029 161.851 180.488L162.943 179.396C163.214 179.788 163.536 180.096 163.909 180.32C164.283 180.535 164.759 180.642 165.337 180.642C165.879 180.642 166.308 180.53 166.625 180.306C166.952 180.082 167.115 179.774 167.115 179.382C167.115 179.055 167.031 178.789 166.863 178.584C166.695 178.379 166.471 178.211 166.191 178.08C165.921 177.94 165.617 177.819 165.281 177.716C164.955 177.604 164.623 177.483 164.287 177.352C163.961 177.212 163.657 177.039 163.377 176.834C163.107 176.629 162.887 176.363 162.719 176.036C162.551 175.709 162.467 175.294 162.467 174.79C162.467 174.211 162.607 173.721 162.887 173.32C163.177 172.909 163.564 172.597 164.049 172.382C164.535 172.167 165.076 172.06 165.673 172.06C166.317 172.06 166.891 172.186 167.395 172.438C167.909 172.69 168.324 173.012 168.641 173.404L167.549 174.496C167.269 174.179 166.975 173.945 166.667 173.796C166.369 173.637 166.023 173.558 165.631 173.558C165.146 173.558 164.763 173.656 164.483 173.852C164.213 174.048 164.077 174.323 164.077 174.678C164.077 174.977 164.161 175.219 164.329 175.406C164.497 175.583 164.717 175.737 164.987 175.868C165.267 175.989 165.571 176.106 165.897 176.218C166.233 176.33 166.565 176.456 166.891 176.596C167.227 176.736 167.531 176.918 167.801 177.142C168.081 177.357 168.305 177.637 168.473 177.982C168.641 178.327 168.725 178.761 168.725 179.284C168.725 180.161 168.413 180.857 167.787 181.37C167.171 181.883 166.336 182.14 165.281 182.14ZM174.391 182L171.549 178.57L174.377 175.28H176.211L172.963 178.976L173.033 178.094L176.351 182H174.391ZM170.121 182V171.92H171.661V182H170.121ZM177.039 182V175.28H178.579V182H177.039ZM177.809 174.048C177.548 174.048 177.328 173.959 177.151 173.782C176.983 173.605 176.899 173.385 176.899 173.124C176.899 172.863 176.983 172.643 177.151 172.466C177.328 172.289 177.548 172.2 177.809 172.2C178.08 172.2 178.299 172.289 178.467 172.466C178.635 172.643 178.719 172.863 178.719 173.124C178.719 173.385 178.635 173.605 178.467 173.782C178.299 173.959 178.08 174.048 177.809 174.048ZM180.306 182V171.92H181.846V182H180.306ZM183.56 182V171.92H185.1V182H183.56ZM189.012 182.14C188.639 182.14 188.279 182.093 187.934 182C187.589 181.897 187.271 181.757 186.982 181.58C186.693 181.393 186.441 181.169 186.226 180.908L187.206 179.928C187.439 180.199 187.705 180.404 188.004 180.544C188.312 180.675 188.657 180.74 189.04 180.74C189.385 180.74 189.647 180.689 189.824 180.586C190.001 180.483 190.09 180.334 190.09 180.138C190.09 179.933 190.006 179.774 189.838 179.662C189.67 179.55 189.451 179.457 189.18 179.382C188.919 179.298 188.639 179.214 188.34 179.13C188.051 179.046 187.771 178.934 187.5 178.794C187.239 178.645 187.024 178.444 186.856 178.192C186.688 177.94 186.604 177.613 186.604 177.212C186.604 176.783 186.702 176.414 186.898 176.106C187.103 175.798 187.388 175.56 187.752 175.392C188.125 175.224 188.569 175.14 189.082 175.14C189.623 175.14 190.099 175.238 190.51 175.434C190.93 175.621 191.28 175.905 191.56 176.288L190.58 177.268C190.384 177.025 190.16 176.843 189.908 176.722C189.656 176.601 189.367 176.54 189.04 176.54C188.732 176.54 188.494 176.587 188.326 176.68C188.158 176.773 188.074 176.909 188.074 177.086C188.074 177.273 188.158 177.417 188.326 177.52C188.494 177.623 188.709 177.711 188.97 177.786C189.241 177.861 189.521 177.945 189.81 178.038C190.109 178.122 190.389 178.243 190.65 178.402C190.921 178.551 191.14 178.757 191.308 179.018C191.476 179.27 191.56 179.601 191.56 180.012C191.56 180.665 191.331 181.183 190.874 181.566C190.417 181.949 189.796 182.14 189.012 182.14ZM202.156 182L197.508 176.918C197.163 176.535 196.902 176.171 196.724 175.826C196.556 175.481 196.472 175.098 196.472 174.678C196.472 174.183 196.594 173.74 196.836 173.348C197.079 172.947 197.41 172.629 197.83 172.396C198.25 172.163 198.731 172.046 199.272 172.046C199.683 172.046 200.056 172.116 200.392 172.256C200.728 172.387 201.022 172.564 201.274 172.788C201.536 173.003 201.75 173.241 201.918 173.502L200.812 174.482C200.607 174.202 200.383 173.973 200.14 173.796C199.907 173.619 199.618 173.53 199.272 173.53C198.918 173.53 198.619 173.637 198.376 173.852C198.134 174.057 198.012 174.319 198.012 174.636C198.012 174.953 198.078 175.215 198.208 175.42C198.339 175.625 198.521 175.863 198.754 176.134L204.004 182H202.156ZM198.81 182.14C198.138 182.14 197.55 182.014 197.046 181.762C196.552 181.501 196.164 181.146 195.884 180.698C195.614 180.241 195.478 179.723 195.478 179.144C195.478 178.556 195.637 178.029 195.954 177.562C196.281 177.095 196.757 176.717 197.382 176.428L198.096 177.366C197.751 177.553 197.485 177.786 197.298 178.066C197.112 178.337 197.018 178.682 197.018 179.102C197.018 179.438 197.093 179.723 197.242 179.956C197.401 180.189 197.62 180.371 197.9 180.502C198.18 180.623 198.502 180.684 198.866 180.684C199.342 180.684 199.734 180.586 200.042 180.39C200.36 180.194 200.598 179.961 200.756 179.69L201.764 180.866C201.568 181.109 201.316 181.328 201.008 181.524C200.7 181.711 200.36 181.86 199.986 181.972C199.613 182.084 199.221 182.14 198.81 182.14ZM207.477 182V172.2H209.087V182H207.477ZM215.606 182V178.122C215.606 177.674 215.461 177.305 215.172 177.016C214.892 176.727 214.528 176.582 214.08 176.582C213.781 176.582 213.515 176.647 213.282 176.778C213.048 176.909 212.866 177.091 212.736 177.324C212.605 177.557 212.54 177.823 212.54 178.122L211.938 177.786C211.938 177.273 212.05 176.82 212.274 176.428C212.498 176.027 212.806 175.714 213.198 175.49C213.599 175.257 214.047 175.14 214.542 175.14C215.046 175.14 215.494 175.271 215.886 175.532C216.278 175.784 216.586 176.115 216.81 176.526C217.034 176.927 217.146 177.347 217.146 177.786V182H215.606ZM211 182V175.28H212.54V182H211ZM219.65 182V172.48H221.19V182H219.65ZM218.04 176.68V175.28H222.8V176.68H218.04ZM226.85 182.14C226.178 182.14 225.571 181.991 225.03 181.692C224.498 181.384 224.073 180.964 223.756 180.432C223.448 179.9 223.294 179.303 223.294 178.64C223.294 177.977 223.448 177.385 223.756 176.862C224.064 176.33 224.479 175.91 225.002 175.602C225.534 175.294 226.122 175.14 226.766 175.14C227.391 175.14 227.942 175.285 228.418 175.574C228.903 175.863 229.281 176.26 229.552 176.764C229.832 177.268 229.972 177.842 229.972 178.486C229.972 178.598 229.963 178.715 229.944 178.836C229.935 178.948 229.916 179.074 229.888 179.214H224.372V177.954H229.09L228.516 178.458C228.497 178.047 228.418 177.702 228.278 177.422C228.138 177.142 227.937 176.927 227.676 176.778C227.424 176.629 227.111 176.554 226.738 176.554C226.346 176.554 226.005 176.638 225.716 176.806C225.427 176.974 225.203 177.212 225.044 177.52C224.885 177.819 224.806 178.178 224.806 178.598C224.806 179.018 224.89 179.387 225.058 179.704C225.226 180.021 225.464 180.269 225.772 180.446C226.08 180.614 226.435 180.698 226.836 180.698C227.181 180.698 227.499 180.637 227.788 180.516C228.087 180.395 228.339 180.217 228.544 179.984L229.524 180.978C229.197 181.361 228.801 181.65 228.334 181.846C227.867 182.042 227.373 182.14 226.85 182.14ZM231.207 182V175.28H232.747V182H231.207ZM232.747 178.262L232.215 177.996C232.215 177.147 232.401 176.461 232.775 175.938C233.157 175.406 233.731 175.14 234.497 175.14C234.833 175.14 235.136 175.201 235.407 175.322C235.677 175.443 235.929 175.639 236.163 175.91L235.155 176.946C235.033 176.815 234.898 176.722 234.749 176.666C234.599 176.61 234.427 176.582 234.231 176.582C233.801 176.582 233.447 176.717 233.167 176.988C232.887 177.259 232.747 177.683 232.747 178.262ZM239.825 182.14C239.153 182.14 238.546 181.991 238.005 181.692C237.473 181.384 237.048 180.964 236.731 180.432C236.423 179.9 236.269 179.303 236.269 178.64C236.269 177.977 236.423 177.385 236.731 176.862C237.039 176.33 237.454 175.91 237.977 175.602C238.509 175.294 239.097 175.14 239.741 175.14C240.366 175.14 240.917 175.285 241.393 175.574C241.878 175.863 242.256 176.26 242.527 176.764C242.807 177.268 242.947 177.842 242.947 178.486C242.947 178.598 242.937 178.715 242.919 178.836C242.909 178.948 242.891 179.074 242.863 179.214H237.347V177.954H242.065L241.491 178.458C241.472 178.047 241.393 177.702 241.253 177.422C241.113 177.142 240.912 176.927 240.651 176.778C240.399 176.629 240.086 176.554 239.713 176.554C239.321 176.554 238.98 176.638 238.691 176.806C238.401 176.974 238.177 177.212 238.019 177.52C237.86 177.819 237.781 178.178 237.781 178.598C237.781 179.018 237.865 179.387 238.033 179.704C238.201 180.021 238.439 180.269 238.747 180.446C239.055 180.614 239.409 180.698 239.811 180.698C240.156 180.698 240.473 180.637 240.763 180.516C241.061 180.395 241.313 180.217 241.519 179.984L242.499 180.978C242.172 181.361 241.775 181.65 241.309 181.846C240.842 182.042 240.347 182.14 239.825 182.14ZM246.379 182.14C246.006 182.14 245.646 182.093 245.301 182C244.956 181.897 244.638 181.757 244.349 181.58C244.06 181.393 243.808 181.169 243.593 180.908L244.573 179.928C244.806 180.199 245.072 180.404 245.371 180.544C245.679 180.675 246.024 180.74 246.407 180.74C246.752 180.74 247.014 180.689 247.191 180.586C247.368 180.483 247.457 180.334 247.457 180.138C247.457 179.933 247.373 179.774 247.205 179.662C247.037 179.55 246.818 179.457 246.547 179.382C246.286 179.298 246.006 179.214 245.707 179.13C245.418 179.046 245.138 178.934 244.867 178.794C244.606 178.645 244.391 178.444 244.223 178.192C244.055 177.94 243.971 177.613 243.971 177.212C243.971 176.783 244.069 176.414 244.265 176.106C244.47 175.798 244.755 175.56 245.119 175.392C245.492 175.224 245.936 175.14 246.449 175.14C246.99 175.14 247.466 175.238 247.877 175.434C248.297 175.621 248.647 175.905 248.927 176.288L247.947 177.268C247.751 177.025 247.527 176.843 247.275 176.722C247.023 176.601 246.734 176.54 246.407 176.54C246.099 176.54 245.861 176.587 245.693 176.68C245.525 176.773 245.441 176.909 245.441 177.086C245.441 177.273 245.525 177.417 245.693 177.52C245.861 177.623 246.076 177.711 246.337 177.786C246.608 177.861 246.888 177.945 247.177 178.038C247.476 178.122 247.756 178.243 248.017 178.402C248.288 178.551 248.507 178.757 248.675 179.018C248.843 179.27 248.927 179.601 248.927 180.012C248.927 180.665 248.698 181.183 248.241 181.566C247.784 181.949 247.163 182.14 246.379 182.14ZM251.219 182V172.48H252.759V182H251.219ZM249.609 176.68V175.28H254.369V176.68H249.609ZM257.549 182.14C257.176 182.14 256.816 182.093 256.471 182C256.126 181.897 255.808 181.757 255.519 181.58C255.23 181.393 254.978 181.169 254.763 180.908L255.743 179.928C255.976 180.199 256.242 180.404 256.541 180.544C256.849 180.675 257.194 180.74 257.577 180.74C257.922 180.74 258.184 180.689 258.361 180.586C258.538 180.483 258.627 180.334 258.627 180.138C258.627 179.933 258.543 179.774 258.375 179.662C258.207 179.55 257.988 179.457 257.717 179.382C257.456 179.298 257.176 179.214 256.877 179.13C256.588 179.046 256.308 178.934 256.037 178.794C255.776 178.645 255.561 178.444 255.393 178.192C255.225 177.94 255.141 177.613 255.141 177.212C255.141 176.783 255.239 176.414 255.435 176.106C255.64 175.798 255.925 175.56 256.289 175.392C256.662 175.224 257.106 175.14 257.619 175.14C258.16 175.14 258.636 175.238 259.047 175.434C259.467 175.621 259.817 175.905 260.097 176.288L259.117 177.268C258.921 177.025 258.697 176.843 258.445 176.722C258.193 176.601 257.904 176.54 257.577 176.54C257.269 176.54 257.031 176.587 256.863 176.68C256.695 176.773 256.611 176.909 256.611 177.086C256.611 177.273 256.695 177.417 256.863 177.52C257.031 177.623 257.246 177.711 257.507 177.786C257.778 177.861 258.058 177.945 258.347 178.038C258.646 178.122 258.926 178.243 259.187 178.402C259.458 178.551 259.677 178.757 259.845 179.018C260.013 179.27 260.097 179.601 260.097 180.012C260.097 180.665 259.868 181.183 259.411 181.566C258.954 181.949 258.333 182.14 257.549 182.14Z" fill="#1E1E1E"/>
<rect x="180" y="95" width="64" height="64" rx="32" fill="#9D8BF9"/>
<path d="M208.062 133.656L212 131.281L215.938 133.688L214.906 129.188L218.375 126.188L213.812 125.781L212 121.531L210.188 125.75L205.625 126.156L209.094 129.188L208.062 133.656ZM204.281 138.875L206.312 130.094L199.5 124.188L208.5 123.406L212 115.125L215.5 123.406L224.5 124.188L217.688 130.094L219.719 138.875L212 134.219L204.281 138.875Z" fill="#FDFDFD"/>
<g filter="url(#filter0_ddd_2383_5825)">
<rect x="116" y="23" width="192" height="64" rx="32" fill="#FDFDFD"/>
<rect x="116.5" y="23.5" width="191" height="63" rx="31.5" stroke="#9D8BF9"/>
<path d="M130.632 45.926V44.302H132.718C133.157 44.302 133.493 44.19 133.726 43.966C133.969 43.742 134.09 43.4387 134.09 43.056C134.09 42.7013 133.973 42.4073 133.74 42.174C133.507 41.9407 133.171 41.824 132.732 41.824H130.632V40.116H132.984C133.637 40.116 134.211 40.242 134.706 40.494C135.201 40.7367 135.588 41.0773 135.868 41.516C136.148 41.9547 136.288 42.4587 136.288 43.028C136.288 43.6067 136.148 44.1153 135.868 44.554C135.588 44.9833 135.196 45.3193 134.692 45.562C134.188 45.8047 133.595 45.926 132.914 45.926H130.632ZM128.952 50V40.116H131.15V50H128.952ZM134.328 50L131.248 45.744L133.264 45.198L136.932 50H134.328ZM140.88 50.154C140.142 50.154 139.484 50.0047 138.906 49.706C138.336 49.398 137.888 48.9733 137.562 48.432C137.235 47.8907 137.072 47.2793 137.072 46.598C137.072 45.9167 137.23 45.31 137.548 44.778C137.874 44.2367 138.313 43.812 138.864 43.504C139.414 43.196 140.035 43.042 140.726 43.042C141.398 43.042 141.99 43.1867 142.504 43.476C143.017 43.7653 143.418 44.1667 143.708 44.68C144.006 45.1933 144.156 45.7813 144.156 46.444C144.156 46.5653 144.146 46.696 144.128 46.836C144.118 46.9667 144.095 47.1207 144.058 47.298L138.192 47.312V45.842L143.148 45.828L142.224 46.444C142.214 46.052 142.154 45.73 142.042 45.478C141.93 45.2167 141.762 45.0207 141.538 44.89C141.323 44.75 141.057 44.68 140.74 44.68C140.404 44.68 140.11 44.7593 139.858 44.918C139.615 45.0673 139.424 45.282 139.284 45.562C139.153 45.842 139.088 46.1827 139.088 46.584C139.088 46.9853 139.158 47.3307 139.298 47.62C139.447 47.9 139.652 48.1193 139.914 48.278C140.184 48.4273 140.502 48.502 140.866 48.502C141.202 48.502 141.505 48.446 141.776 48.334C142.046 48.2127 142.284 48.0353 142.49 47.802L143.666 48.978C143.33 49.37 142.924 49.664 142.448 49.86C141.972 50.056 141.449 50.154 140.88 50.154ZM148.032 50.14C147.406 50.14 146.846 49.986 146.352 49.678C145.866 49.37 145.479 48.95 145.19 48.418C144.91 47.886 144.77 47.2793 144.77 46.598C144.77 45.9167 144.91 45.31 145.19 44.778C145.479 44.246 145.866 43.826 146.352 43.518C146.846 43.21 147.406 43.056 148.032 43.056C148.489 43.056 148.9 43.1447 149.264 43.322C149.637 43.4993 149.94 43.7467 150.174 44.064C150.407 44.372 150.538 44.7267 150.566 45.128V48.068C150.538 48.4693 150.407 48.8287 150.174 49.146C149.95 49.454 149.651 49.6967 149.278 49.874C148.904 50.0513 148.489 50.14 148.032 50.14ZM148.466 48.208C148.923 48.208 149.292 48.0587 149.572 47.76C149.852 47.452 149.992 47.0647 149.992 46.598C149.992 46.2807 149.926 46.0007 149.796 45.758C149.674 45.5153 149.497 45.3287 149.264 45.198C149.04 45.058 148.778 44.988 148.48 44.988C148.181 44.988 147.915 45.058 147.682 45.198C147.458 45.3287 147.276 45.5153 147.136 45.758C147.005 46.0007 146.94 46.2807 146.94 46.598C146.94 46.906 147.005 47.1813 147.136 47.424C147.266 47.6667 147.448 47.858 147.682 47.998C147.915 48.138 148.176 48.208 148.466 48.208ZM149.908 50V48.166L150.23 46.514L149.908 44.862V43.196H152.008V50H149.908ZM156.414 50.14C155.77 50.14 155.196 49.986 154.692 49.678C154.197 49.37 153.805 48.95 153.516 48.418C153.236 47.886 153.096 47.2793 153.096 46.598C153.096 45.9167 153.236 45.31 153.516 44.778C153.805 44.246 154.197 43.826 154.692 43.518C155.196 43.21 155.77 43.056 156.414 43.056C156.88 43.056 157.3 43.1447 157.674 43.322C158.056 43.4993 158.369 43.7467 158.612 44.064C158.864 44.372 159.004 44.7267 159.032 45.128V47.998C159.004 48.3993 158.868 48.7633 158.626 49.09C158.383 49.4073 158.07 49.664 157.688 49.86C157.305 50.0467 156.88 50.14 156.414 50.14ZM156.792 48.208C157.1 48.208 157.366 48.1427 157.59 48.012C157.814 47.872 157.991 47.6807 158.122 47.438C158.252 47.1953 158.318 46.9153 158.318 46.598C158.318 46.2807 158.252 46.0053 158.122 45.772C158 45.5293 157.823 45.338 157.59 45.198C157.366 45.058 157.104 44.988 156.806 44.988C156.507 44.988 156.241 45.058 156.008 45.198C155.784 45.338 155.602 45.5293 155.462 45.772C155.331 46.0147 155.266 46.29 155.266 46.598C155.266 46.906 155.331 47.1813 155.462 47.424C155.592 47.6667 155.774 47.858 156.008 47.998C156.241 48.138 156.502 48.208 156.792 48.208ZM160.334 50H158.234V48.166L158.556 46.514L158.192 44.862V39.836H160.334V50ZM163.942 50.028L161.142 43.196H163.452L165.23 48.614H164.376L166.196 43.196H168.506L165.594 50.028H163.942ZM162.192 52.87L164.236 48.46L165.594 50.028L164.39 52.87H162.192Z" fill="#9D8BF9"/>
<path d="M173.423 50V40.564H174.683V50H173.423ZM171.785 44.498V43.35H176.321V44.498H171.785ZM180.388 50.14C179.734 50.14 179.146 49.986 178.624 49.678C178.101 49.37 177.686 48.9547 177.378 48.432C177.07 47.9 176.916 47.3073 176.916 46.654C176.916 46.01 177.07 45.4313 177.378 44.918C177.686 44.3953 178.101 43.98 178.624 43.672C179.146 43.364 179.734 43.21 180.388 43.21C181.032 43.21 181.615 43.364 182.138 43.672C182.67 43.9707 183.09 44.3813 183.398 44.904C183.706 45.4267 183.86 46.01 183.86 46.654C183.86 47.3073 183.706 47.9 183.398 48.432C183.09 48.9547 182.67 49.37 182.138 49.678C181.615 49.986 181.032 50.14 180.388 50.14ZM180.388 48.922C180.808 48.922 181.181 48.824 181.508 48.628C181.834 48.432 182.091 48.166 182.278 47.83C182.464 47.4847 182.558 47.0927 182.558 46.654C182.558 46.2247 182.46 45.842 182.264 45.506C182.077 45.17 181.82 44.9087 181.494 44.722C181.176 44.526 180.808 44.428 180.388 44.428C179.968 44.428 179.594 44.526 179.268 44.722C178.941 44.9087 178.684 45.17 178.498 45.506C178.311 45.842 178.218 46.2247 178.218 46.654C178.218 47.0927 178.311 47.4847 178.498 47.83C178.684 48.166 178.941 48.432 179.268 48.628C179.594 48.824 179.968 48.922 180.388 48.922ZM191.006 50.14C190.39 50.14 189.839 49.9907 189.354 49.692C188.868 49.384 188.481 48.9687 188.192 48.446C187.912 47.9233 187.772 47.3353 187.772 46.682C187.772 46.0287 187.912 45.4407 188.192 44.918C188.481 44.3953 188.868 43.98 189.354 43.672C189.839 43.364 190.39 43.21 191.006 43.21C191.5 43.21 191.948 43.3173 192.35 43.532C192.751 43.7373 193.073 44.0267 193.316 44.4C193.568 44.764 193.708 45.1887 193.736 45.674V47.676C193.708 48.152 193.572 48.5767 193.33 48.95C193.087 49.3233 192.765 49.6173 192.364 49.832C191.962 50.0373 191.51 50.14 191.006 50.14ZM191.216 48.95C191.636 48.95 192 48.852 192.308 48.656C192.625 48.46 192.872 48.194 193.05 47.858C193.227 47.5127 193.316 47.1207 193.316 46.682C193.316 46.2247 193.222 45.828 193.036 45.492C192.858 45.156 192.611 44.89 192.294 44.694C191.986 44.498 191.622 44.4 191.202 44.4C190.782 44.4 190.413 44.498 190.096 44.694C189.778 44.89 189.526 45.1607 189.34 45.506C189.162 45.842 189.074 46.2293 189.074 46.668C189.074 47.116 189.162 47.5127 189.34 47.858C189.526 48.194 189.778 48.46 190.096 48.656C190.422 48.852 190.796 48.95 191.216 48.95ZM194.506 50H193.232V48.208L193.47 46.584L193.232 44.974V40.004H194.506V50ZM196.354 50V43.35H197.614V50H196.354ZM196.984 42.02C196.751 42.02 196.559 41.9453 196.41 41.796C196.261 41.6373 196.186 41.4413 196.186 41.208C196.186 40.984 196.261 40.7973 196.41 40.648C196.559 40.4893 196.751 40.41 196.984 40.41C197.217 40.41 197.409 40.4893 197.558 40.648C197.707 40.7973 197.782 40.984 197.782 41.208C197.782 41.4413 197.707 41.6373 197.558 41.796C197.409 41.9453 197.217 42.02 196.984 42.02ZM201.585 50.14C201.212 50.14 200.857 50.0933 200.521 50C200.194 49.8973 199.891 49.7573 199.611 49.58C199.331 49.3933 199.088 49.174 198.883 48.922L199.695 48.11C199.938 48.4087 200.218 48.6327 200.535 48.782C200.852 48.922 201.207 48.992 201.599 48.992C201.991 48.992 202.294 48.9267 202.509 48.796C202.724 48.656 202.831 48.4647 202.831 48.222C202.831 47.9793 202.742 47.7927 202.565 47.662C202.397 47.522 202.178 47.41 201.907 47.326C201.636 47.2327 201.347 47.144 201.039 47.06C200.74 46.9667 200.456 46.85 200.185 46.71C199.914 46.57 199.69 46.3787 199.513 46.136C199.345 45.8933 199.261 45.5713 199.261 45.17C199.261 44.7687 199.359 44.4233 199.555 44.134C199.751 43.8353 200.022 43.6067 200.367 43.448C200.722 43.2893 201.146 43.21 201.641 43.21C202.164 43.21 202.626 43.3033 203.027 43.49C203.438 43.6673 203.774 43.938 204.035 44.302L203.223 45.114C203.036 44.8713 202.803 44.6847 202.523 44.554C202.252 44.4233 201.944 44.358 201.599 44.358C201.235 44.358 200.955 44.4233 200.759 44.554C200.572 44.6753 200.479 44.848 200.479 45.072C200.479 45.296 200.563 45.4687 200.731 45.59C200.899 45.7113 201.118 45.814 201.389 45.898C201.669 45.982 201.958 46.0707 202.257 46.164C202.556 46.248 202.84 46.3647 203.111 46.514C203.382 46.6633 203.601 46.864 203.769 47.116C203.946 47.368 204.035 47.6993 204.035 48.11C204.035 48.7353 203.811 49.23 203.363 49.594C202.924 49.958 202.332 50.14 201.585 50.14ZM208.483 50.14C207.83 50.14 207.237 49.986 206.705 49.678C206.183 49.37 205.767 48.9547 205.459 48.432C205.161 47.9 205.011 47.312 205.011 46.668C205.011 46.0147 205.161 45.4267 205.459 44.904C205.767 44.3813 206.183 43.9707 206.705 43.672C207.237 43.364 207.83 43.21 208.483 43.21C208.997 43.21 209.473 43.308 209.911 43.504C210.35 43.6907 210.728 43.966 211.045 44.33L210.205 45.17C210 44.9273 209.748 44.7453 209.449 44.624C209.16 44.4933 208.838 44.428 208.483 44.428C208.063 44.428 207.69 44.526 207.363 44.722C207.037 44.9087 206.78 45.17 206.593 45.506C206.407 45.842 206.313 46.2293 206.313 46.668C206.313 47.1067 206.407 47.494 206.593 47.83C206.78 48.166 207.037 48.432 207.363 48.628C207.69 48.824 208.063 48.922 208.483 48.922C208.838 48.922 209.16 48.8613 209.449 48.74C209.748 48.6093 210.005 48.4227 210.219 48.18L211.045 49.02C210.737 49.3747 210.359 49.65 209.911 49.846C209.473 50.042 208.997 50.14 208.483 50.14ZM215.196 50.14C214.543 50.14 213.955 49.986 213.432 49.678C212.91 49.37 212.494 48.9547 212.186 48.432C211.878 47.9 211.724 47.3073 211.724 46.654C211.724 46.01 211.878 45.4313 212.186 44.918C212.494 44.3953 212.91 43.98 213.432 43.672C213.955 43.364 214.543 43.21 215.196 43.21C215.84 43.21 216.424 43.364 216.946 43.672C217.478 43.9707 217.898 44.3813 218.206 44.904C218.514 45.4267 218.668 46.01 218.668 46.654C218.668 47.3073 218.514 47.9 218.206 48.432C217.898 48.9547 217.478 49.37 216.946 49.678C216.424 49.986 215.84 50.14 215.196 50.14ZM215.196 48.922C215.616 48.922 215.99 48.824 216.316 48.628C216.643 48.432 216.9 48.166 217.086 47.83C217.273 47.4847 217.366 47.0927 217.366 46.654C217.366 46.2247 217.268 45.842 217.072 45.506C216.886 45.17 216.629 44.9087 216.302 44.722C215.985 44.526 215.616 44.428 215.196 44.428C214.776 44.428 214.403 44.526 214.076 44.722C213.75 44.9087 213.493 45.17 213.306 45.506C213.12 45.842 213.026 46.2247 213.026 46.654C213.026 47.0927 213.12 47.4847 213.306 47.83C213.493 48.166 213.75 48.432 214.076 48.628C214.403 48.824 214.776 48.922 215.196 48.922ZM222.11 50L219.058 43.35H220.458L222.908 48.964H222.096L224.56 43.35H225.904L222.852 50H222.11ZM229.799 50.14C229.136 50.14 228.539 49.9907 228.007 49.692C227.475 49.384 227.055 48.9687 226.747 48.446C226.439 47.9233 226.285 47.3307 226.285 46.668C226.285 46.0147 226.434 45.4267 226.733 44.904C227.041 44.3813 227.452 43.9707 227.965 43.672C228.488 43.364 229.071 43.21 229.715 43.21C230.331 43.21 230.872 43.35 231.339 43.63C231.815 43.91 232.184 44.2973 232.445 44.792C232.716 45.2867 232.851 45.8467 232.851 46.472C232.851 46.5653 232.846 46.668 232.837 46.78C232.828 46.8827 232.809 47.004 232.781 47.144H227.167V46.094H232.109L231.647 46.5C231.647 46.052 231.568 45.674 231.409 45.366C231.25 45.0487 231.026 44.806 230.737 44.638C230.448 44.4607 230.098 44.372 229.687 44.372C229.258 44.372 228.88 44.4653 228.553 44.652C228.226 44.8387 227.974 45.1 227.797 45.436C227.62 45.772 227.531 46.1687 227.531 46.626C227.531 47.0927 227.624 47.5033 227.811 47.858C227.998 48.2033 228.264 48.474 228.609 48.67C228.954 48.8567 229.351 48.95 229.799 48.95C230.172 48.95 230.513 48.8847 230.821 48.754C231.138 48.6233 231.409 48.4273 231.633 48.166L232.445 48.992C232.128 49.3653 231.736 49.65 231.269 49.846C230.812 50.042 230.322 50.14 229.799 50.14ZM234.225 50V43.35H235.485V50H234.225ZM235.485 46.206L235.009 45.996C235.009 45.1467 235.205 44.47 235.597 43.966C235.989 43.462 236.553 43.21 237.291 43.21C237.627 43.21 237.93 43.2707 238.201 43.392C238.471 43.504 238.723 43.6953 238.957 43.966L238.131 44.82C237.991 44.6707 237.837 44.5633 237.669 44.498C237.501 44.4327 237.305 44.4 237.081 44.4C236.614 44.4 236.231 44.5493 235.933 44.848C235.634 45.1467 235.485 45.5993 235.485 46.206ZM245.186 50.056L242.302 43.35H243.702L245.844 48.6H245.396L247.65 43.35H249.05L245.942 50.056H245.186ZM243.282 52.786L245.242 48.768L245.942 50.056L244.682 52.786H243.282ZM252.862 50.14C252.209 50.14 251.621 49.986 251.098 49.678C250.576 49.37 250.16 48.9547 249.852 48.432C249.544 47.9 249.39 47.3073 249.39 46.654C249.39 46.01 249.544 45.4313 249.852 44.918C250.16 44.3953 250.576 43.98 251.098 43.672C251.621 43.364 252.209 43.21 252.862 43.21C253.506 43.21 254.09 43.364 254.612 43.672C255.144 43.9707 255.564 44.3813 255.872 44.904C256.18 45.4267 256.334 46.01 256.334 46.654C256.334 47.3073 256.18 47.9 255.872 48.432C255.564 48.9547 255.144 49.37 254.612 49.678C254.09 49.986 253.506 50.14 252.862 50.14ZM252.862 48.922C253.282 48.922 253.656 48.824 253.982 48.628C254.309 48.432 254.566 48.166 254.752 47.83C254.939 47.4847 255.032 47.0927 255.032 46.654C255.032 46.2247 254.934 45.842 254.738 45.506C254.552 45.17 254.295 44.9087 253.968 44.722C253.651 44.526 253.282 44.428 252.862 44.428C252.442 44.428 252.069 44.526 251.742 44.722C251.416 44.9087 251.159 45.17 250.972 45.506C250.786 45.842 250.692 46.2247 250.692 46.654C250.692 47.0927 250.786 47.4847 250.972 47.83C251.159 48.166 251.416 48.432 251.742 48.628C252.069 48.824 252.442 48.922 252.862 48.922ZM260.428 50.14C259.887 50.14 259.397 50.0187 258.958 49.776C258.529 49.524 258.193 49.1787 257.95 48.74C257.707 48.3013 257.586 47.7927 257.586 47.214V43.35H258.846V47.158C258.846 47.522 258.907 47.8393 259.028 48.11C259.159 48.3713 259.345 48.572 259.588 48.712C259.831 48.852 260.115 48.922 260.442 48.922C260.937 48.922 261.324 48.768 261.604 48.46C261.884 48.1427 262.024 47.7087 262.024 47.158V43.35H263.284V47.214C263.284 47.7927 263.163 48.3013 262.92 48.74C262.677 49.1787 262.341 49.524 261.912 49.776C261.492 50.0187 260.997 50.14 260.428 50.14ZM264.973 50V43.35H266.233V50H264.973ZM266.233 46.206L265.757 45.996C265.757 45.1467 265.953 44.47 266.345 43.966C266.737 43.462 267.301 43.21 268.039 43.21C268.375 43.21 268.678 43.2707 268.949 43.392C269.219 43.504 269.471 43.6953 269.705 43.966L268.879 44.82C268.739 44.6707 268.585 44.5633 268.417 44.498C268.249 44.4327 268.053 44.4 267.829 44.4C267.362 44.4 266.979 44.5493 266.681 44.848C266.382 45.1467 266.233 45.5993 266.233 46.206ZM131.038 70.14C130.665 70.14 130.31 70.0933 129.974 70C129.647 69.8973 129.344 69.7573 129.064 69.58C128.784 69.3933 128.541 69.174 128.336 68.922L129.148 68.11C129.391 68.4087 129.671 68.6327 129.988 68.782C130.305 68.922 130.66 68.992 131.052 68.992C131.444 68.992 131.747 68.9267 131.962 68.796C132.177 68.656 132.284 68.4647 132.284 68.222C132.284 67.9793 132.195 67.7927 132.018 67.662C131.85 67.522 131.631 67.41 131.36 67.326C131.089 67.2327 130.8 67.144 130.492 67.06C130.193 66.9667 129.909 66.85 129.638 66.71C129.367 66.57 129.143 66.3787 128.966 66.136C128.798 65.8933 128.714 65.5713 128.714 65.17C128.714 64.7687 128.812 64.4233 129.008 64.134C129.204 63.8353 129.475 63.6067 129.82 63.448C130.175 63.2893 130.599 63.21 131.094 63.21C131.617 63.21 132.079 63.3033 132.48 63.49C132.891 63.6673 133.227 63.938 133.488 64.302L132.676 65.114C132.489 64.8713 132.256 64.6847 131.976 64.554C131.705 64.4233 131.397 64.358 131.052 64.358C130.688 64.358 130.408 64.4233 130.212 64.554C130.025 64.6753 129.932 64.848 129.932 65.072C129.932 65.296 130.016 65.4687 130.184 65.59C130.352 65.7113 130.571 65.814 130.842 65.898C131.122 65.982 131.411 66.0707 131.71 66.164C132.009 66.248 132.293 66.3647 132.564 66.514C132.835 66.6633 133.054 66.864 133.222 67.116C133.399 67.368 133.488 67.6993 133.488 68.11C133.488 68.7353 133.264 69.23 132.816 69.594C132.377 69.958 131.785 70.14 131.038 70.14ZM139.155 70L136.047 66.598L139.127 63.35H140.653L137.223 66.934L137.279 66.206L140.779 70H139.155ZM134.899 70V60.004H136.159V70H134.899ZM141.639 70V63.35H142.899V70H141.639ZM142.269 62.02C142.036 62.02 141.845 61.9453 141.695 61.796C141.546 61.6373 141.471 61.4413 141.471 61.208C141.471 60.984 141.546 60.7973 141.695 60.648C141.845 60.4893 142.036 60.41 142.269 60.41C142.503 60.41 142.694 60.4893 142.843 60.648C142.993 60.7973 143.067 60.984 143.067 61.208C143.067 61.4413 142.993 61.6373 142.843 61.796C142.694 61.9453 142.503 62.02 142.269 62.02ZM144.756 70V60.004H146.016V70H144.756ZM147.86 70V60.004H149.12V70H147.86ZM153.077 70.14C152.704 70.14 152.349 70.0933 152.013 70C151.686 69.8973 151.383 69.7573 151.103 69.58C150.823 69.3933 150.58 69.174 150.375 68.922L151.187 68.11C151.43 68.4087 151.71 68.6327 152.027 68.782C152.344 68.922 152.699 68.992 153.091 68.992C153.483 68.992 153.786 68.9267 154.001 68.796C154.216 68.656 154.323 68.4647 154.323 68.222C154.323 67.9793 154.234 67.7927 154.057 67.662C153.889 67.522 153.67 67.41 153.399 67.326C153.128 67.2327 152.839 67.144 152.531 67.06C152.232 66.9667 151.948 66.85 151.677 66.71C151.406 66.57 151.182 66.3787 151.005 66.136C150.837 65.8933 150.753 65.5713 150.753 65.17C150.753 64.7687 150.851 64.4233 151.047 64.134C151.243 63.8353 151.514 63.6067 151.859 63.448C152.214 63.2893 152.638 63.21 153.133 63.21C153.656 63.21 154.118 63.3033 154.519 63.49C154.93 63.6673 155.266 63.938 155.527 64.302L154.715 65.114C154.528 64.8713 154.295 64.6847 154.015 64.554C153.744 64.4233 153.436 64.358 153.091 64.358C152.727 64.358 152.447 64.4233 152.251 64.554C152.064 64.6753 151.971 64.848 151.971 65.072C151.971 65.296 152.055 65.4687 152.223 65.59C152.391 65.7113 152.61 65.814 152.881 65.898C153.161 65.982 153.45 66.0707 153.749 66.164C154.048 66.248 154.332 66.3647 154.603 66.514C154.874 66.6633 155.093 66.864 155.261 67.116C155.438 67.368 155.527 67.6993 155.527 68.11C155.527 68.7353 155.303 69.23 154.855 69.594C154.416 69.958 153.824 70.14 153.077 70.14ZM166.444 70L161.796 65.016C161.432 64.624 161.161 64.2507 160.984 63.896C160.806 63.5413 160.718 63.1493 160.718 62.72C160.718 62.2253 160.834 61.7867 161.068 61.404C161.301 61.012 161.623 60.704 162.034 60.48C162.444 60.2467 162.916 60.13 163.448 60.13C163.84 60.13 164.194 60.1953 164.512 60.326C164.838 60.4473 165.123 60.6107 165.366 60.816C165.618 61.0213 165.828 61.2547 165.996 61.516L165.086 62.342C164.871 62.0433 164.633 61.8053 164.372 61.628C164.12 61.4413 163.812 61.348 163.448 61.348C163.028 61.348 162.678 61.474 162.398 61.726C162.118 61.978 161.978 62.3047 161.978 62.706C161.978 63.042 162.048 63.3267 162.188 63.56C162.328 63.7933 162.538 64.064 162.818 64.372L167.984 70H166.444ZM162.958 70.14C162.314 70.14 161.749 70.014 161.264 69.762C160.778 69.51 160.4 69.1647 160.13 68.726C159.868 68.278 159.738 67.7693 159.738 67.2C159.738 66.612 159.896 66.08 160.214 65.604C160.531 65.128 160.993 64.75 161.6 64.47L162.202 65.254C161.828 65.4407 161.534 65.6973 161.32 66.024C161.105 66.3413 160.998 66.724 160.998 67.172C160.998 67.536 161.082 67.8487 161.25 68.11C161.418 68.3713 161.651 68.5767 161.95 68.726C162.258 68.866 162.608 68.936 163 68.936C163.494 68.936 163.914 68.8333 164.26 68.628C164.605 68.4227 164.866 68.1613 165.044 67.844L165.87 68.81C165.683 69.062 165.436 69.2907 165.128 69.496C164.829 69.692 164.493 69.8507 164.12 69.972C163.756 70.084 163.368 70.14 162.958 70.14ZM171.471 70V63.35H172.731V70H171.471ZM172.101 62.02C171.868 62.02 171.677 61.9453 171.527 61.796C171.378 61.6373 171.303 61.4413 171.303 61.208C171.303 60.984 171.378 60.7973 171.527 60.648C171.677 60.4893 171.868 60.41 172.101 60.41C172.335 60.41 172.526 60.4893 172.675 60.648C172.825 60.7973 172.899 60.984 172.899 61.208C172.899 61.4413 172.825 61.6373 172.675 61.796C172.526 61.9453 172.335 62.02 172.101 62.02ZM179.292 70V66.122C179.292 65.618 179.133 65.2027 178.816 64.876C178.499 64.5493 178.088 64.386 177.584 64.386C177.248 64.386 176.949 64.4607 176.688 64.61C176.427 64.7593 176.221 64.9647 176.072 65.226C175.923 65.4873 175.848 65.786 175.848 66.122L175.33 65.828C175.33 65.324 175.442 64.876 175.666 64.484C175.89 64.092 176.203 63.784 176.604 63.56C177.005 63.3267 177.458 63.21 177.962 63.21C178.466 63.21 178.909 63.336 179.292 63.588C179.684 63.84 179.992 64.1713 180.216 64.582C180.44 64.9833 180.552 65.4127 180.552 65.87V70H179.292ZM174.588 70V63.35H175.848V70H174.588ZM183.198 70V60.564H184.458V70H183.198ZM181.56 64.498V63.35H186.096V64.498H181.56ZM190.205 70.14C189.543 70.14 188.945 69.9907 188.413 69.692C187.881 69.384 187.461 68.9687 187.153 68.446C186.845 67.9233 186.691 67.3307 186.691 66.668C186.691 66.0147 186.841 65.4267 187.139 64.904C187.447 64.3813 187.858 63.9707 188.371 63.672C188.894 63.364 189.477 63.21 190.121 63.21C190.737 63.21 191.279 63.35 191.745 63.63C192.221 63.91 192.59 64.2973 192.851 64.792C193.122 65.2867 193.257 65.8467 193.257 66.472C193.257 66.5653 193.253 66.668 193.243 66.78C193.234 66.8827 193.215 67.004 193.187 67.144H187.573V66.094H192.515L192.053 66.5C192.053 66.052 191.974 65.674 191.815 65.366C191.657 65.0487 191.433 64.806 191.143 64.638C190.854 64.4607 190.504 64.372 190.093 64.372C189.664 64.372 189.286 64.4653 188.959 64.652C188.633 64.8387 188.381 65.1 188.203 65.436C188.026 65.772 187.937 66.1687 187.937 66.626C187.937 67.0927 188.031 67.5033 188.217 67.858C188.404 68.2033 188.67 68.474 189.015 68.67C189.361 68.8567 189.757 68.95 190.205 68.95C190.579 68.95 190.919 68.8847 191.227 68.754C191.545 68.6233 191.815 68.4273 192.039 68.166L192.851 68.992C192.534 69.3653 192.142 69.65 191.675 69.846C191.218 70.042 190.728 70.14 190.205 70.14ZM194.631 70V63.35H195.891V70H194.631ZM195.891 66.206L195.415 65.996C195.415 65.1467 195.611 64.47 196.003 63.966C196.395 63.462 196.96 63.21 197.697 63.21C198.033 63.21 198.336 63.2707 198.607 63.392C198.878 63.504 199.13 63.6953 199.363 63.966L198.537 64.82C198.397 64.6707 198.243 64.5633 198.075 64.498C197.907 64.4327 197.711 64.4 197.487 64.4C197.02 64.4 196.638 64.5493 196.339 64.848C196.04 65.1467 195.891 65.5993 195.891 66.206ZM203.111 70.14C202.449 70.14 201.851 69.9907 201.319 69.692C200.787 69.384 200.367 68.9687 200.059 68.446C199.751 67.9233 199.597 67.3307 199.597 66.668C199.597 66.0147 199.747 65.4267 200.045 64.904C200.353 64.3813 200.764 63.9707 201.277 63.672C201.8 63.364 202.383 63.21 203.027 63.21C203.643 63.21 204.185 63.35 204.651 63.63C205.127 63.91 205.496 64.2973 205.757 64.792C206.028 65.2867 206.163 65.8467 206.163 66.472C206.163 66.5653 206.159 66.668 206.149 66.78C206.14 66.8827 206.121 67.004 206.093 67.144H200.479V66.094H205.421L204.959 66.5C204.959 66.052 204.88 65.674 204.721 65.366C204.563 65.0487 204.339 64.806 204.049 64.638C203.76 64.4607 203.41 64.372 202.999 64.372C202.57 64.372 202.192 64.4653 201.865 64.652C201.539 64.8387 201.287 65.1 201.109 65.436C200.932 65.772 200.843 66.1687 200.843 66.626C200.843 67.0927 200.937 67.5033 201.123 67.858C201.31 68.2033 201.576 68.474 201.921 68.67C202.267 68.8567 202.663 68.95 203.111 68.95C203.485 68.95 203.825 68.8847 204.133 68.754C204.451 68.6233 204.721 68.4273 204.945 68.166L205.757 68.992C205.44 69.3653 205.048 69.65 204.581 69.846C204.124 70.042 203.634 70.14 203.111 70.14ZM209.651 70.14C209.278 70.14 208.923 70.0933 208.587 70C208.261 69.8973 207.957 69.7573 207.677 69.58C207.397 69.3933 207.155 69.174 206.949 68.922L207.761 68.11C208.004 68.4087 208.284 68.6327 208.601 68.782C208.919 68.922 209.273 68.992 209.665 68.992C210.057 68.992 210.361 68.9267 210.575 68.796C210.79 68.656 210.897 68.4647 210.897 68.222C210.897 67.9793 210.809 67.7927 210.631 67.662C210.463 67.522 210.244 67.41 209.973 67.326C209.703 67.2327 209.413 67.144 209.105 67.06C208.807 66.9667 208.522 66.85 208.251 66.71C207.981 66.57 207.757 66.3787 207.579 66.136C207.411 65.8933 207.327 65.5713 207.327 65.17C207.327 64.7687 207.425 64.4233 207.621 64.134C207.817 63.8353 208.088 63.6067 208.433 63.448C208.788 63.2893 209.213 63.21 209.707 63.21C210.23 63.21 210.692 63.3033 211.093 63.49C211.504 63.6673 211.84 63.938 212.101 64.302L211.289 65.114C211.103 64.8713 210.869 64.6847 210.589 64.554C210.319 64.4233 210.011 64.358 209.665 64.358C209.301 64.358 209.021 64.4233 208.825 64.554C208.639 64.6753 208.545 64.848 208.545 65.072C208.545 65.296 208.629 65.4687 208.797 65.59C208.965 65.7113 209.185 65.814 209.455 65.898C209.735 65.982 210.025 66.0707 210.323 66.164C210.622 66.248 210.907 66.3647 211.177 66.514C211.448 66.6633 211.667 66.864 211.835 67.116C212.013 67.368 212.101 67.6993 212.101 68.11C212.101 68.7353 211.877 69.23 211.429 69.594C210.991 69.958 210.398 70.14 209.651 70.14ZM214.534 70V60.564H215.794V70H214.534ZM212.896 64.498V63.35H217.432V64.498H212.896ZM220.643 70.14C220.27 70.14 219.915 70.0933 219.579 70C219.253 69.8973 218.949 69.7573 218.669 69.58C218.389 69.3933 218.147 69.174 217.941 68.922L218.753 68.11C218.996 68.4087 219.276 68.6327 219.593 68.782C219.911 68.922 220.265 68.992 220.657 68.992C221.049 68.992 221.353 68.9267 221.567 68.796C221.782 68.656 221.889 68.4647 221.889 68.222C221.889 67.9793 221.801 67.7927 221.623 67.662C221.455 67.522 221.236 67.41 220.965 67.326C220.695 67.2327 220.405 67.144 220.097 67.06C219.799 66.9667 219.514 66.85 219.243 66.71C218.973 66.57 218.749 66.3787 218.571 66.136C218.403 65.8933 218.319 65.5713 218.319 65.17C218.319 64.7687 218.417 64.4233 218.613 64.134C218.809 63.8353 219.08 63.6067 219.425 63.448C219.78 63.2893 220.205 63.21 220.699 63.21C221.222 63.21 221.684 63.3033 222.085 63.49C222.496 63.6673 222.832 63.938 223.093 64.302L222.281 65.114C222.095 64.8713 221.861 64.6847 221.581 64.554C221.311 64.4233 221.003 64.358 220.657 64.358C220.293 64.358 220.013 64.4233 219.817 64.554C219.631 64.6753 219.537 64.848 219.537 65.072C219.537 65.296 219.621 65.4687 219.789 65.59C219.957 65.7113 220.177 65.814 220.447 65.898C220.727 65.982 221.017 66.0707 221.315 66.164C221.614 66.248 221.899 66.3647 222.169 66.514C222.44 66.6633 222.659 66.864 222.827 67.116C223.005 67.368 223.093 67.6993 223.093 68.11C223.093 68.7353 222.869 69.23 222.421 69.594C221.983 69.958 221.39 70.14 220.643 70.14ZM226.646 66.92L226.632 64.26L227.01 64.246C227.337 64.246 227.621 64.176 227.864 64.036C228.116 63.896 228.312 63.7047 228.452 63.462C228.592 63.2193 228.662 62.9487 228.662 62.65C228.662 62.342 228.592 62.0713 228.452 61.838C228.321 61.6047 228.13 61.4227 227.878 61.292C227.635 61.1613 227.346 61.096 227.01 61.096C226.562 61.096 226.175 61.208 225.848 61.432C225.521 61.656 225.26 61.9733 225.064 62.384L224.14 61.614C224.411 61.0633 224.798 60.634 225.302 60.326C225.815 60.018 226.403 59.864 227.066 59.864C227.635 59.864 228.139 59.9807 228.578 60.214C229.017 60.438 229.357 60.7553 229.6 61.166C229.843 61.5673 229.964 62.034 229.964 62.566C229.964 63.0513 229.852 63.4947 229.628 63.896C229.413 64.288 229.105 64.6147 228.704 64.876C228.312 65.128 227.845 65.2913 227.304 65.366L227.85 64.806L227.738 66.92H226.646ZM227.178 70.14C226.917 70.14 226.697 70.0513 226.52 69.874C226.352 69.6967 226.268 69.4773 226.268 69.216C226.268 68.9547 226.352 68.74 226.52 68.572C226.697 68.3947 226.917 68.306 227.178 68.306C227.439 68.306 227.654 68.3947 227.822 68.572C227.999 68.74 228.088 68.9547 228.088 69.216C228.088 69.4773 227.999 69.6967 227.822 69.874C227.654 70.0513 227.439 70.14 227.178 70.14Z" fill="#1E1E1E"/>
</g>
<defs>
<filter id="filter0_ddd_2383_5825" x="104" y="21" width="216" height="88" filterUnits="userSpaceOnUse" color-interpolation-filters="sRGB">
<feFlood flood-opacity="0" result="BackgroundImageFix"/>
<feColorMatrix in="SourceAlpha" type="matrix" values="0 0 0 0 0 0 0 0 0 0 0 0 0 0 0 0 0 0 127 0" result="hardAlpha"/>
<feMorphology radius="4" operator="erode" in="SourceAlpha" result="effect1_dropShadow_2383_5825"/>
<feOffset dy="4"/>
<feGaussianBlur stdDeviation="3"/>
<feComposite in2="hardAlpha" operator="out"/>
<feColorMatrix type="matrix" values="0 0 0 0 0 0 0 0 0 0 0 0 0 0 0 0 0 0 0.1 0"/>
<feBlend mode="normal" in2="BackgroundImageFix" result="effect1_dropShadow_2383_5825"/>
<feColorMatrix in="SourceAlpha" type="matrix" values="0 0 0 0 0 0 0 0 0 0 0 0 0 0 0 0 0 0 127 0" result="hardAlpha"/>
<feMorphology radius="3" operator="erode" in="SourceAlpha" result="effect2_dropShadow_2383_5825"/>
<feOffset dy="10"/>
<feGaussianBlur stdDeviation="7.5"/>
<feComposite in2="hardAlpha" operator="out"/>
<feColorMatrix type="matrix" values="0 0 0 0 0 0 0 0 0 0 0 0 0 0 0 0 0 0 0.1 0"/>
<feBlend mode="normal" in2="effect1_dropShadow_2383_5825" result="effect2_dropShadow_2383_5825"/>
<feColorMatrix in="SourceAlpha" type="matrix" values="0 0 0 0 0 0 0 0 0 0 0 0 0 0 0 0 0 0 127 0" result="hardAlpha"/>
<feMorphology radius="1" operator="dilate" in="SourceAlpha" result="effect3_dropShadow_2383_5825"/>
<feOffset/>
<feComposite in2="hardAlpha" operator="out"/>
<feColorMatrix type="matrix" values="0 0 0 0 0.886275 0 0 0 0 0.909804 0 0 0 0 0.941176 0 0 0 1 0"/>
<feBlend mode="normal" in2="effect2_dropShadow_2383_5825" result="effect3_dropShadow_2383_5825"/>
<feBlend mode="normal" in="SourceGraphic" in2="effect3_dropShadow_2383_5825" result="shape"/>
</filter>
</defs>
</svg>
