<svg width="24" height="24" viewBox="0 0 24 24" fill="none" xmlns="http://www.w3.org/2000/svg">
<path d="M13.7784 21.0938H10.9486C10.7749 21.0938 10.6074 21.0295 10.4782 20.9134C10.3491 20.7972 10.2675 20.6374 10.2492 20.4647L10.0397 18.4917C9.74718 18.3922 9.46143 18.2738 9.18422 18.1373L7.6425 19.3842C7.50757 19.4929 7.33726 19.5479 7.16424 19.5388C6.99123 19.5296 6.82769 19.4569 6.705 19.3345L4.70391 17.3334C4.58157 17.2107 4.50885 17.0472 4.49968 16.8742C4.49051 16.7012 4.54554 16.5309 4.65422 16.3959L5.90156 14.8523C5.76487 14.5752 5.64634 14.2894 5.54672 13.9969L3.57047 13.7859C3.39783 13.7677 3.23806 13.6861 3.12192 13.5571C3.00578 13.4281 2.94148 13.2606 2.94141 13.087V10.2567C2.94148 10.0831 3.00578 9.91568 3.12192 9.78664C3.23806 9.65761 3.39783 9.5761 3.57047 9.55781L5.54344 9.34828C5.64306 9.05574 5.76159 8.76998 5.89828 8.49281L4.65094 6.94922C4.54226 6.81429 4.48723 6.64398 4.4964 6.47096C4.50557 6.29795 4.57829 6.13441 4.70062 6.01172L6.70172 4.01063C6.82441 3.88829 6.98795 3.81557 7.16096 3.8064C7.33398 3.79723 7.50428 3.85226 7.63922 3.96094L9.18281 5.20781C9.46002 5.07136 9.74578 4.95299 10.0383 4.85344L10.2478 2.88047C10.2658 2.70726 10.3474 2.54688 10.4769 2.43041C10.6064 2.31394 10.7744 2.24965 10.9486 2.25H13.7784C13.9521 2.24996 14.1197 2.31421 14.2488 2.43036C14.3779 2.54651 14.4595 2.70634 14.4778 2.87906L14.6869 4.85203C14.9795 4.95158 15.2654 5.06995 15.5428 5.20641L17.0859 3.95953C17.2209 3.85085 17.3912 3.79582 17.5642 3.80499C17.7372 3.81416 17.9007 3.88689 18.0234 4.00922L20.0245 6.01031C20.1469 6.133 20.2196 6.29654 20.2288 6.46956C20.2379 6.64257 20.1829 6.81288 20.0742 6.94781L18.8269 8.49141C18.9634 8.76866 19.0819 9.05441 19.1817 9.34688L21.1547 9.55641C21.3272 9.5748 21.4869 9.65636 21.6029 9.78538C21.719 9.9144 21.7832 10.0818 21.7833 10.2553V13.0856C21.7836 13.2591 21.7198 13.4266 21.6041 13.5559C21.4884 13.6851 21.329 13.7671 21.1566 13.7859L19.1836 13.9955C19.0838 14.2879 18.9652 14.5737 18.8288 14.8509L20.0761 16.3945C20.1848 16.5295 20.2398 16.6998 20.2306 16.8728C20.2215 17.0458 20.1487 17.2093 20.0264 17.332L18.0253 19.3345C17.9026 19.4569 17.7391 19.5296 17.5661 19.5388C17.3931 19.5479 17.2227 19.4929 17.0878 19.3842L15.5447 18.1373C15.2673 18.2738 14.9814 18.3922 14.6888 18.4917L14.4797 20.4647C14.4614 20.6377 14.3795 20.7978 14.25 20.914C14.1205 21.0302 13.9524 21.0943 13.7784 21.0938ZM11.58 19.6875H13.1452L13.3369 17.88C13.3519 17.7385 13.4095 17.6049 13.5021 17.4969C13.5947 17.3888 13.7178 17.3114 13.8553 17.2748C14.3506 17.1428 14.826 16.9453 15.2691 16.6875C15.3924 16.6156 15.5347 16.583 15.6771 16.594C15.8194 16.6049 15.9551 16.659 16.0659 16.7489L17.4797 17.8913L18.5864 16.7845L17.4422 15.375C17.3523 15.2641 17.2982 15.1285 17.2873 14.9861C17.2763 14.8438 17.3089 14.7015 17.3808 14.5781C17.638 14.1354 17.8349 13.6602 17.9662 13.1653C18.0029 13.0278 18.0803 12.9045 18.1885 12.812C18.2966 12.7194 18.4303 12.6618 18.5719 12.6469L20.3789 12.4547V10.8895L18.5719 10.6973C18.4303 10.6824 18.2966 10.6248 18.1885 10.5323C18.0803 10.4397 18.0029 10.3165 17.9662 10.1789C17.8349 9.68383 17.638 9.20853 17.3808 8.76563C17.3089 8.64227 17.2763 8.49996 17.2873 8.35762C17.2982 8.21527 17.3523 8.07964 17.4422 7.96875L18.5845 6.555L17.4778 5.44828L16.0641 6.59063C15.9532 6.68055 15.8175 6.73459 15.6752 6.74556C15.5329 6.75653 15.3905 6.72391 15.2672 6.65203C14.8243 6.39501 14.3492 6.19812 13.8544 6.06656C13.7169 6.02999 13.5937 5.95257 13.5012 5.84452C13.4086 5.73647 13.351 5.60289 13.3359 5.46141L13.1461 3.65625H11.58L11.3883 5.46375C11.3732 5.60529 11.3155 5.73892 11.2229 5.84697C11.1302 5.95503 11.007 6.03242 10.8694 6.06891C10.3749 6.20106 9.90023 6.39858 9.45797 6.65625C9.33461 6.72813 9.1923 6.76075 9.04996 6.74978C8.90761 6.73881 8.77198 6.68477 8.66109 6.59485L7.24875 5.45063L6.1425 6.55735L7.28531 7.9711C7.37517 8.08203 7.42912 8.21769 7.44001 8.36003C7.45089 8.50238 7.41819 8.64466 7.34625 8.76797C7.08943 9.21092 6.89255 9.68601 6.76078 10.1808C6.72421 10.3183 6.64678 10.4414 6.53874 10.534C6.43069 10.6266 6.2971 10.6842 6.15562 10.6992L4.34813 10.8914V12.4561L6.15562 12.6483C6.2971 12.6633 6.43069 12.7209 6.53874 12.8135C6.64678 12.9061 6.72421 13.0292 6.76078 13.1667C6.89252 13.661 7.08924 14.1356 7.34578 14.5781C7.41772 14.7014 7.45042 14.8437 7.43954 14.9861C7.42865 15.1284 7.3747 15.2641 7.28484 15.375L6.1425 16.7864L7.24922 17.8931L8.66344 16.7508C8.77432 16.6609 8.90996 16.6068 9.0523 16.5958C9.19465 16.5849 9.33696 16.6175 9.46031 16.6894C9.90297 16.9465 10.3779 17.1434 10.8727 17.2748C11.0102 17.3113 11.1335 17.3887 11.2262 17.4968C11.3188 17.6048 11.3765 17.7385 11.3916 17.88L11.58 19.6875Z" fill="#1E1E1E"/>
<path d="M12.3641 15.9537C11.5171 15.9536 10.6892 15.7023 9.98496 15.2317C9.28077 14.7611 8.73195 14.0922 8.40788 13.3097C8.08382 12.5272 7.99908 11.6661 8.16438 10.8354C8.32967 10.0047 8.73758 9.24169 9.33651 8.64282C9.93545 8.04395 10.6985 7.63613 11.5292 7.47093C12.3599 7.30572 13.221 7.39056 14.0035 7.7147C14.786 8.03885 15.4548 8.58775 15.9253 9.29199C16.3959 9.99624 16.647 10.8242 16.647 11.6712C16.6458 12.8067 16.1941 13.8953 15.3912 14.6982C14.5882 15.501 13.4996 15.9526 12.3641 15.9537ZM12.3641 8.79492C11.7952 8.79502 11.2392 8.96378 10.7662 9.27989C10.2933 9.59599 9.92472 10.0452 9.70709 10.5708C9.48947 11.0964 9.43257 11.6747 9.54361 12.2326C9.65464 12.7905 9.92861 13.303 10.3309 13.7052C10.7332 14.1074 11.2457 14.3812 11.8036 14.4922C12.3615 14.6031 12.9398 14.5461 13.4653 14.3284C13.9909 14.1107 14.4401 13.7421 14.7561 13.2691C15.0721 12.7961 15.2408 12.24 15.2408 11.6712C15.2399 10.9085 14.9365 10.1774 14.3972 9.63815C13.8579 9.09892 13.1267 8.79567 12.3641 8.79492Z" fill="#1E1E1E"/>
</svg>
