<svg width="24" height="24" viewBox="0 0 24 24" fill="none" xmlns="http://www.w3.org/2000/svg">
<path d="M12 24C18.6274 24 24 18.6274 24 12C24 5.37258 18.6274 0 12 0C5.37258 0 0 5.37258 0 12C0 18.6274 5.37258 24 12 24Z" fill="url(#paint0_linear_2847_2656)" fill-opacity="0.7"/>
<path d="M11.9969 23.2008C18.1825 23.2008 23.1969 18.1864 23.1969 12.0008C23.1969 5.81519 18.1825 0.800781 11.9969 0.800781C5.81129 0.800781 0.796875 5.81519 0.796875 12.0008C0.796875 18.1864 5.81129 23.2008 11.9969 23.2008Z" stroke="black" stroke-opacity="0.1" stroke-width="0.907258"/>
<path opacity="0.15" d="M11.9974 2.66602C12.5307 7.99935 15.9974 11.466 21.3307 11.9993C15.9974 12.5327 12.5307 15.9993 11.9974 21.3327C11.4641 15.9993 7.9974 12.5327 2.66406 11.9993C7.9974 11.466 11.4641 7.99935 11.9974 2.66602Z" fill="#FDFDFD"/>
<path d="M12.0039 20C16.4222 20 20.0039 16.4183 20.0039 12C20.0039 7.58172 16.4222 4 12.0039 4C7.58563 4 4.00391 7.58172 4.00391 12C4.00391 16.4183 7.58563 20 12.0039 20Z" fill="url(#paint1_radial_2847_2656)"/>
<path opacity="0.8" d="M12.0013 13.3327C12.7377 13.3327 13.3346 12.7357 13.3346 11.9993C13.3346 11.263 12.7377 10.666 12.0013 10.666C11.2649 10.666 10.668 11.263 10.668 11.9993C10.668 12.7357 11.2649 13.3327 12.0013 13.3327Z" fill="#FDFDFD"/>
<defs>
<linearGradient id="paint0_linear_2847_2656" x1="26.6772" y1="11.5942" x2="-0.570035" y2="11.4059" gradientUnits="userSpaceOnUse">
<stop stop-color="#8F35EC"/>
<stop offset="0.0673077" stop-color="#8C56E1"/>
<stop offset="0.177885" stop-color="#8784D1"/>
<stop offset="0.495192" stop-color="#83ADC3"/>
<stop offset="1" stop-color="#7EDAB3"/>
</linearGradient>
<radialGradient id="paint1_radial_2847_2656" cx="0" cy="0" r="1" gradientUnits="userSpaceOnUse" gradientTransform="translate(12.0039 12) scale(8)">
<stop offset="0.177885" stop-color="#F4D35E"/>
<stop offset="0.528846" stop-color="#FFEEB3" stop-opacity="0.7"/>
<stop offset="1" stop-color="#468189" stop-opacity="0"/>
</radialGradient>
</defs>
</svg>
