<svg width="72" height="60" viewBox="0 0 72 60" fill="none" xmlns="http://www.w3.org/2000/svg">
<circle cx="42" cy="30" r="30" fill="#9D8BF9"/>
<path d="M41.9998 33.334C40.6109 33.334 39.4304 32.8479 38.4581 31.8757C37.4859 30.9034 36.9998 29.7229 36.9998 28.334V18.334C36.9998 16.9451 37.4859 15.7645 38.4581 14.7923C39.4304 13.8201 40.6109 13.334 41.9998 13.334C43.3887 13.334 44.5692 13.8201 45.5415 14.7923C46.5137 15.7645 46.9998 16.9451 46.9998 18.334V28.334C46.9998 29.7229 46.5137 30.9034 45.5415 31.8757C44.5692 32.8479 43.3887 33.334 41.9998 33.334ZM40.3331 43.334V39.8757C37.7776 39.5145 35.5904 38.4312 33.7715 36.6257C31.9526 34.8201 30.8481 32.6257 30.4581 30.0423C30.4026 29.5701 30.5276 29.1673 30.8331 28.834C31.1387 28.5007 31.5276 28.334 31.9998 28.334C32.472 28.334 32.8681 28.494 33.1881 28.814C33.5081 29.134 33.7231 29.5295 33.8331 30.0007C34.222 31.9451 35.1876 33.5423 36.7298 34.7923C38.272 36.0423 40.0287 36.6673 41.9998 36.6673C43.9998 36.6673 45.7637 36.0357 47.2915 34.7723C48.8192 33.509 49.7776 31.9184 50.1665 30.0007C50.2776 29.5284 50.4931 29.1329 50.8131 28.814C51.1331 28.4951 51.5287 28.3351 51.9998 28.334C52.4709 28.3329 52.8598 28.4995 53.1665 28.834C53.4731 29.1684 53.5981 29.5712 53.5415 30.0423C53.1526 32.5701 52.0554 34.7507 50.2498 36.584C48.4442 38.4173 46.2498 39.5145 43.6665 39.8757V43.334C43.6665 43.8062 43.5065 44.2023 43.1865 44.5223C42.8665 44.8423 42.4709 45.0018 41.9998 45.0007C41.5287 44.9995 41.1331 44.8395 40.8131 44.5207C40.4931 44.2018 40.3331 43.8062 40.3331 43.334Z" fill="#FDFDFD"/>
</svg>
