<svg width="30" height="30" viewBox="0 0 30 30" fill="none" xmlns="http://www.w3.org/2000/svg">
<path d="M4 16.9375C4 19.1625 4.6598 21.3376 5.89597 23.1877C7.13213 25.0377 8.88914 26.4797 10.9448 27.3311C13.0005 28.1826 15.2625 28.4054 17.4448 27.9713C19.6271 27.5372 21.6316 26.4658 23.205 24.8925C24.7783 23.3191 25.8497 21.3146 26.2838 19.1323C26.7179 16.95 26.4951 14.688 25.6436 12.6323C24.7922 10.5766 23.3502 8.81963 21.5002 7.58347C19.6501 6.3473 17.475 5.6875 15.25 5.6875H11.5V1L5.875 6.625L11.5 12.25V7.5625H15.25C17.1042 7.5625 18.9168 8.11233 20.4585 9.14247C22.0002 10.1726 23.2018 11.6368 23.9114 13.3498C24.6209 15.0629 24.8066 16.9479 24.4449 18.7665C24.0831 20.585 23.1902 22.2555 21.8791 23.5666C20.568 24.8777 18.8975 25.7706 17.079 26.1324C15.2604 26.4941 13.3754 26.3084 11.6623 25.5989C9.94929 24.8893 8.48511 23.6877 7.45497 22.146C6.42483 20.6043 5.875 18.7917 5.875 16.9375H4Z" fill="#1E1E1E"/>
<path d="M18.4029 20.1841C17.9887 20.194 17.5778 20.1097 17.2029 19.9378C16.8701 19.7735 16.5836 19.5324 16.3686 19.2355C16.1334 18.8889 15.968 18.502 15.8811 18.0954C15.7704 17.5918 15.7169 17.078 15.7217 16.563C15.7191 16.0482 15.7725 15.5346 15.8811 15.0307C15.9701 14.6247 16.1354 14.2382 16.3686 13.8906C16.5836 13.5937 16.8701 13.3526 17.2029 13.1882C17.5778 13.0164 17.9887 12.9321 18.4029 12.942C18.7924 12.9131 19.183 12.9818 19.5375 13.1415C19.892 13.3011 20.1985 13.5465 20.4279 13.8541C20.9114 14.663 21.1396 15.5924 21.0842 16.5266C21.1396 17.4607 20.9114 18.3901 20.4279 19.199C20.2073 19.5201 19.9045 19.7797 19.5495 19.9524C19.1944 20.1251 18.7993 20.205 18.4029 20.1841ZM18.4029 19.0713C18.5919 19.0823 18.7803 19.041 18.9462 18.9523C19.1121 18.8635 19.2488 18.7309 19.3404 18.5697C19.5638 18.1428 19.6826 17.6714 19.6873 17.1924V15.9337C19.7079 15.4632 19.6148 14.9946 19.4154 14.5655C19.3106 14.4093 19.1675 14.281 18.9988 14.1922C18.8302 14.1034 18.6415 14.0568 18.4498 14.0568C18.2581 14.0568 18.0694 14.1034 17.9008 14.1922C17.7322 14.281 17.589 14.4093 17.4842 14.5655C17.2848 14.9946 17.1917 15.4632 17.2123 15.9337V17.1924C17.1936 17.6657 17.2866 18.1368 17.4842 18.5697C17.5736 18.7287 17.7072 18.86 17.8696 18.9487C18.0321 19.0374 18.2169 19.0799 18.4029 19.0713ZM9.96543 20.0655V18.9892H11.8404V14.2554L10.0967 15.1675L9.58105 14.2007L11.7561 13.0149H13.1248V18.9436H14.7936V20.0655H9.96543Z" fill="#1E1E1E"/>
</svg>
