<svg width="30" height="30" viewBox="0 0 30 30" fill="none" xmlns="http://www.w3.org/2000/svg">
<path d="M24.625 16.9375C24.625 18.7917 24.0752 20.6043 23.045 22.146C22.0149 23.6877 20.5507 24.8893 18.8377 25.5989C17.1246 26.3084 15.2396 26.4941 13.421 26.1324C11.6025 25.7706 9.932 24.8777 8.62088 23.5666C7.30976 22.2555 6.41688 20.585 6.05514 18.7665C5.69341 16.9479 5.87906 15.0629 6.58863 13.3498C7.29821 11.6368 8.49982 10.1726 10.0415 9.14247C11.5832 8.11233 13.3958 7.5625 15.25 7.5625H19V12.25L24.625 6.625L19 1V5.6875H15.25C13.025 5.6875 10.8499 6.3473 8.99984 7.58347C7.14979 8.81963 5.70785 10.5766 4.85636 12.6323C4.00487 14.688 3.78209 16.95 4.21617 19.1323C4.65025 21.3146 5.72171 23.3191 7.29505 24.8925C8.86839 26.4658 10.873 27.5372 13.0552 27.9713C15.2375 28.4054 17.4995 28.1826 19.5552 27.3311C21.6109 26.4797 23.3679 25.0377 24.604 23.1877C25.8402 21.3376 26.5 19.1625 26.5 16.9375H24.625Z" fill="#1E1E1E"/>
<path d="M18.4029 20.1841C17.9887 20.194 17.5778 20.1097 17.2029 19.9378C16.8701 19.7735 16.5836 19.5324 16.3686 19.2355C16.1334 18.8889 15.968 18.502 15.8811 18.0954C15.7704 17.5918 15.7169 17.078 15.7217 16.563C15.7191 16.0482 15.7725 15.5346 15.8811 15.0307C15.9701 14.6247 16.1354 14.2382 16.3686 13.8906C16.5836 13.5937 16.8701 13.3526 17.2029 13.1882C17.5778 13.0164 17.9887 12.9321 18.4029 12.942C18.7924 12.9131 19.183 12.9818 19.5375 13.1415C19.892 13.3011 20.1985 13.5465 20.4279 13.8541C20.9114 14.663 21.1396 15.5924 21.0842 16.5266C21.1396 17.4607 20.9114 18.3901 20.4279 19.199C20.2073 19.5201 19.9045 19.7797 19.5495 19.9524C19.1944 20.1251 18.7993 20.205 18.4029 20.1841ZM18.4029 19.0713C18.5919 19.0823 18.7803 19.041 18.9462 18.9523C19.1121 18.8635 19.2488 18.7309 19.3404 18.5697C19.5638 18.1428 19.6826 17.6714 19.6873 17.1924V15.9337C19.7079 15.4632 19.6148 14.9946 19.4154 14.5655C19.3106 14.4093 19.1675 14.281 18.9988 14.1922C18.8302 14.1034 18.6415 14.0568 18.4498 14.0568C18.2581 14.0568 18.0694 14.1034 17.9008 14.1922C17.7322 14.281 17.589 14.4093 17.4842 14.5655C17.2848 14.9946 17.1917 15.4632 17.2123 15.9337V17.1924C17.1936 17.6657 17.2866 18.1368 17.4842 18.5697C17.5736 18.7287 17.7072 18.86 17.8696 18.9487C18.0321 19.0374 18.2169 19.0799 18.4029 19.0713ZM9.96543 20.0655V18.9892H11.8404V14.2554L10.0967 15.1675L9.58105 14.2007L11.7561 13.0149H13.1248V18.9436H14.7936V20.0655H9.96543Z" fill="#1E1E1E"/>
</svg>
