<svg width="27" height="27" viewBox="0 0 27 27" fill="none" xmlns="http://www.w3.org/2000/svg">
<path d="M16.1346 4.82823L16.127 4.82539C16.1327 5.2781 16.1991 5.73082 16.3244 6.1712L16.5142 6.82513L15.4541 7.66982L13.3642 9.33643C12.8694 9.73621 12.5278 10.2945 12.3971 10.917C12.2663 11.5396 12.3545 12.1881 12.6467 12.7532L11.6273 13.7725C11.4749 13.9285 11.3895 14.138 11.3895 14.3562C11.3895 14.5743 11.4749 14.7838 11.6273 14.9399C11.7036 15.0173 11.7946 15.0788 11.8949 15.1208C11.9951 15.1628 12.1028 15.1844 12.2115 15.1844C12.3202 15.1844 12.4279 15.1628 12.5281 15.1208C12.6284 15.0788 12.7194 15.0173 12.7957 14.9399L13.814 13.9243C14.379 14.2195 15.0291 14.3089 15.6528 14.1773C16.2765 14.0457 16.8351 13.7013 17.2327 13.203L19.763 10.0312L20.4738 10.2381C20.8875 10.3587 21.3149 10.4257 21.7456 10.4374C22.4416 10.4539 23.1334 10.3252 23.7769 10.0595C24.4204 9.79377 25.0015 9.39689 25.4831 8.89415L26.3183 8.03427C26.7872 7.55972 26.5812 6.7473 25.9529 6.56318L22.7782 5.69381L22.7763 5.69571C22.7863 5.47801 22.7567 5.26031 22.689 5.05317L23.4824 4.25878C23.5602 4.18276 23.622 4.09197 23.6642 3.99173C23.7064 3.8915 23.7281 3.78384 23.7281 3.67509C23.7281 3.56633 23.7064 3.45868 23.6642 3.35844C23.622 3.25821 23.5602 3.16741 23.4824 3.0914C23.4064 3.01362 23.3156 2.95183 23.2154 2.90964C23.1152 2.86745 23.0075 2.84572 22.8988 2.84572C22.79 2.84572 22.6823 2.86745 22.5821 2.90964C22.4819 2.95183 22.3911 3.01362 22.3151 3.0914L21.5207 3.88579C21.3136 3.81777 21.0959 3.78787 20.8781 3.79752L20.88 3.79562L19.9385 0.6285C19.8979 0.483127 19.8198 0.351006 19.7119 0.245418C19.604 0.139829 19.4703 0.064492 19.3241 0.0269791C19.1779 -0.0105337 19.0244 -0.00890085 18.879 0.0317138C18.7336 0.0723285 18.6015 0.150494 18.4959 0.258353L17.6512 1.10305C17.1616 1.59059 16.775 2.17162 16.5145 2.81157C16.2539 3.45153 16.1247 4.13734 16.1346 4.82823Z" fill="#FDFDFD"/>
<path d="M19.3482 12.0767L20.1122 11.12L20.2119 11.1485C20.8335 11.331 21.4809 11.4095 22.1281 11.381C22.5595 12.6025 22.7794 13.8886 22.7782 15.184C22.7782 21.4737 17.6788 26.5732 11.3891 26.5732C5.09948 26.5732 0 21.4737 0 15.184C0 8.8944 5.09948 3.79493 11.3891 3.79493C12.6845 3.79378 13.9707 4.01364 15.1921 4.44505C15.1577 5.11456 15.2344 5.78514 15.419 6.42961L15.4313 6.47516L14.4917 7.22305C12.6647 6.51096 10.6482 6.44916 8.78103 7.04803C6.91381 7.64691 5.3095 8.86998 4.23746 10.5119C3.16543 12.1538 2.69096 14.1146 2.89372 16.065C3.09648 18.0154 3.96412 19.8366 5.35096 21.2229C6.7378 22.6092 8.55938 23.4762 10.5099 23.6781C12.4603 23.8801 14.4209 23.4049 16.0624 22.3322C17.7039 21.2596 18.9264 19.6548 19.5245 17.7873C20.1227 15.9199 20.061 13.9035 19.3482 12.0767Z" fill="#FDFDFD"/>
<path d="M14.2345 15.0835C14.7122 15.197 15.2076 15.2143 15.6921 15.1345C16.1765 15.0546 16.6402 14.8792 17.0562 14.6184C17.0751 14.8044 17.0843 14.993 17.0837 15.1841C17.0836 16.3347 16.735 17.4584 16.0837 18.407C15.4325 19.3556 14.5091 20.0846 13.4353 20.4981C12.3615 20.9115 11.1876 20.99 10.0684 20.7231C8.94909 20.4562 7.93692 19.8565 7.1652 19.003C6.39349 18.1495 5.89843 17.0823 5.74525 15.9419C5.59208 14.8015 5.78797 13.6414 6.30712 12.6145C6.82627 11.5877 7.64432 10.7422 8.6535 10.1894C9.66268 9.63663 10.8156 9.40255 11.9605 9.518C11.437 10.3591 11.2687 11.3736 11.4926 12.3387L11.3891 12.3368C10.8217 12.3368 10.2672 12.5063 9.79679 12.8236C9.32637 13.1409 8.9615 13.5915 8.74897 14.1177C8.53645 14.6438 8.48598 15.2214 8.60403 15.7764C8.72208 16.3315 9.00327 16.8385 9.41152 17.2326C9.81977 17.6267 10.3365 17.8898 10.8953 17.9882C11.4541 18.0866 12.0296 18.0158 12.5479 17.7848C13.0662 17.5539 13.5037 17.1733 13.8042 16.692C14.1047 16.2107 14.2546 15.6506 14.2345 15.0835Z" fill="#FDFDFD"/>
</svg>
