<svg width="24" height="24" viewBox="0 0 24 24" fill="none" xmlns="http://www.w3.org/2000/svg">
<rect x="24" width="24" height="24" rx="12" transform="rotate(90 24 0)" fill="#9D8BF9"/>
<path d="M12.5596 5.37827C12.4111 5.22986 12.2098 5.14648 11.9999 5.14648C11.7899 5.14648 11.5886 5.22986 11.4401 5.37827L6.96169 9.85673C6.81748 10.006 6.73769 10.206 6.73949 10.4136C6.74129 10.6212 6.82455 10.8197 6.97133 10.9665C7.11812 11.1133 7.31668 11.1965 7.52425 11.1983C7.73182 11.2002 7.9318 11.1204 8.08111 10.9761L11.2082 7.84907V18.3331C11.2082 18.5431 11.2916 18.7444 11.4401 18.8929C11.5885 19.0414 11.7899 19.1248 11.9999 19.1248C12.2098 19.1248 12.4112 19.0414 12.5596 18.8929C12.7081 18.7444 12.7915 18.5431 12.7915 18.3331V7.84907L15.9186 10.9761C16.0679 11.1204 16.2679 11.2002 16.4755 11.1983C16.683 11.1965 16.8816 11.1133 17.0284 10.9665C17.1752 10.8197 17.2584 10.6212 17.2602 10.4136C17.262 10.206 17.1822 10.006 17.038 9.85673L12.5596 5.37827Z" fill="#1E1E1E"/>
</svg>
