<svg width="16" height="16" viewBox="0 0 16 16" fill="none" xmlns="http://www.w3.org/2000/svg">
<path d="M9 2.80202C9 2.24502 8.327 1.96652 7.933 2.36002L5.586 4.70752C5.49306 4.80035 5.38274 4.87396 5.26135 4.92415C5.13995 4.97434 5.00986 5.00012 4.8785 5.00002H3C2.46957 5.00002 1.96086 5.21073 1.58579 5.5858C1.21071 5.96088 1 6.46958 1 7.00002V9.00002C1 9.53045 1.21071 10.0392 1.58579 10.4142C1.96086 10.7893 2.46957 11 3 11H4.8785C5.00986 10.9999 5.13995 11.0257 5.26135 11.0759C5.38274 11.1261 5.49306 11.1997 5.586 11.2925L7.933 13.64C8.327 14.0335 9 13.755 9 13.198V2.80202ZM6.293 5.41452L8 3.70752V12.293L6.293 10.586C6.10727 10.4002 5.88675 10.2528 5.64405 10.1523C5.40134 10.0518 5.14121 10 4.8785 10H3C2.73478 10 2.48043 9.89466 2.29289 9.70712C2.10536 9.51959 2 9.26523 2 9.00002V7.00002C2 6.7348 2.10536 6.48045 2.29289 6.29291C2.48043 6.10537 2.73478 6.00002 3 6.00002H4.8785C5.14117 6.00009 5.40129 5.94842 5.64399 5.84796C5.88669 5.7475 6.10723 5.60022 6.293 5.41452ZM11.412 4.71702C11.3751 4.66218 11.3277 4.61521 11.2726 4.57881C11.2174 4.5424 11.1556 4.5173 11.0907 4.50493C11.0257 4.49257 10.959 4.4932 10.8943 4.50679C10.8297 4.52038 10.7683 4.54665 10.7139 4.58409C10.6594 4.62153 10.6129 4.66939 10.5771 4.72491C10.5412 4.78043 10.5168 4.84251 10.505 4.90755C10.4933 4.97259 10.4946 5.0393 10.5089 5.10384C10.5231 5.16837 10.55 5.22944 10.588 5.28352C11.2305 6.21852 11.5315 7.12152 11.5315 8.00002C11.5315 8.87902 11.2305 9.78252 10.588 10.717C10.55 10.7711 10.5231 10.8322 10.5089 10.8967C10.4946 10.9612 10.4933 11.0279 10.505 11.093C10.5168 11.158 10.5412 11.2201 10.5771 11.2756C10.6129 11.3311 10.6594 11.379 10.7139 11.4164C10.7683 11.4539 10.8297 11.4802 10.8943 11.4937C10.959 11.5073 11.0257 11.508 11.0907 11.4956C11.1556 11.4832 11.2174 11.4581 11.2726 11.4217C11.3277 11.3853 11.3751 11.3383 11.412 11.2835C12.1445 10.2185 12.531 9.12152 12.531 8.00002C12.531 6.87902 12.1445 5.78252 11.412 4.71702ZM12.845 2.63802C12.7489 2.54652 12.6204 2.49693 12.4878 2.50016C12.3552 2.5034 12.2292 2.55919 12.1377 2.65527C12.0463 2.75134 11.9967 2.87983 11.9999 3.01246C12.0031 3.1451 12.0589 3.27102 12.155 3.36252C13.3485 4.49902 13.969 6.23152 13.969 8.00002C13.969 9.76852 13.3485 11.5015 12.155 12.638C12.1074 12.6833 12.0692 12.7376 12.0426 12.7976C12.016 12.8577 12.0015 12.9224 11.9999 12.9881C11.9983 13.0537 12.0096 13.1191 12.0333 13.1804C12.057 13.2417 12.0924 13.2977 12.1377 13.3453C12.1831 13.3928 12.2373 13.431 12.2974 13.4576C12.3574 13.4842 12.4221 13.4988 12.4878 13.5004C12.5535 13.502 12.6188 13.4906 12.6801 13.467C12.7414 13.4433 12.7974 13.4078 12.845 13.3625C14.2765 11.999 14.9685 9.98152 14.9685 8.00002C14.9685 6.01852 14.277 4.00152 12.845 2.63802Z" fill="#FDFDFD"/>
</svg>
