<svg width="16" height="16" viewBox="0 0 16 16" fill="none" xmlns="http://www.w3.org/2000/svg">
<path d="M6 9.33333L6.65733 9.44267C6.6732 9.3472 6.6681 9.24943 6.64238 9.15614C6.61666 9.06285 6.57093 8.97627 6.50839 8.90243C6.44584 8.82859 6.36796 8.76925 6.28017 8.72854C6.19238 8.68782 6.09677 8.66671 6 8.66667V9.33333ZM13.3333 9.33333V10C13.5101 10 13.6797 9.92976 13.8047 9.80474C13.9298 9.67971 14 9.51014 14 9.33333H13.3333ZM12 2H4.42667V3.33333H12V2ZM3.62667 10H6V8.66667H3.62667V10ZM5.342 9.224L4.80533 12.4473L6.12 12.6667L6.65733 9.44267L5.342 9.224ZM6.12 14H6.26267V12.6667H6.12V14ZM8.482 12.8127L10.158 10.2967L9.04867 9.55667L7.37133 12.0727L8.482 12.8127ZM10.7133 10H13.3333V8.66667H10.7133V10ZM14 9.33333V4H12.6667V9.33333H14ZM2.46533 3.608L1.66533 7.608L2.972 7.86933L3.772 3.86933L2.46533 3.608ZM10.158 10.2967C10.2189 10.2054 10.3021 10.1306 10.3988 10.0788C10.4956 10.0271 10.6036 9.99998 10.7133 10V8.66667C10.3841 8.66669 10.0599 8.748 9.76966 8.90337C9.47939 9.05874 9.23195 9.28338 9.04933 9.55733L10.158 10.2967ZM4.80533 12.4473C4.77348 12.6383 4.78361 12.8339 4.835 13.0206C4.88639 13.2073 4.97783 13.3805 5.10294 13.5283C5.22805 13.676 5.38384 13.7948 5.55947 13.8762C5.73511 13.9577 5.92639 13.9999 6.12 14V12.6667L4.80533 12.4473ZM3.62667 8.66667C3.52802 8.66671 3.43059 8.64485 3.3414 8.60268C3.25222 8.56051 3.17351 8.49907 3.11095 8.42279C3.04839 8.34652 3.00353 8.25731 2.97962 8.1616C2.9557 8.06589 2.95266 7.96607 2.972 7.86933L1.66533 7.608C1.60735 7.8981 1.61444 8.19745 1.68611 8.48448C1.75777 8.77151 1.89222 9.03906 2.07976 9.26786C2.2673 9.49666 2.50326 9.681 2.77065 9.80761C3.03802 9.93421 3.33016 9.99992 3.626 10L3.62667 8.66667ZM4.42667 2C3.96425 1.99997 3.51612 2.16018 3.15852 2.45335C2.80092 2.74653 2.55597 3.15456 2.46533 3.608L3.772 3.86933C3.80224 3.71804 3.88402 3.58191 4.00341 3.48417C4.12279 3.38643 4.27238 3.33312 4.42667 3.33333V2ZM6.26267 14C6.70164 14 7.13382 13.8916 7.52086 13.6845C7.90789 13.4774 8.23848 13.1779 8.482 12.8127L7.37133 12.0727C7.24961 12.2553 7.08534 12.4051 6.89182 12.5088C6.69829 12.6124 6.48218 12.6666 6.26267 12.6667V14ZM12 3.33333C12.1768 3.33333 12.3464 3.40357 12.4714 3.52859C12.5964 3.65362 12.6667 3.82319 12.6667 4H14C14 3.46957 13.7893 2.96086 13.4142 2.58579C13.0391 2.21071 12.5304 2 12 2V3.33333Z" fill="#FDFDFD"/>
<path d="M10.6665 9.33398V2.66732" stroke="#FDFDFD" stroke-width="2"/>
</svg>
