<svg width="60" height="60" viewBox="0 0 60 60" fill="none" xmlns="http://www.w3.org/2000/svg">
<circle cx="30" cy="30" r="30" fill="#9D8BF9"/>
<path d="M30 33.334C28.6111 33.334 27.4305 32.8479 26.4583 31.8757C25.4861 30.9034 25 29.7229 25 28.334V18.334C25 16.9451 25.4861 15.7645 26.4583 14.7923C27.4305 13.8201 28.6111 13.334 30 13.334C31.3889 13.334 32.5694 13.8201 33.5417 14.7923C34.5139 15.7645 35 16.9451 35 18.334V28.334C35 29.7229 34.5139 30.9034 33.5417 31.8757C32.5694 32.8479 31.3889 33.334 30 33.334ZM28.3333 43.334V39.8757C25.7778 39.5145 23.5905 38.4312 21.7717 36.6257C19.9528 34.8201 18.8483 32.6257 18.4583 30.0423C18.4028 29.5701 18.5278 29.1673 18.8333 28.834C19.1389 28.5007 19.5278 28.334 20 28.334C20.4722 28.334 20.8683 28.494 21.1883 28.814C21.5083 29.134 21.7233 29.5295 21.8333 30.0007C22.2222 31.9451 23.1878 33.5423 24.73 34.7923C26.2722 36.0423 28.0289 36.6673 30 36.6673C32 36.6673 33.7639 36.0357 35.2917 34.7723C36.8194 33.509 37.7778 31.9184 38.1667 30.0007C38.2778 29.5284 38.4933 29.1329 38.8133 28.814C39.1333 28.4951 39.5289 28.3351 40 28.334C40.4711 28.3329 40.86 28.4995 41.1667 28.834C41.4733 29.1684 41.5983 29.5712 41.5416 30.0423C41.1528 32.5701 40.0555 34.7507 38.25 36.584C36.4444 38.4173 34.25 39.5145 31.6667 39.8757V43.334C31.6667 43.8062 31.5066 44.2023 31.1867 44.5223C30.8667 44.8423 30.4711 45.0018 30 45.0007C29.5289 44.9995 29.1333 44.8395 28.8133 44.5207C28.4933 44.2018 28.3333 43.8062 28.3333 43.334Z" fill="#FDFDFD"/>
</svg>
