<svg width="60" height="60" viewBox="0 0 60 60" fill="none" xmlns="http://www.w3.org/2000/svg">
<circle cx="30" cy="30" r="30" fill="#9D8BF9"/>
<path d="M31.8973 29.7838L37.9235 23.7577C38.7831 22.898 38.7831 21.5043 37.9235 20.6447C37.0638 19.7851 35.6702 19.7851 34.8105 20.6447L28.7843 26.6709L22.7582 20.6447C21.8985 19.7851 20.5048 19.7851 19.6452 20.6447C18.7856 21.5043 18.7856 22.898 19.6452 23.7577L25.6714 29.7838L19.6452 35.81C18.7856 36.6697 18.7856 38.0634 19.6452 38.923C20.075 39.3527 20.6383 39.5677 21.2017 39.5677C21.765 39.5677 22.3283 39.3528 22.7581 38.923L28.7843 32.8968L34.8105 38.923C35.2403 39.3527 35.8036 39.5677 36.367 39.5677C36.9303 39.5677 37.4936 39.3528 37.9234 38.923C38.783 38.0634 38.783 36.6697 37.9234 35.81L31.8973 29.7838Z" fill="#FDFDFD"/>
</svg>
