<svg width="16" height="16" viewBox="0 0 16 16" fill="none" xmlns="http://www.w3.org/2000/svg">
<path d="M8.00037 1.12891C8.17873 1.12897 8.35291 1.18339 8.49939 1.28516C8.64542 1.38671 8.75739 1.5307 8.8197 1.69727V1.69824L10.2621 5.66406L10.2816 5.71875L10.3363 5.73828L14.3011 7.17969H14.3021C14.4708 7.2397 14.6164 7.35134 14.7191 7.49805C14.8218 7.64476 14.8768 7.81996 14.8754 7.99902V8.00098C14.8767 8.17997 14.8218 8.35531 14.7191 8.50195C14.6165 8.64847 14.4707 8.75936 14.3021 8.81934H14.3011L10.3363 10.2617L10.2816 10.2812L10.2611 10.3359L8.8197 14.3008C8.75747 14.4678 8.64575 14.6121 8.49939 14.7139C8.35288 14.8157 8.17879 14.8701 8.00037 14.8701C7.82175 14.8701 7.64701 14.8159 7.50037 14.7139C7.39043 14.6374 7.30028 14.5369 7.23572 14.4209L7.18005 14.2998L5.73865 10.3359L5.71912 10.2812L5.66443 10.2607L1.69861 8.81934H1.69763C1.53107 8.75702 1.38708 8.64505 1.28552 8.49902C1.18376 8.35255 1.12934 8.17836 1.12927 8C1.12927 7.82144 1.1836 7.64661 1.28552 7.5C1.38745 7.35344 1.53225 7.24187 1.69958 7.17969L1.69861 7.17871L5.66443 5.73828L5.71912 5.71875L5.73865 5.66406L7.18005 1.69922C7.24223 1.53188 7.35381 1.38708 7.50037 1.28516C7.64698 1.18323 7.8218 1.12891 8.00037 1.12891Z" fill="url(#paint0_linear_2852_814)" stroke="url(#paint1_linear_2852_814)" stroke-width="0.25"/>
<defs>
<linearGradient id="paint0_linear_2852_814" x1="16.5613" y1="7.7631" x2="0.671853" y2="7.65328" gradientUnits="userSpaceOnUse">
<stop stop-color="#8F35EC"/>
<stop offset="0.0673077" stop-color="#8C56E1"/>
<stop offset="0.182692" stop-color="#8784D1"/>
<stop offset="0.600962" stop-color="#83ADC3"/>
<stop offset="1" stop-color="#7EDAB3"/>
</linearGradient>
<linearGradient id="paint1_linear_2852_814" x1="16.5613" y1="7.7631" x2="0.671853" y2="7.65328" gradientUnits="userSpaceOnUse">
<stop stop-color="#8F35EC"/>
<stop offset="0.0673077" stop-color="#8C56E1"/>
<stop offset="0.182692" stop-color="#8784D1"/>
<stop offset="0.600962" stop-color="#83ADC3"/>
<stop offset="1" stop-color="#7EDAB3"/>
</linearGradient>
</defs>
</svg>
