<svg width="145" height="139" viewBox="0 0 145 139" fill="none" xmlns="http://www.w3.org/2000/svg">
<path d="M93.8557 11.447L32.7764 18.2441L42.2254 103.153L103.305 96.3557L93.8557 11.447Z" fill="white" stroke="#263238" stroke-width="0.196606" stroke-linecap="round" stroke-linejoin="round"/>
<path d="M93.8553 11.447L32.7759 18.2441L34.0833 29.9922L95.1626 23.195L93.8553 11.447Z" fill="#BFBFBF" stroke="#263238" stroke-width="0.196606" stroke-linecap="round" stroke-linejoin="round"/>
<path d="M76.8848 16.8618L50.5173 19.795C50.3947 19.8011 50.2747 19.8321 50.1646 19.8861C50.0545 19.9402 49.9565 20.0161 49.8767 20.1093C49.7969 20.2025 49.7369 20.3109 49.7005 20.4281C49.664 20.5452 49.6518 20.6685 49.6646 20.7905C49.6774 20.9125 49.7149 21.0307 49.7749 21.1377C49.8349 21.2447 49.9161 21.3383 50.0135 21.4129C50.1109 21.4875 50.2224 21.5415 50.3414 21.5715C50.4603 21.6015 50.5842 21.6069 50.7053 21.5875L77.0729 18.6543C77.3036 18.6194 77.5118 18.4965 77.6538 18.3114C77.7959 18.1263 77.8608 17.8934 77.8348 17.6615C77.8089 17.4297 77.6941 17.2169 77.5147 17.0677C77.3352 16.9186 77.105 16.8448 76.8723 16.8618H76.8848Z" fill="white"/>
<path d="M70.7018 21.2727L57.5212 22.7393C57.4623 22.7451 57.4052 22.7626 57.3532 22.7908C57.3012 22.819 57.2553 22.8572 57.2183 22.9033C57.1812 22.9494 57.1537 23.0024 57.1374 23.0593C57.1211 23.1161 57.1162 23.1757 57.1232 23.2344C57.1358 23.3532 57.1951 23.4621 57.2879 23.5373C57.3807 23.6125 57.4995 23.6478 57.6183 23.6355L70.8021 22.1689C70.9175 22.1515 71.0216 22.0901 71.0926 21.9975C71.1636 21.905 71.1961 21.7885 71.1831 21.6726C71.1701 21.5566 71.1128 21.4502 71.023 21.3757C70.9333 21.3011 70.8182 21.2642 70.7018 21.2727Z" fill="white"/>
<path opacity="0.3" d="M80.5542 31.4338L46.0043 35.2758C45.9158 35.2857 45.8349 35.3305 45.7793 35.4001C45.7238 35.4697 45.6982 35.5586 45.7082 35.6471C45.7181 35.7356 45.7629 35.8166 45.8325 35.8721C45.9022 35.9276 45.991 35.9532 46.0795 35.9433L80.62 32.1012C80.7085 32.0913 80.7894 32.0465 80.8449 31.9769C80.9005 31.9073 80.9261 31.8184 80.9161 31.7299C80.9061 31.6414 80.8614 31.5605 80.7918 31.5049C80.7221 31.4494 80.6333 31.4238 80.5448 31.4338H80.5542Z" fill="black"/>
<path opacity="0.3" d="M80.8208 33.8302L41.0971 38.2488C41.0086 38.2588 40.9276 38.3035 40.8721 38.3732C40.8166 38.4428 40.791 38.5317 40.8009 38.6202C40.8109 38.7087 40.8556 38.7896 40.9253 38.8452C40.9949 38.9007 41.0838 38.9263 41.1723 38.9163L80.896 34.4977C80.9412 34.495 80.9854 34.4831 81.0259 34.4629C81.0664 34.4426 81.1024 34.4143 81.1317 34.3798C81.161 34.3452 81.183 34.3051 81.1963 34.2618C81.2097 34.2185 81.2141 34.173 81.2094 34.1279C81.2044 34.0824 81.1903 34.0384 81.1678 33.9986C81.1454 33.9587 81.1151 33.9238 81.0788 33.896C81.0424 33.8681 81.0008 33.848 80.9565 33.8367C80.9122 33.8254 80.866 33.8232 80.8208 33.8302Z" fill="black"/>
<path opacity="0.3" d="M70.7209 37.3805L41.3637 40.6459C41.2752 40.6559 41.1942 40.7006 41.1387 40.7703C41.0832 40.8399 41.0576 40.9288 41.0675 41.0173C41.0775 41.1058 41.1222 41.1867 41.1919 41.2422C41.2615 41.2978 41.3504 41.3234 41.4389 41.3134L70.7929 38.048C70.8382 38.0453 70.8824 38.0335 70.9229 38.0132C70.9634 37.9929 70.9994 37.9647 71.0287 37.9301C71.0579 37.8955 71.0799 37.8554 71.0933 37.8121C71.1066 37.7688 71.1111 37.7233 71.1063 37.6782C71.1013 37.6331 71.0873 37.5893 71.065 37.5497C71.0428 37.5101 71.0128 37.4753 70.9768 37.4475C70.9408 37.4198 70.8996 37.3995 70.8557 37.388C70.8117 37.3765 70.7658 37.3739 70.7209 37.3805Z" fill="black"/>
<path opacity="0.3" d="M89.3143 30.1596L85.8104 30.5496C85.3391 30.602 84.9995 31.0266 85.052 31.4979L85.4419 35.0018C85.4944 35.4731 85.919 35.8126 86.3903 35.7602L89.8941 35.3703C90.3655 35.3178 90.705 34.8932 90.6526 34.4219L90.2626 30.9181C90.2102 30.4467 89.7856 30.1072 89.3143 30.1596Z" stroke="#263238" stroke-width="0.196606" stroke-linecap="round" stroke-linejoin="round"/>
<path d="M86.4336 32.8519L87.5868 33.9393L89.1036 31.6172" stroke="#9D8BF9" stroke-width="0.589818" stroke-linecap="round" stroke-linejoin="round"/>
<path opacity="0.3" d="M81.8177 42.7892L47.2773 46.6312C47.1887 46.6412 47.1078 46.6859 47.0523 46.7556C46.9967 46.8252 46.9711 46.9141 46.9811 47.0026C46.9911 47.0911 47.0358 47.172 47.1055 47.2276C47.1751 47.2831 47.264 47.3087 47.3525 47.2987L81.8929 43.4567C81.9367 43.4518 81.9792 43.4383 82.0178 43.4169C82.0564 43.3956 82.0904 43.3669 82.1179 43.3324C82.1454 43.2979 82.1658 43.2583 82.178 43.2159C82.1902 43.1736 82.194 43.1292 82.1891 43.0854C82.1841 43.0415 82.1706 42.9991 82.1493 42.9605C82.1279 42.9219 82.0992 42.8879 82.0647 42.8604C82.0302 42.8329 81.9907 42.8124 81.9483 42.8002C81.9059 42.788 81.8615 42.7843 81.8177 42.7892Z" fill="black"/>
<path opacity="0.3" d="M82.084 45.1877L42.3603 49.6063C42.3164 49.6112 42.274 49.6247 42.2354 49.6461C42.1968 49.6674 42.1628 49.6961 42.1353 49.7306C42.1078 49.7651 42.0873 49.8047 42.0751 49.8471C42.0629 49.8894 42.0592 49.9338 42.0641 49.9776C42.0691 50.0215 42.0826 50.0639 42.1039 50.1025C42.1253 50.1411 42.154 50.1751 42.1885 50.2026C42.2229 50.2301 42.2625 50.2505 42.3049 50.2628C42.3473 50.275 42.3916 50.2787 42.4355 50.2738L82.1592 45.8552C82.2477 45.8452 82.3286 45.8005 82.3842 45.7308C82.4397 45.6612 82.4653 45.5723 82.4553 45.4838C82.4454 45.3953 82.4006 45.3144 82.331 45.2588C82.2613 45.2033 82.1725 45.1777 82.084 45.1877Z" fill="black"/>
<path opacity="0.3" d="M71.9836 48.7379L42.6264 52.0033C42.5379 52.0133 42.4569 52.058 42.4014 52.1277C42.3459 52.1973 42.3203 52.2862 42.3302 52.3747C42.3402 52.4632 42.3849 52.5441 42.4546 52.5997C42.5242 52.6552 42.6131 52.6808 42.7016 52.6708L72.0556 49.4054C72.1009 49.4027 72.1451 49.3909 72.1856 49.3706C72.2261 49.3503 72.2621 49.3221 72.2914 49.2875C72.3206 49.253 72.3426 49.2128 72.356 49.1695C72.3693 49.1263 72.3738 49.0807 72.369 49.0357C72.364 48.9905 72.35 48.9468 72.3277 48.9071C72.3055 48.8675 72.2755 48.8327 72.2395 48.805C72.2035 48.7772 72.1623 48.7569 72.1184 48.7454C72.0744 48.7339 72.0285 48.7314 71.9836 48.7379Z" fill="black"/>
<path opacity="0.3" d="M90.5789 41.5132L87.0751 41.9031C86.6038 41.9555 86.2642 42.3801 86.3166 42.8514L86.7066 46.3553C86.759 46.8266 87.1836 47.1662 87.6549 47.1137L91.1588 46.7238C91.6301 46.6713 91.9697 46.2467 91.9172 45.7754L91.5273 42.2716C91.4748 41.8003 91.0502 41.4607 90.5789 41.5132Z" stroke="#263238" stroke-width="0.196606" stroke-linecap="round" stroke-linejoin="round"/>
<path d="M87.6992 44.2093L88.8493 45.2967L90.3661 42.9746" stroke="#9D8BF9" stroke-width="0.589818" stroke-linecap="round" stroke-linejoin="round"/>
<path opacity="0.3" d="M83.0804 54.1463L48.5399 57.9883C48.457 58.0043 48.3832 58.0509 48.3332 58.119C48.2832 58.187 48.2607 58.2714 48.2702 58.3553C48.2797 58.4391 48.3205 58.5164 48.3844 58.5715C48.4484 58.6266 48.5307 58.6556 48.6151 58.6526L83.1556 54.8044C83.1994 54.7994 83.2418 54.7859 83.2804 54.7646C83.319 54.7432 83.353 54.7145 83.3805 54.68C83.408 54.6455 83.4285 54.606 83.4407 54.5636C83.4529 54.5212 83.4566 54.4768 83.4517 54.433C83.4468 54.3892 83.4332 54.3468 83.4119 54.3082C83.3906 54.2696 83.3618 54.2355 83.3274 54.208C83.2929 54.1805 83.2533 54.1601 83.2109 54.1479C83.1685 54.1357 83.1242 54.1319 83.0804 54.1369V54.1463Z" fill="black"/>
<path opacity="0.3" d="M83.3498 56.5431L43.623 60.9618C43.5791 60.966 43.5365 60.9791 43.4977 61.0001C43.459 61.0211 43.4248 61.0498 43.3974 61.0843C43.3699 61.1187 43.3496 61.1584 43.3378 61.2009C43.3259 61.2434 43.3227 61.2878 43.3284 61.3315C43.3331 61.3754 43.3464 61.4179 43.3675 61.4566C43.3886 61.4953 43.4172 61.5295 43.4515 61.5571C43.4859 61.5848 43.5254 61.6054 43.5677 61.6177C43.61 61.6301 43.6544 61.634 43.6982 61.6293L83.4219 57.2106C83.4673 57.2075 83.5115 57.1953 83.552 57.1747C83.5926 57.1541 83.6285 57.1255 83.6578 57.0907C83.687 57.0559 83.709 57.0156 83.7223 56.9721C83.7356 56.9286 83.74 56.8829 83.7353 56.8377C83.7303 56.7926 83.7163 56.749 83.694 56.7095C83.6717 56.6701 83.6416 56.6355 83.6056 56.608C83.5695 56.5804 83.5283 56.5605 83.4843 56.5493C83.4404 56.5382 83.3946 56.5361 83.3498 56.5431Z" fill="black"/>
<path opacity="0.3" d="M73.2467 60.0949L43.8896 63.3603C43.8011 63.3703 43.7201 63.415 43.6646 63.4847C43.609 63.5543 43.5834 63.6431 43.5934 63.7317C43.6034 63.8202 43.6481 63.9011 43.7178 63.9566C43.7874 64.0122 43.8763 64.0378 43.9648 64.0278L73.3188 60.7593C73.4073 60.7497 73.4884 60.7054 73.5443 60.636C73.6001 60.5667 73.6261 60.478 73.6165 60.3895C73.607 60.301 73.5626 60.2199 73.4933 60.1641C73.4239 60.1082 73.3353 60.0822 73.2467 60.0918V60.0949Z" fill="black"/>
<path opacity="0.3" d="M91.8416 52.8686L88.3378 53.2585C87.8664 53.311 87.5269 53.7356 87.5793 54.2069L87.9693 57.7108C88.0217 58.1821 88.4463 58.5216 88.9176 58.4692L92.4215 58.0793C92.8928 58.0268 93.2323 57.6022 93.1799 57.1309L92.79 53.627C92.7375 53.1557 92.3129 52.8162 91.8416 52.8686Z" stroke="#263238" stroke-width="0.196606" stroke-linecap="round" stroke-linejoin="round"/>
<path d="M88.9629 55.566L90.113 56.6534L91.6329 54.3281" stroke="#9D8BF9" stroke-width="0.589818" stroke-linecap="round" stroke-linejoin="round"/>
<path opacity="0.3" d="M84.3431 65.5041L49.8026 69.3461C49.7197 69.3621 49.6459 69.4088 49.5959 69.4768C49.5459 69.5448 49.5234 69.6292 49.5329 69.7131C49.5424 69.797 49.5832 69.8742 49.6471 69.9293C49.7111 69.9844 49.7934 70.0134 49.8778 70.0105L84.4183 66.1685C84.4645 66.1668 84.5098 66.1557 84.5515 66.1357C84.5932 66.1157 84.6303 66.0873 84.6605 66.0523C84.6907 66.0173 84.7133 65.9764 84.7269 65.9323C84.7406 65.8881 84.7449 65.8416 84.7397 65.7956C84.7345 65.7497 84.7199 65.7053 84.6967 65.6653C84.6735 65.6253 84.6423 65.5906 84.6051 65.5632C84.5679 65.5358 84.5253 65.5164 84.4802 65.5063C84.4352 65.4961 84.3884 65.4954 84.3431 65.5041Z" fill="black"/>
<path opacity="0.3" d="M84.613 67.9005L44.8862 72.3191C44.8423 72.3233 44.7997 72.3364 44.7609 72.3574C44.7222 72.3785 44.688 72.4071 44.6605 72.4416C44.6331 72.4761 44.6128 72.5157 44.601 72.5582C44.5891 72.6007 44.5859 72.6451 44.5916 72.6889C44.5963 72.7327 44.6096 72.7752 44.6307 72.8139C44.6518 72.8526 44.6804 72.8868 44.7147 72.9144C44.7491 72.9421 44.7885 72.9627 44.8309 72.9751C44.8732 72.9874 44.9175 72.9913 44.9614 72.9866L84.6851 68.5679C84.7739 68.5577 84.8551 68.5128 84.9108 68.4429C84.9666 68.373 84.9925 68.2839 84.9828 68.195C84.9726 68.107 84.9279 68.0267 84.8586 67.9715C84.7894 67.9163 84.7011 67.8908 84.613 67.9005Z" fill="black"/>
<path opacity="0.3" d="M74.5217 71.4515L45.1645 74.7169C45.1206 74.7212 45.078 74.7342 45.0392 74.7553C45.0005 74.7763 44.9663 74.8049 44.9389 74.8394C44.9114 74.8739 44.8911 74.9136 44.8793 74.9561C44.8674 74.9985 44.8642 75.043 44.8699 75.0867C44.8746 75.1306 44.8879 75.1731 44.909 75.2118C44.9301 75.2505 44.9587 75.2846 44.993 75.3123C45.0274 75.3399 45.0669 75.3605 45.1092 75.3729C45.1515 75.3853 45.1959 75.3892 45.2397 75.3844L74.5938 72.119C74.6376 72.1143 74.6801 72.1011 74.7188 72.0799C74.7575 72.0588 74.7917 72.0302 74.8193 71.9959C74.847 71.9615 74.8676 71.9221 74.88 71.8798C74.8923 71.8374 74.8962 71.7931 74.8915 71.7492C74.8872 71.7052 74.8742 71.6625 74.8532 71.6236C74.8322 71.5847 74.8036 71.5504 74.7691 71.5226C74.7347 71.4949 74.6951 71.4744 74.6526 71.4621C74.6101 71.4499 74.5656 71.4463 74.5217 71.4515Z" fill="black"/>
<path opacity="0.3" d="M93.1063 64.226L89.6024 64.616C89.1311 64.6684 88.7915 65.093 88.844 65.5643L89.2339 69.0682C89.2864 69.5395 89.711 69.8791 90.1823 69.8266L93.6861 69.4367C94.1574 69.3842 94.497 68.9596 94.4445 68.4883L94.0546 64.9845C94.0022 64.5132 93.5776 64.1736 93.1063 64.226Z" stroke="#263238" stroke-width="0.196606" stroke-linecap="round" stroke-linejoin="round"/>
<path d="M90.2256 66.9203L91.3757 68.0077L92.8956 65.6855" stroke="#9D8BF9" stroke-width="0.589818" stroke-linecap="round" stroke-linejoin="round"/>
<path opacity="0.3" d="M85.6091 76.8571L51.0687 80.6991C51.0249 80.7039 50.9824 80.7172 50.9437 80.7383C50.905 80.7595 50.8709 80.788 50.8433 80.8224C50.8156 80.8567 50.795 80.8962 50.7826 80.9385C50.7702 80.9808 50.7663 81.0251 50.771 81.0689C50.7757 81.1128 50.789 81.1552 50.8102 81.1939C50.8313 81.2326 50.8599 81.2667 50.8942 81.2944C50.9286 81.322 50.968 81.3426 51.0103 81.355C51.0526 81.3674 51.0969 81.3714 51.1408 81.3666L85.6812 77.5246C85.7251 77.52 85.7676 77.5067 85.8063 77.4855C85.845 77.4644 85.8791 77.4358 85.9068 77.4015C85.9344 77.3671 85.955 77.3277 85.9674 77.2854C85.9798 77.243 85.9837 77.1987 85.9789 77.1549C85.9687 77.0666 85.9242 76.986 85.855 76.9303C85.7858 76.8746 85.6975 76.8483 85.6091 76.8571Z" fill="black"/>
<path opacity="0.3" d="M85.8756 79.2484L46.1488 83.667C46.1026 83.6686 46.0572 83.6797 46.0155 83.6997C45.9738 83.7197 45.9367 83.7481 45.9066 83.7831C45.8764 83.8181 45.8537 83.859 45.8401 83.9032C45.8265 83.9474 45.8221 83.9939 45.8273 84.0398C45.8325 84.0857 45.8472 84.1301 45.8703 84.1701C45.8935 84.2101 45.9247 84.2449 45.9619 84.2723C45.9992 84.2997 46.0417 84.319 46.0868 84.3292C46.1319 84.3394 46.1786 84.3401 46.224 84.3313L85.9477 79.9127C85.9941 79.9116 86.0397 79.9009 86.0818 79.8812C86.1238 79.8615 86.1613 79.8334 86.1919 79.7984C86.2225 79.7635 86.2454 79.7227 86.2594 79.6784C86.2734 79.6341 86.278 79.5875 86.273 79.5413C86.268 79.4952 86.2535 79.4506 86.2303 79.4104C86.2072 79.3701 86.176 79.3351 86.1386 79.3076C86.1013 79.2801 86.0586 79.2606 86.0133 79.2504C85.9681 79.2402 85.9212 79.2395 85.8756 79.2484Z" fill="black"/>
<path opacity="0.3" d="M75.7756 82.809L46.4184 86.0744C46.3299 86.0844 46.2489 86.1291 46.1934 86.1987C46.1379 86.2684 46.1123 86.3572 46.1222 86.4457C46.1322 86.5343 46.1769 86.6152 46.2466 86.6707C46.3162 86.7263 46.4051 86.7519 46.4936 86.7419L75.8508 83.4765C75.939 83.4655 76.0194 83.4202 76.0745 83.3504C76.1296 83.2806 76.1551 83.192 76.1453 83.1036C76.1407 83.0598 76.1274 83.0175 76.1062 82.9789C76.085 82.9404 76.0564 82.9064 76.022 82.879C75.9876 82.8516 75.9481 82.8313 75.9058 82.8193C75.8635 82.8073 75.8192 82.8038 75.7756 82.809Z" fill="black"/>
<path opacity="0.3" d="M94.3699 75.5835L90.8661 75.9734C90.3948 76.0258 90.0552 76.4504 90.1077 76.9217L90.4976 80.4256C90.55 80.8969 90.9746 81.2365 91.4459 81.184L94.9498 80.7941C95.4211 80.7416 95.7607 80.3171 95.7082 79.8457L95.3183 76.3419C95.2658 75.8706 94.8413 75.531 94.3699 75.5835Z" stroke="#263238" stroke-width="0.196606" stroke-linecap="round" stroke-linejoin="round"/>
<path d="M91.4883 78.2757L92.6384 79.3631L94.1583 77.041" stroke="#9D8BF9" stroke-width="0.589818" stroke-linecap="round" stroke-linejoin="round"/>
<path opacity="0.3" d="M86.5716 85.5156L52.0312 89.3639C51.9426 89.3738 51.8617 89.4186 51.8062 89.4882C51.7506 89.5578 51.725 89.6467 51.735 89.7352C51.745 89.8237 51.7897 89.9047 51.8594 89.9602C51.929 90.0157 52.0179 90.0413 52.1064 90.0314L86.6468 86.1893C86.6907 86.1851 86.7333 86.1721 86.7721 86.151C86.8108 86.13 86.845 86.1013 86.8724 86.0669C86.8999 86.0324 86.9202 85.9927 86.932 85.9502C86.9439 85.9077 86.9471 85.8633 86.9414 85.8196C86.9375 85.7752 86.9247 85.732 86.904 85.6926C86.8832 85.6531 86.8547 85.6183 86.8203 85.59C86.7859 85.5617 86.7461 85.5405 86.7034 85.5277C86.6607 85.515 86.6159 85.5108 86.5716 85.5156Z" fill="black"/>
<path opacity="0.3" d="M86.8381 87.9221L47.1144 92.3407C47.068 92.3418 47.0223 92.3525 46.9803 92.3722C46.9383 92.3919 46.9008 92.4201 46.8702 92.455C46.8396 92.4899 46.8166 92.5308 46.8027 92.575C46.7887 92.6193 46.7841 92.6659 46.7891 92.7121C46.7941 92.7582 46.8086 92.8028 46.8317 92.8431C46.8549 92.8833 46.8861 92.9183 46.9234 92.9458C46.9608 92.9734 47.0035 92.9928 47.0487 93.003C47.094 93.0132 47.1409 93.0139 47.1865 93.0051L86.9133 88.5864C86.9962 88.5705 87.07 88.5238 87.12 88.4558C87.17 88.3877 87.1925 88.3034 87.183 88.2195C87.1735 88.1356 87.1327 88.0584 87.0688 88.0032C87.0048 87.9481 86.9225 87.9191 86.8381 87.9221Z" fill="black"/>
<path opacity="0.3" d="M76.7343 91.4689L47.3803 94.7343C47.3364 94.739 47.2939 94.7523 47.2552 94.7734C47.2165 94.7945 47.1823 94.8231 47.1547 94.8574C47.127 94.8918 47.1064 94.9312 47.0941 94.9736C47.0817 95.0159 47.0778 95.0602 47.0825 95.1041C47.0928 95.1929 47.1377 95.2741 47.2076 95.3298C47.2775 95.3856 47.3666 95.4115 47.4555 95.4018L76.8095 92.1364C76.8533 92.1315 76.8958 92.1179 76.9344 92.0966C76.973 92.0753 77.007 92.0465 77.0345 92.0121C77.062 91.9776 77.0824 91.938 77.0946 91.8956C77.1068 91.8533 77.1106 91.8089 77.1057 91.7651C77.1007 91.7212 77.0872 91.6788 77.0659 91.6402C77.0445 91.6016 77.0158 91.5676 76.9813 91.5401C76.9468 91.5126 76.9073 91.4921 76.8649 91.4799C76.8225 91.4677 76.7781 91.464 76.7343 91.4689Z" fill="black"/>
<path opacity="0.3" d="M95.3348 84.2436L91.8309 84.6335C91.3596 84.686 91.0201 85.1106 91.0725 85.5819L91.4624 89.0858C91.5149 89.5571 91.9395 89.8966 92.4108 89.8442L95.9146 89.4543C96.386 89.4018 96.7255 88.9772 96.6731 88.5059L96.2831 85.002C96.2307 84.5307 95.8061 84.1912 95.3348 84.2436Z" stroke="#263238" stroke-width="0.196606" stroke-linecap="round" stroke-linejoin="round"/>
<path d="M92.4502 86.9417L93.6003 88.0292L95.1202 85.707" stroke="#9D8BF9" stroke-width="0.589818" stroke-linecap="round" stroke-linejoin="round"/>
<path d="M57.8536 63.3505C57.8839 62.9903 57.7947 62.6302 57.5998 62.3257L57.2144 61.6426L56.4497 62.075L56.8665 62.8083C57.0733 63.175 56.9887 63.4006 56.7318 63.5448C56.4748 63.6889 56.2366 63.6513 56.0298 63.2847L55.1367 61.699L54.1777 61.887L55.1993 63.6889C55.6663 64.5131 56.3432 64.7481 57.136 64.3157C57.262 64.2434 57.3788 64.156 57.4839 64.0556C57.4393 63.9523 57.4315 63.8369 57.4617 63.7285C57.4919 63.6202 57.5584 63.5255 57.65 63.4602C57.7114 63.4127 57.7802 63.3756 57.8536 63.3505Z" fill="#9D8BF9"/>
<path d="M53.6862 61.0184L53.8679 61.3318H54.924L54.4633 60.517C54.2565 60.1504 54.338 59.9185 54.595 59.7743C54.8519 59.6302 55.0932 59.674 55.3001 60.0438L55.6134 60.5922L56.3749 60.1598L56.0929 59.6615C55.626 58.8404 54.9491 58.6023 54.1562 59.0535C53.9742 59.1517 53.8126 59.2836 53.6799 59.4421C53.86 59.5 54.0487 59.5265 54.2377 59.5205L53.4856 59.8025C53.4305 60.0078 53.4199 60.2224 53.4545 60.4321C53.489 60.6418 53.568 60.8417 53.6862 61.0184Z" fill="#9D8BF9"/>
<path d="M59.543 57.6777C59.6435 57.6275 59.7484 57.5866 59.8563 57.5555C60.2606 57.3738 60.3515 56.7909 60.317 56.3804L59.9002 55.8633L58.7783 56.49L59.4803 57.7247C59.4986 57.7059 59.5198 57.6901 59.543 57.6777Z" fill="#9D8BF9"/>
<path d="M64.3221 60.13L65.0836 59.6976L62.1723 54.5645L61.4484 54.9718C61.6803 55.0282 61.8464 55.1379 61.8527 55.3072C61.627 55.3385 61.3513 55.3072 61.1068 55.351L62.5734 59.1523L60.7182 56.8396C60.7233 56.8908 60.7156 56.9424 60.6959 56.99C60.6762 57.0375 60.6452 57.0795 60.6054 57.1122C60.5208 57.1717 60.3986 57.1717 60.3328 57.2501C60.267 57.3284 60.2764 57.4225 60.22 57.4914C60.1636 57.5603 60.0758 57.5791 60.0069 57.6293C59.9379 57.6794 59.8627 57.8079 59.7844 57.8925C59.7466 57.9323 59.6991 57.9615 59.6465 57.9771L61.7085 61.6123L62.4105 61.2112L60.3516 57.5823L62.9965 60.879L63.7611 60.4465L62.2162 56.4572L64.3221 60.13Z" fill="#9D8BF9"/>
<path d="M66.2488 55.6614C66.3045 55.6893 66.354 55.728 66.3944 55.7754C66.4348 55.8228 66.4652 55.8778 66.4839 55.9372C66.5498 55.55 66.4658 55.1522 66.2488 54.8247L65.8696 54.1541C65.4027 53.333 64.754 53.1105 63.9455 53.5681L62.7578 54.2418L65.6722 59.3781L66.4275 58.9487C66.183 58.7952 65.9104 58.6636 65.6785 58.4975C65.5696 58.428 65.4801 58.332 65.4184 58.2186C65.3891 58.1613 65.377 58.0968 65.3837 58.0328C65.3904 57.9688 65.4155 57.9082 65.456 57.8582C65.5091 57.8134 65.5738 57.7847 65.6426 57.7752C65.7114 57.7658 65.7814 57.7761 65.8446 57.8049L65.3839 56.9901L65.7662 56.7739C65.9764 56.66 66.1592 56.5017 66.3021 56.3101C66.1423 56.0563 65.8634 55.5173 66.2488 55.6614ZM65.3494 56.0563L64.9671 56.2725L63.98 54.5333L64.3623 54.317C64.6193 54.1729 64.8261 54.2105 65.0329 54.5771L65.4717 55.348C65.6785 55.699 65.6064 55.8965 65.3494 56.0563Z" fill="#9D8BF9"/>
<path d="M70.571 56.5995L70.1573 55.8662L68.8286 56.6183L66.8857 53.1931L66.7979 53.262C66.7412 53.3146 66.6723 53.3523 66.5973 53.3717C66.5596 53.3802 66.5201 53.3747 66.4861 53.3563C66.4521 53.3378 66.4259 53.3077 66.4125 53.2714C66.4016 53.2229 66.4016 53.1726 66.4125 53.1241C66.4129 52.8325 66.3208 52.5483 66.1492 52.3125L65.5225 52.676L68.4337 57.8091L70.571 56.5995Z" fill="#9D8BF9"/>
<path d="M70.2072 54.8029C70.2949 54.5741 70.5675 54.4895 70.7211 54.2827C70.7348 54.2614 70.7474 54.2395 70.7587 54.2169L70.4453 53.6904L71.2382 53.2423C71.2236 53.1923 71.1979 53.1462 71.163 53.1075C71.0492 53.0519 70.9277 53.0139 70.8026 52.9947C70.7832 52.9557 70.7735 52.9127 70.7742 52.8692C70.7748 52.8257 70.7859 52.783 70.8065 52.7447C70.827 52.7063 70.8565 52.6735 70.8923 52.6488C70.9281 52.6242 70.9694 52.6084 71.0125 52.603C71.0658 52.603 71.1285 52.603 71.1692 52.5779C71.1978 52.5438 71.2124 52.5001 71.21 52.4557L71.1379 52.3303L70.0285 52.9571L69.22 51.5281L70.6114 50.7353L70.1946 50.002L68.001 51.2555L70.157 55.0567C70.1608 54.9701 70.1777 54.8845 70.2072 54.8029Z" fill="#9D8BF9"/>
<path d="M73.1248 55.1513L72.708 54.418L71.3135 55.2077L70.8967 54.49L70.3827 54.9726L70.2041 55.145L70.9249 56.4142L73.1248 55.1513Z" fill="#9D8BF9"/>
<path d="M72.0873 49.1876C72.0873 49.2973 72.009 49.4195 71.9024 49.4289C71.8482 49.4282 71.7944 49.4198 71.7426 49.4038C71.6457 49.4056 71.549 49.3961 71.4543 49.3756C71.4338 49.3672 71.4148 49.3556 71.3979 49.3412L70.4766 49.8645L70.8934 50.6009L71.7363 50.1215L74.2434 54.5088L75.0487 54.0512L72.5417 49.6639L73.3878 49.1845L72.971 48.4512L72.1061 48.94C72.0905 49.0215 72.0967 49.1061 72.0873 49.1876Z" fill="#9D8BF9"/>
<path d="M75.6064 52.2972L76.2331 53.4034L77.0793 52.924C77.0993 52.8685 77.1244 52.8149 77.1545 52.7641C77.3408 52.4919 77.5916 52.2701 77.8846 52.1186L78.2732 51.8773L78.0162 51.4198L76.6217 52.2126L75.7693 50.7084L76.8787 50.0816L76.4619 49.3483L75.3525 49.9751L74.544 48.5367L75.9386 47.747L75.5218 47.0137L73.3281 48.2672L74.9107 51.0594C75.293 50.8557 75.4842 51.589 75.6064 52.2972Z" fill="#9D8BF9"/>
<path d="M59.3768 62.4378C59.5084 62.4598 59.5867 62.5914 59.6901 62.6791C59.7277 62.7138 59.7713 62.7414 59.8186 62.7606C59.8786 62.7367 59.9372 62.7095 59.9941 62.6791C60.7838 62.231 60.9499 61.5165 60.4861 60.6923L60.4391 60.6108L59.3548 60.5826L59.7089 61.2094C59.9158 61.5761 59.8343 61.8079 59.5773 61.9521C59.3204 62.0963 59.0791 62.0492 58.8722 61.6826L57.3053 58.9092C57.0954 58.5426 57.18 58.3138 57.437 58.1665C57.6939 58.0192 57.9321 58.0694 58.1421 58.436L59.2044 60.3163C59.5305 60.2355 59.865 60.1934 60.2009 60.1909L58.9756 58.0318C58.5118 57.2107 57.813 56.9882 57.0202 57.4363C56.2273 57.8845 56.0612 58.6021 56.5282 59.4232L58.0418 62.0931C58.1374 62.2989 58.2804 62.4792 58.4591 62.6192C58.6377 62.7592 58.8469 62.8549 59.0697 62.8985C59.068 62.8797 59.068 62.8609 59.0697 62.8421C59.032 62.6384 59.1825 62.4002 59.3768 62.4378Z" fill="#9D8BF9"/>
<path d="M70.1981 47.6992L72.6582 46.3047C71.9531 46.499 71.3326 47.0881 70.6055 47.0066C70.4741 46.9721 70.3359 46.9721 70.2044 47.0066C70.1222 47.0596 70.0631 47.1416 70.0387 47.2363C70.0143 47.331 70.0265 47.4314 70.0728 47.5175C70.1045 47.5844 70.1469 47.6458 70.1981 47.6992Z" fill="#9D8BF9"/>
<path d="M64.0278 51.2007C64.0224 51.1465 64.0333 51.0919 64.0591 51.044C64.1196 51.065 64.1832 51.0756 64.2472 51.0753L65.0964 50.5959C65.2293 50.4455 65.381 50.3128 65.5477 50.201C65.7086 50.1149 65.879 50.0476 66.0553 50.0004L66.2434 49.944L67.8103 49.0603C67.8268 49.0283 67.8491 48.9996 67.8761 48.9757C67.9003 48.9596 67.9267 48.9469 67.9544 48.9381L66.3374 48.4492L65.9018 48.6937L65.8548 49.0384L63.9902 50.0349C63.8056 50.1502 63.6001 50.2279 63.3854 50.2637C63.3052 50.2731 63.2242 50.2731 63.1441 50.2637L60.4866 51.771C60.5078 51.897 60.5435 52.02 60.5932 52.1377C60.4373 52.1086 60.289 52.0478 60.1576 51.959L59.6123 52.2724C60.0009 52.5294 60.3832 52.7926 60.7561 53.0715L64.0278 51.2007Z" fill="#9D8BF9"/>
<path d="M75.4026 44.7501L74.1177 44.0293L73.5098 44.374C73.868 44.7424 74.3307 44.9918 74.8354 45.0885L75.4026 44.7501Z" fill="#9D8BF9"/>
<path d="M82.3133 52.3378L77.4623 43.7858C77.2736 43.455 76.9617 43.2124 76.5948 43.1108C76.2278 43.0093 75.8355 43.057 75.5037 43.2436L74.9208 43.5758L75.1433 43.792C75.3752 44.0239 75.6133 44.259 75.8296 44.5065L76.1241 44.3404C76.165 44.3176 76.2131 44.3118 76.2582 44.3241C76.3034 44.3364 76.3418 44.3659 76.3654 44.4062L81.2197 52.9614C81.2422 53.0027 81.2476 53.0511 81.2347 53.0962C81.2218 53.1414 81.1916 53.1797 81.1507 53.2027L74.5479 56.9633C75.1182 56.9977 75.6948 56.9163 76.2652 56.9821C76.4706 57.008 76.6746 57.0446 76.8763 57.0918L81.7712 54.3152C81.9375 54.2218 82.0835 54.0963 82.2009 53.946C82.3183 53.7957 82.4047 53.6236 82.4552 53.4397C82.5056 53.2558 82.519 53.0637 82.4947 52.8746C82.4703 52.6854 82.4087 52.503 82.3133 52.3378Z" fill="#9D8BF9"/>
<path d="M52.5858 63.2208L50.3044 59.1908C50.2926 59.1704 50.285 59.1479 50.2819 59.1246C50.2789 59.1013 50.2804 59.0776 50.2865 59.0549C50.2927 59.0322 50.3032 59.0109 50.3176 58.9923C50.3319 58.9737 50.3498 58.958 50.3702 58.9464L56.9511 55.2109C56.9292 55.1608 56.901 55.1106 56.8822 55.0605C56.9752 55.0566 57.0682 55.0672 57.158 55.0918L59.8185 53.5845C59.7308 53.5563 59.6462 53.5218 59.5616 53.4905L58.3081 52.9922L57.3053 53.5625L58.3958 54.23C58.0166 53.9981 57.2426 53.9668 56.5751 53.9762L49.7654 57.8527C49.4341 58.0408 49.1909 58.3526 49.0892 58.7198C48.9876 59.087 49.0358 59.4796 49.2233 59.8113L51.2038 63.3023C51.2947 63.2772 51.3887 63.2553 51.4796 63.2396C51.7306 63.2035 51.9845 63.1909 52.238 63.202C52.3542 63.2012 52.4703 63.2075 52.5858 63.2208Z" fill="#9D8BF9"/>
<path d="M60.7152 64.7954C60.8268 64.8955 60.9538 64.9769 61.0912 65.0367C61.2323 65.0994 61.4203 65.2498 61.3106 65.3501C60.8029 65.582 60.1762 65.4096 59.6779 65.6635C59.4053 65.7951 59.142 66.0552 58.8506 65.9769C59.2031 66.1909 59.5203 66.4583 59.7907 66.7697L72.2349 59.7124C72.2349 59.6623 72.2506 59.6122 72.26 59.5589C72.2603 59.4603 72.2831 59.363 72.3266 59.2745C72.3702 59.186 72.4333 59.1086 72.5113 59.0481C72.5892 58.9877 72.6799 58.9459 72.7765 58.9258C72.873 58.9057 72.9729 58.9078 73.0685 58.9321C73.2299 58.925 73.3915 58.9419 73.548 58.9823L75.0992 58.1017C74.8863 57.7348 74.6342 57.3923 74.3471 57.0801L60.7152 64.7954Z" fill="#9D8BF9"/>
<path d="M58.6997 66.8656C58.3996 66.7683 58.1231 66.6092 57.8881 66.3987L55.4061 67.8089C55.386 67.8206 55.3638 67.8282 55.3407 67.8312C55.3176 67.8342 55.2942 67.8326 55.2717 67.8265C55.2492 67.8204 55.2282 67.8098 55.2099 67.7955C55.1915 67.7812 55.1762 67.7634 55.1648 67.7431L52.9712 63.8979C52.761 63.8252 52.5374 63.7996 52.3162 63.8227C52.0624 63.8729 51.8399 64.1674 51.9778 64.3837C52.1073 64.387 52.2337 64.4247 52.3438 64.493C52.454 64.5613 52.544 64.6577 52.6045 64.7722C52.4694 64.8797 52.3209 64.9693 52.1627 65.0386L54.0429 68.3635C54.1364 68.5315 54.2624 68.679 54.4137 68.7975C54.5649 68.916 54.7384 69.0031 54.9238 69.0536C55.1092 69.1041 55.3028 69.1171 55.4933 69.0917C55.6837 69.0663 55.8672 69.003 56.0329 68.9057L59.2857 67.0599L59.2481 67.038C59.0686 66.9707 58.8855 66.9131 58.6997 66.8656Z" fill="#9D8BF9"/>
<g opacity="0.2">
<path d="M57.8536 63.3505C57.8839 62.9903 57.7947 62.6302 57.5998 62.3257L57.2144 61.6426L56.4497 62.075L56.8665 62.8083C57.0733 63.175 56.9887 63.4006 56.7318 63.5448C56.4748 63.6889 56.2366 63.6513 56.0298 63.2847L55.1367 61.699L54.1777 61.887L55.1993 63.6889C55.6663 64.5131 56.3432 64.7481 57.136 64.3157C57.262 64.2434 57.3788 64.156 57.4839 64.0556C57.4393 63.9523 57.4315 63.8369 57.4617 63.7285C57.4919 63.6202 57.5584 63.5255 57.65 63.4602C57.7114 63.4127 57.7802 63.3756 57.8536 63.3505Z" fill="black"/>
<path d="M53.6862 61.0184L53.8679 61.3318H54.924L54.4633 60.517C54.2565 60.1504 54.338 59.9185 54.595 59.7743C54.8519 59.6302 55.0932 59.674 55.3001 60.0438L55.6134 60.5922L56.3749 60.1598L56.0929 59.6615C55.626 58.8404 54.9491 58.6023 54.1562 59.0535C53.9742 59.1517 53.8126 59.2836 53.6799 59.4421C53.86 59.5 54.0487 59.5265 54.2377 59.5205L53.4856 59.8025C53.4305 60.0078 53.4199 60.2224 53.4545 60.4321C53.489 60.6418 53.568 60.8417 53.6862 61.0184Z" fill="black"/>
<path d="M59.543 57.6777C59.6435 57.6275 59.7484 57.5866 59.8563 57.5555C60.2606 57.3738 60.3515 56.7909 60.317 56.3804L59.9002 55.8633L58.7783 56.49L59.4803 57.7247C59.4986 57.7059 59.5198 57.6901 59.543 57.6777Z" fill="black"/>
<path d="M64.3221 60.13L65.0836 59.6976L62.1723 54.5645L61.4484 54.9718C61.6803 55.0282 61.8464 55.1379 61.8527 55.3072C61.627 55.3385 61.3513 55.3072 61.1068 55.351L62.5734 59.1523L60.7182 56.8396C60.7233 56.8908 60.7156 56.9424 60.6959 56.99C60.6762 57.0375 60.6452 57.0795 60.6054 57.1122C60.5208 57.1717 60.3986 57.1717 60.3328 57.2501C60.267 57.3284 60.2764 57.4225 60.22 57.4914C60.1636 57.5603 60.0758 57.5791 60.0069 57.6293C59.9379 57.6794 59.8627 57.8079 59.7844 57.8925C59.7466 57.9323 59.6991 57.9615 59.6465 57.9771L61.7085 61.6123L62.4105 61.2112L60.3516 57.5823L62.9965 60.879L63.7611 60.4465L62.2162 56.4572L64.3221 60.13Z" fill="black"/>
<path d="M66.2488 55.6614C66.3045 55.6893 66.354 55.728 66.3944 55.7754C66.4348 55.8228 66.4652 55.8778 66.4839 55.9372C66.5498 55.55 66.4658 55.1522 66.2488 54.8247L65.8696 54.1541C65.4027 53.333 64.754 53.1105 63.9455 53.5681L62.7578 54.2418L65.6722 59.3781L66.4275 58.9487C66.183 58.7952 65.9104 58.6636 65.6785 58.4975C65.5696 58.428 65.4801 58.332 65.4184 58.2186C65.3891 58.1613 65.377 58.0968 65.3837 58.0328C65.3904 57.9688 65.4155 57.9082 65.456 57.8582C65.5091 57.8134 65.5738 57.7847 65.6426 57.7752C65.7114 57.7658 65.7814 57.7761 65.8446 57.8049L65.3839 56.9901L65.7662 56.7739C65.9764 56.66 66.1592 56.5017 66.3021 56.3101C66.1423 56.0563 65.8634 55.5173 66.2488 55.6614ZM65.3494 56.0563L64.9671 56.2725L63.98 54.5333L64.3623 54.317C64.6193 54.1729 64.8261 54.2105 65.0329 54.5771L65.4717 55.348C65.6785 55.699 65.6064 55.8965 65.3494 56.0563Z" fill="black"/>
<path d="M70.571 56.5995L70.1573 55.8662L68.8286 56.6183L66.8857 53.1931L66.7979 53.262C66.7412 53.3146 66.6723 53.3523 66.5973 53.3717C66.5596 53.3802 66.5201 53.3747 66.4861 53.3563C66.4521 53.3378 66.4259 53.3077 66.4125 53.2714C66.4016 53.2229 66.4016 53.1726 66.4125 53.1241C66.4129 52.8325 66.3208 52.5483 66.1492 52.3125L65.5225 52.676L68.4337 57.8091L70.571 56.5995Z" fill="black"/>
<path d="M70.2072 54.8029C70.2949 54.5741 70.5675 54.4895 70.7211 54.2827C70.7348 54.2614 70.7474 54.2395 70.7587 54.2169L70.4453 53.6904L71.2382 53.2423C71.2236 53.1923 71.1979 53.1462 71.163 53.1075C71.0492 53.0519 70.9277 53.0139 70.8026 52.9947C70.7832 52.9557 70.7735 52.9127 70.7742 52.8692C70.7748 52.8257 70.7859 52.783 70.8065 52.7447C70.827 52.7063 70.8565 52.6735 70.8923 52.6488C70.9281 52.6242 70.9694 52.6084 71.0125 52.603C71.0658 52.603 71.1285 52.603 71.1692 52.5779C71.1978 52.5438 71.2124 52.5001 71.21 52.4557L71.1379 52.3303L70.0285 52.9571L69.22 51.5281L70.6114 50.7353L70.1946 50.002L68.001 51.2555L70.157 55.0567C70.1608 54.9701 70.1777 54.8845 70.2072 54.8029Z" fill="black"/>
<path d="M73.1248 55.1513L72.708 54.418L71.3135 55.2077L70.8967 54.49L70.3827 54.9726L70.2041 55.145L70.9249 56.4142L73.1248 55.1513Z" fill="black"/>
<path d="M72.0873 49.1876C72.0873 49.2973 72.009 49.4195 71.9024 49.4289C71.8482 49.4282 71.7944 49.4198 71.7426 49.4038C71.6457 49.4056 71.549 49.3961 71.4543 49.3756C71.4338 49.3672 71.4148 49.3556 71.3979 49.3412L70.4766 49.8645L70.8934 50.6009L71.7363 50.1215L74.2434 54.5088L75.0487 54.0512L72.5417 49.6639L73.3878 49.1845L72.971 48.4512L72.1061 48.94C72.0905 49.0215 72.0967 49.1061 72.0873 49.1876Z" fill="black"/>
<path d="M75.6064 52.2972L76.2331 53.4034L77.0793 52.924C77.0993 52.8685 77.1244 52.8149 77.1545 52.7641C77.3408 52.4919 77.5916 52.2701 77.8846 52.1186L78.2732 51.8773L78.0162 51.4198L76.6217 52.2126L75.7693 50.7084L76.8787 50.0816L76.4619 49.3483L75.3525 49.9751L74.544 48.5367L75.9386 47.747L75.5218 47.0137L73.3281 48.2672L74.9107 51.0594C75.293 50.8557 75.4842 51.589 75.6064 52.2972Z" fill="black"/>
<path d="M59.3768 62.4378C59.5084 62.4598 59.5867 62.5914 59.6901 62.6791C59.7277 62.7138 59.7713 62.7414 59.8186 62.7606C59.8786 62.7367 59.9372 62.7095 59.9941 62.6791C60.7838 62.231 60.9499 61.5165 60.4861 60.6923L60.4391 60.6108L59.3548 60.5826L59.7089 61.2094C59.9158 61.5761 59.8343 61.8079 59.5773 61.9521C59.3204 62.0963 59.0791 62.0492 58.8722 61.6826L57.3053 58.9092C57.0954 58.5426 57.18 58.3138 57.437 58.1665C57.6939 58.0192 57.9321 58.0694 58.1421 58.436L59.2044 60.3163C59.5305 60.2355 59.865 60.1934 60.2009 60.1909L58.9756 58.0318C58.5118 57.2107 57.813 56.9882 57.0202 57.4363C56.2273 57.8845 56.0612 58.6021 56.5282 59.4232L58.0418 62.0931C58.1374 62.2989 58.2804 62.4792 58.4591 62.6192C58.6377 62.7592 58.8469 62.8549 59.0697 62.8985C59.068 62.8797 59.068 62.8609 59.0697 62.8421C59.032 62.6384 59.1825 62.4002 59.3768 62.4378Z" fill="black"/>
<path d="M70.1981 47.6992L72.6582 46.3047C71.9531 46.499 71.3326 47.0881 70.6055 47.0066C70.4741 46.9721 70.3359 46.9721 70.2044 47.0066C70.1222 47.0596 70.0631 47.1416 70.0387 47.2363C70.0143 47.331 70.0265 47.4314 70.0728 47.5175C70.1045 47.5844 70.1469 47.6458 70.1981 47.6992Z" fill="black"/>
<path d="M64.0278 51.2007C64.0224 51.1465 64.0333 51.0919 64.0591 51.044C64.1196 51.065 64.1832 51.0756 64.2472 51.0753L65.0964 50.5959C65.2293 50.4455 65.381 50.3128 65.5477 50.201C65.7086 50.1149 65.879 50.0476 66.0553 50.0004L66.2434 49.944L67.8103 49.0603C67.8268 49.0283 67.8491 48.9996 67.8761 48.9757C67.9003 48.9596 67.9267 48.9469 67.9544 48.9381L66.3374 48.4492L65.9018 48.6937L65.8548 49.0384L63.9902 50.0349C63.8056 50.1502 63.6001 50.2279 63.3854 50.2637C63.3052 50.2731 63.2242 50.2731 63.1441 50.2637L60.4866 51.771C60.5078 51.897 60.5435 52.02 60.5932 52.1377C60.4373 52.1086 60.289 52.0478 60.1576 51.959L59.6123 52.2724C60.0009 52.5294 60.3832 52.7926 60.7561 53.0715L64.0278 51.2007Z" fill="black"/>
<path d="M75.4026 44.7501L74.1177 44.0293L73.5098 44.374C73.868 44.7424 74.3307 44.9918 74.8354 45.0885L75.4026 44.7501Z" fill="black"/>
<path d="M82.3133 52.3378L77.4623 43.7858C77.2736 43.455 76.9617 43.2124 76.5948 43.1108C76.2278 43.0093 75.8355 43.057 75.5037 43.2436L74.9208 43.5758L75.1433 43.792C75.3752 44.0239 75.6133 44.259 75.8296 44.5065L76.1241 44.3404C76.165 44.3176 76.2131 44.3118 76.2582 44.3241C76.3034 44.3364 76.3418 44.3659 76.3654 44.4062L81.2197 52.9614C81.2422 53.0027 81.2476 53.0511 81.2347 53.0962C81.2218 53.1414 81.1916 53.1797 81.1507 53.2027L74.5479 56.9633C75.1182 56.9977 75.6948 56.9163 76.2652 56.9821C76.4706 57.008 76.6746 57.0446 76.8763 57.0918L81.7712 54.3152C81.9375 54.2218 82.0835 54.0963 82.2009 53.946C82.3183 53.7957 82.4047 53.6236 82.4552 53.4397C82.5056 53.2558 82.519 53.0637 82.4947 52.8746C82.4703 52.6854 82.4087 52.503 82.3133 52.3378Z" fill="black"/>
<path d="M52.5858 63.2208L50.3044 59.1908C50.2926 59.1704 50.285 59.1479 50.2819 59.1246C50.2789 59.1013 50.2804 59.0776 50.2865 59.0549C50.2927 59.0322 50.3032 59.0109 50.3176 58.9923C50.3319 58.9737 50.3498 58.958 50.3702 58.9464L56.9511 55.2109C56.9292 55.1608 56.901 55.1106 56.8822 55.0605C56.9752 55.0566 57.0682 55.0672 57.158 55.0918L59.8185 53.5845C59.7308 53.5563 59.6462 53.5218 59.5616 53.4905L58.3081 52.9922L57.3053 53.5625L58.3958 54.23C58.0166 53.9981 57.2426 53.9668 56.5751 53.9762L49.7654 57.8527C49.4341 58.0408 49.1909 58.3526 49.0892 58.7198C48.9876 59.087 49.0358 59.4796 49.2233 59.8113L51.2038 63.3023C51.2947 63.2772 51.3887 63.2553 51.4796 63.2396C51.7306 63.2035 51.9845 63.1909 52.238 63.202C52.3542 63.2012 52.4703 63.2075 52.5858 63.2208Z" fill="black"/>
<path d="M60.7152 64.7954C60.8268 64.8955 60.9538 64.9769 61.0912 65.0367C61.2323 65.0994 61.4203 65.2498 61.3106 65.3501C60.8029 65.582 60.1762 65.4096 59.6779 65.6635C59.4053 65.7951 59.142 66.0552 58.8506 65.9769C59.2031 66.1909 59.5203 66.4583 59.7907 66.7697L72.2349 59.7124C72.2349 59.6623 72.2506 59.6122 72.26 59.5589C72.2603 59.4603 72.2831 59.363 72.3266 59.2745C72.3702 59.186 72.4333 59.1086 72.5113 59.0481C72.5892 58.9877 72.6799 58.9459 72.7765 58.9258C72.873 58.9057 72.9729 58.9078 73.0685 58.9321C73.2299 58.925 73.3915 58.9419 73.548 58.9823L75.0992 58.1017C74.8863 57.7348 74.6342 57.3923 74.3471 57.0801L60.7152 64.7954Z" fill="black"/>
<path d="M58.6997 66.8656C58.3996 66.7683 58.1231 66.6092 57.8881 66.3987L55.4061 67.8089C55.386 67.8206 55.3638 67.8282 55.3407 67.8312C55.3176 67.8342 55.2942 67.8326 55.2717 67.8265C55.2492 67.8204 55.2282 67.8098 55.2099 67.7955C55.1915 67.7812 55.1762 67.7634 55.1648 67.7431L52.9712 63.8979C52.761 63.8252 52.5374 63.7996 52.3162 63.8227C52.0624 63.8729 51.8399 64.1674 51.9778 64.3837C52.1073 64.387 52.2337 64.4247 52.3438 64.493C52.454 64.5613 52.544 64.6577 52.6045 64.7722C52.4694 64.8797 52.3209 64.9693 52.1627 65.0386L54.0429 68.3635C54.1364 68.5315 54.2624 68.679 54.4137 68.7975C54.5649 68.916 54.7384 69.0031 54.9238 69.0536C55.1092 69.1041 55.3028 69.1171 55.4933 69.0917C55.6837 69.0663 55.8672 69.003 56.0329 68.9057L59.2857 67.0599L59.2481 67.038C59.0686 66.9707 58.8855 66.9131 58.6997 66.8656Z" fill="black"/>
</g>
<path opacity="0.3" d="M44.5881 55.6758C46.4997 57.0797 48.0979 63.8236 48.2421 70.0065C48.3862 76.1895 51.3759 86.6155 51.7331 88.3234C52.0904 90.0313 51.9587 92.4945 54.1775 89.0661C56.3962 85.6378 62.8862 79.6867 65.5907 81.6642C68.2951 83.6416 63.7417 90.2883 61.2755 93.8671C58.8092 97.4458 58.5585 103.748 55.6033 107.693C52.6482 111.639 49.9782 117.596 47.0826 117.505C44.187 117.414 25.0083 131.642 25.0083 131.642L25.3844 112.168L42.6201 83.9643L44.5881 55.6758Z" fill="black" fill-opacity="0.7"/>
<path d="M67.1639 82.6191C67.0668 83.2302 63.6917 87.702 61.708 91.0489C59.7244 94.3958 57.866 100.221 57.3678 101.077C56.8695 101.933 50.7868 107.276 49.1197 109.51C47.4525 111.744 44.4754 112.731 41.5015 114.837C39.5899 116.191 33.6326 123.176 29.6182 127.999C27.387 130.679 25.7543 132.7 25.7543 132.7L0.0917969 126.009C0.0917969 126.009 2.21649 124.257 5.01182 121.895H5.03062L5.05883 121.873C9.65294 117.971 16.0552 112.465 17.8227 110.387C20.6713 107.041 24.6386 103.064 24.6386 103.064C24.3973 98.4164 24.8893 94.0135 24.4538 92.34C24.2281 91.4657 23.827 86.4924 23.5136 84.9631C22.7521 81.0553 19.4397 77.0065 19.0668 75.4114C18.6939 73.8163 14.3223 67.0254 16.4564 65.7719C16.8443 65.5277 17.3055 65.4268 17.76 65.4867C20.6431 65.8847 23.0185 72.848 24.6543 74.6217C25.3553 75.4614 25.9902 76.354 26.5534 77.2917C27.8445 79.338 29.1105 81.6382 29.1105 81.6382C29.6057 79.6545 26.0112 72.5879 25.0178 65.8941C24.0244 59.2004 21.1758 55.6059 25.0178 55.1923C25.3335 55.1569 25.6531 55.1846 25.958 55.2738C28.6624 56.0635 29.8344 61.6823 31.4515 67.1351C31.6019 67.6365 32.8335 71.2372 33.7924 74.0137C34.4191 75.8313 34.9206 77.2948 34.9206 77.2948C35.0428 73.8852 33.9804 70.7139 33.8049 67.624C33.7297 66.3861 34.1183 61.4254 33.6294 56.4677C33.2095 52.2841 33.4007 50.5888 35.0365 50.2597C35.3869 50.1967 35.7441 50.1798 36.0989 50.2096C38.9349 50.3882 39.9409 57.9249 39.9409 60.8644C39.9409 62.5723 40.2323 65.9067 40.4767 68.4074C40.6554 70.2156 40.8089 71.5882 40.8089 71.5882C40.8089 71.5882 41.3041 67.4359 40.9343 58.4796C40.8497 56.5179 40.9781 55.1139 41.749 54.5467C42.1721 54.2334 42.7832 54.1801 43.6606 54.4182C46.1395 55.0889 46.9448 64.274 46.9448 67.7462C46.9448 71.2184 48.9285 77.1663 49.3014 81.8482C49.6744 86.53 51.2976 92.2836 51.2976 92.2836C51.2976 92.2836 52.2158 92.6565 52.8332 92.5343C53.4506 92.4121 57.7313 86.0881 57.7313 86.0881C59.7244 81.7604 63.604 80.4474 65.7161 80.9331C66.6876 81.1556 67.3144 81.7541 67.1639 82.6191Z" fill="white"/>
<path opacity="0.4" d="M67.1639 82.6196C67.0667 83.2307 63.6917 87.7025 61.708 91.0494C59.7243 94.3963 57.866 100.222 57.3677 101.077C56.8694 101.933 50.7868 107.276 49.1196 109.51C47.4525 111.745 44.4754 112.732 41.5014 114.838C39.5898 116.192 33.6325 123.177 29.6182 128C30.06 126.251 31.0503 124.017 33.6388 121.87C38.1326 118.138 38.4021 115.211 40.8183 112.732C43.2344 110.253 47.4901 110.996 49.0193 108.031C50.5486 105.067 55.8823 102.328 56.9979 99.7237C58.1136 97.1195 55.8823 96.568 57.866 93.4342C59.8497 90.3004 61.7738 89.5389 61.4918 88.3105C61.2097 87.0821 60.3761 85.2206 62.0966 83.6694C63.1715 82.7042 64.4344 81.4914 65.7255 80.9336C66.6876 81.1561 67.3143 81.7546 67.1639 82.6196Z" fill="#9D8BF9"/>
<path opacity="0.4" d="M35.0112 97.3293C34.187 96.9156 34.8482 96.0914 34.2685 95.4051C33.6887 94.7188 32.3663 99.15 32.0749 99.1657C31.7834 99.1813 30.8966 96.9125 30.5456 96.6869C30.1946 96.4612 29.9878 97.4108 29.4895 99.1657C28.9912 100.921 27.1611 101.811 26.0987 103.064C25.0364 104.318 18.6466 111.134 17.0766 113.694C15.5066 116.254 5.8107 121.321 5.05859 121.867C9.6527 117.971 16.055 112.465 17.8225 110.388C20.6711 107.041 24.6384 103.064 24.6384 103.064C24.3971 98.4167 24.8891 94.0137 24.4535 92.3403C24.2279 91.466 23.8268 86.4927 23.5134 84.9634C22.7519 81.0556 19.4395 77.0068 19.0666 75.4117C18.6936 73.8166 14.322 67.0257 16.4561 65.7722C16.8441 65.528 17.3053 65.4271 17.7598 65.487C17.274 65.8317 16.8008 66.3269 17.2427 67.0539C18.0293 68.3262 18.8942 69.6643 18.8942 71.0714C18.8942 72.4785 21.2915 74.459 22.2223 75.7721C23.153 77.0851 22.2849 76.6213 22.9054 78.4201C23.5259 80.2189 24.2686 79.8428 24.6384 81.6604C25.0082 83.478 27.0765 84.6375 26.7474 86.9032C26.4184 89.1689 27.7377 92.3215 27.7377 92.3215C27.7377 92.3215 28.8126 89.2661 28.4209 87.6209C28.0292 85.9756 28.4835 83.9011 28.1075 83.3433C27.7941 82.8419 26.9355 79.4386 26.5406 77.3233C27.8317 79.3696 29.0978 81.6698 29.0978 81.6698C29.5929 79.6861 25.9985 72.6195 25.0051 65.9257C24.0117 59.232 21.1631 55.6376 25.0051 55.2239C25.3207 55.1885 25.6403 55.2162 25.9452 55.3054C27.5842 58.3671 26.4435 60.6328 26.0799 61.9615C25.682 63.4093 28.0511 67.126 28.4021 69.6863C28.7154 72.0773 29.361 71.8298 29.4456 71.7859C29.3735 71.8517 28.7625 72.4753 29.1322 74.249C29.5177 76.1293 32.266 80.5949 32.266 81.8422C32.266 83.0894 32.0404 85.142 32.0404 85.75C32.0404 86.3579 34.234 90.4256 34.4973 91.4911C34.7605 92.5565 34.3938 89.4384 34.9924 88.3573C35.5909 87.2761 35.9075 83.5031 35.9858 83.7068C37.0168 86.3266 35.8385 97.7367 35.0112 97.3293Z" fill="#9D8BF9"/>
<path opacity="0.4" d="M36.7884 69.326C36.0864 70.3884 36.1052 78.6804 34.9081 78.7086C34.3284 78.7086 34.0464 76.6246 33.8113 74.0079C34.4381 75.8255 34.9395 77.289 34.9395 77.289C35.0617 73.8794 33.9993 70.708 33.8239 67.6181C33.7486 66.3803 34.1372 61.4195 33.6484 56.4619C33.2284 52.2783 33.4196 50.583 35.0554 50.2539C35.4001 51.3695 36.2463 52.6857 36.4625 53.9079C36.7571 55.5939 36.1805 56.9884 35.6853 57.1983C35.1902 57.4083 35.1056 58.4957 35.7261 58.6555C36.3465 58.8154 35.7261 66.7281 36.0144 67.7435C36.3027 68.7588 37.4935 68.2794 36.7884 69.326Z" fill="#9D8BF9"/>
<path opacity="0.4" d="M43.2283 60.0427C41.9404 60.61 41.8714 61.6253 41.486 63.0825C41.1005 64.5397 42.0375 66.6675 41.486 70.0113C40.9344 73.355 42.9463 75.511 41.486 79.2528C40.0256 82.9945 40.7119 76.119 40.4675 72.9852C40.3833 71.459 40.3895 69.9291 40.4863 68.4036C40.6649 70.2118 40.8185 71.5844 40.8185 71.5844C40.8185 71.5844 41.3136 67.4322 40.9438 58.4759C40.8592 56.5141 40.9877 55.1102 41.7586 54.543C43.081 55.7432 44.3252 59.5601 43.2283 60.0427Z" fill="#9D8BF9"/>
<path d="M25.7543 132.702C25.7543 132.702 38.5245 116.958 41.5016 114.839C44.4786 112.721 47.4557 111.74 49.1198 109.512C50.7838 107.284 56.8727 101.947 57.3678 101.079C57.863 100.211 59.7244 94.3853 61.7081 91.051C63.6918 87.7166 67.0669 83.2165 67.164 82.6211C67.5965 79.8916 60.6552 79.7694 57.7408 86.0933C57.7408 86.0933 53.4632 92.4142 52.8427 92.5395C52.2222 92.6649 51.3071 92.2888 51.3071 92.2888C51.3071 92.2888 49.6838 86.5383 49.3109 81.8533C48.938 77.1684 46.9543 71.2142 46.9543 67.7514C46.9543 64.2885 46.1489 55.0941 43.6701 54.4234C41.1913 53.7528 40.8153 55.4513 40.9437 58.4973C41.3135 67.4536 40.8184 71.6059 40.8184 71.6059C40.8184 71.6059 39.9503 63.8247 39.9503 60.8821C39.9503 57.9395 38.9444 50.4028 36.1083 50.2273C33.5042 50.0612 33.1406 51.5247 33.6389 56.4948C34.1372 61.465 33.7392 66.4132 33.8144 67.6511C33.9993 70.7504 35.0679 73.9186 34.93 77.3219C34.93 77.3219 31.7054 67.9864 31.4578 67.1559C29.6622 61.0702 28.418 54.8026 25.0085 55.1787C21.1665 55.5923 24.0182 59.1868 25.0085 65.8805C25.9988 72.5742 29.5963 79.6409 29.1012 81.6246C29.1012 81.6246 26.1273 76.2251 24.645 74.6081C22.7647 72.5742 19.9255 63.7119 16.4533 65.7583C14.3192 67.0118 18.7034 73.8246 19.0731 75.4197C19.4429 77.0148 22.7585 81.0605 23.52 84.9714C23.8333 86.5007 24.2251 91.474 24.4601 92.3483C24.8957 94.0218 24.4037 98.4247 24.645 103.072C24.645 103.072 20.6776 107.039 17.829 110.386C14.9804 113.733 0.0981445 126.008 0.0981445 126.008" stroke="#263238" stroke-width="0.196606" stroke-linecap="round" stroke-linejoin="round"/>
<path d="M51.3066 92.2871C51.8786 93.699 51.8786 95.2781 51.3066 96.6901" stroke="#263238" stroke-width="0.196606" stroke-linecap="round" stroke-linejoin="round"/>
<path d="M52.3506 92.5508C52.7063 92.812 52.9699 93.1795 53.1034 93.6002C53.2369 94.0209 53.2333 94.4731 53.0933 94.8917" stroke="#263238" stroke-width="0.196606" stroke-linecap="round" stroke-linejoin="round"/>
<path d="M40.8184 71.584C40.8184 71.584 41.8118 78.588 41.3762 79.8885" stroke="#263238" stroke-width="0.196606" stroke-linecap="round" stroke-linejoin="round"/>
<path d="M34.9297 77.2891C35.0361 77.966 35.0361 78.6554 34.9297 79.3323" stroke="#263238" stroke-width="0.196606" stroke-linecap="round" stroke-linejoin="round"/>
<path d="M29.1045 81.627C29.1045 81.627 29.2894 82.683 29.1045 82.9306" stroke="#263238" stroke-width="0.196606" stroke-linecap="round" stroke-linejoin="round"/>
<path d="M60.5303 87.5762C60.5303 87.5762 61.6522 88.1841 62.0188 89.0647" stroke="#263238" stroke-width="0.196606" stroke-linecap="round" stroke-linejoin="round"/>
<path d="M34.9707 58.477C35.3343 58.5643 35.7141 58.5587 36.075 58.4607C36.4359 58.3626 36.7664 58.1753 37.0359 57.916" stroke="#263238" stroke-width="0.196606" stroke-linecap="round" stroke-linejoin="round"/>
<path d="M35.3501 68.5488C35.3501 68.5488 37.5813 69.2915 38.3899 68.5488" stroke="#263238" stroke-width="0.196606" stroke-linecap="round" stroke-linejoin="round"/>
<path d="M42.6172 70.7165C42.6172 70.7165 44.1026 70.1587 45.096 70.4689" stroke="#263238" stroke-width="0.196606" stroke-linecap="round" stroke-linejoin="round"/>
<path d="M28.4214 72.7006C28.4214 72.7006 29.5997 71.1494 30.5304 71.585" stroke="#263238" stroke-width="0.196606" stroke-linecap="round" stroke-linejoin="round"/>
<path d="M23.5858 77.2891C23.5858 77.2891 22.5329 77.7842 22.2227 78.3107" stroke="#263238" stroke-width="0.196606" stroke-linecap="round" stroke-linejoin="round"/>
<path d="M24.6387 103.063C24.897 102.773 25.1258 102.458 25.3218 102.123C25.5067 101.75 25.2592 97.7825 25.3218 95.2285" stroke="#263238" stroke-width="0.196606" stroke-linecap="round" stroke-linejoin="round"/>
<path d="M37.6438 118.682C36.1835 120.317 31.7053 123.282 29.9097 125.078" stroke="#263238" stroke-width="0.196606" stroke-linecap="round" stroke-linejoin="round"/>
<path d="M43.5451 81.627C42.8024 83.736 43.6078 86.3997 43.5451 87.5811C43.4824 88.7626 43.2317 94.162 43.2317 94.162" stroke="#263238" stroke-width="0.196606" stroke-linecap="round" stroke-linejoin="round"/>
<path d="M36.7886 81.627C35.7983 83.3004 36.1085 85.5316 36.4188 86.641C36.729 87.7503 36.4533 92.2818 36.4533 92.2818" stroke="#263238" stroke-width="0.196606" stroke-linecap="round" stroke-linejoin="round"/>
<path d="M26.1273 86.957C26.0452 88.0484 26.2619 89.1415 26.7541 90.119" stroke="#263238" stroke-width="0.196606" stroke-linecap="round" stroke-linejoin="round"/>
<path d="M32.263 83.6719C31.7051 85.7182 32.451 86.6458 32.5137 86.9561" stroke="#263238" stroke-width="0.196606" stroke-linecap="round" stroke-linejoin="round"/>
<path opacity="0.3" d="M82.6138 70.1604L81.5577 64.0308C81.5111 63.7584 81.52 63.4795 81.5839 63.2107C81.6478 62.942 81.7654 62.6889 81.9297 62.4667C82.0939 62.2445 82.3013 62.0578 82.5395 61.9179C82.7777 61.7779 83.0417 61.6876 83.3158 61.6522L85.6818 61.3389C85.6818 61.3389 84.8921 59.7375 87.4335 55.0713C89.975 50.4051 102.194 38.011 111.457 58.8318C120.72 79.6526 129.185 122.081 129.185 122.081C129.185 122.081 104.18 92.9618 103.384 91.4701C102.588 89.9784 94.9765 90.8715 93.2185 86.8697C91.4604 82.8679 87.7688 71.4484 87.7688 71.4484L84.9108 71.8401C84.3851 71.9113 83.8522 71.7761 83.424 71.4629C82.9958 71.1498 82.7054 70.683 82.6138 70.1604Z" fill="black" fill-opacity="0.7"/>
<path d="M104.651 56.0958L99.8528 56.967L93.1842 58.1798L84.4503 59.7686C84.2828 59.7994 84.1109 59.7967 83.9444 59.7609C83.7779 59.7251 83.6201 59.6567 83.48 59.5598C83.34 59.4628 83.2205 59.3392 83.1283 59.1959C83.0362 59.0527 82.9732 58.8927 82.943 58.7251L81.0251 48.1799C80.9648 47.8418 81.0406 47.4935 81.2361 47.2111C81.4316 46.9287 81.7309 46.7351 82.0687 46.6726L87.1485 45.7325L94.538 44.3912L102.269 42.9841C102.436 42.9534 102.608 42.956 102.775 42.9919C102.941 43.0277 103.099 43.0961 103.239 43.193C103.379 43.29 103.499 43.4136 103.591 43.5568C103.683 43.7001 103.746 43.8601 103.776 44.0277L105.694 54.5728C105.727 54.7415 105.726 54.915 105.692 55.0834C105.657 55.2517 105.589 55.4114 105.492 55.5531C105.395 55.6949 105.27 55.8159 105.126 55.9091C104.981 56.0023 104.82 56.0658 104.651 56.0958Z" fill="#9D8BF9"/>
<mask id="mask0_265_5727" style="mask-type:luminance" maskUnits="userSpaceOnUse" x="81" y="42" width="25" height="18">
<path d="M104.651 56.0958L99.8528 56.967L93.1842 58.1798L84.4503 59.7686C84.2828 59.7994 84.1109 59.7967 83.9444 59.7609C83.7779 59.7251 83.6201 59.6567 83.48 59.5598C83.34 59.4628 83.2205 59.3392 83.1283 59.1959C83.0362 59.0527 82.9732 58.8927 82.943 58.7251L81.0251 48.1799C80.9648 47.8418 81.0406 47.4935 81.2361 47.2111C81.4316 46.9287 81.7309 46.7351 82.0687 46.6726L87.1485 45.7325L94.538 44.3912L102.269 42.9841C102.436 42.9534 102.608 42.956 102.775 42.9919C102.941 43.0277 103.099 43.0961 103.239 43.193C103.379 43.29 103.499 43.4136 103.591 43.5568C103.683 43.7001 103.746 43.8601 103.776 44.0277L105.694 54.5728C105.727 54.7415 105.726 54.915 105.692 55.0834C105.657 55.2517 105.589 55.4114 105.492 55.5531C105.395 55.6949 105.27 55.8159 105.126 55.9091C104.981 56.0023 104.82 56.0658 104.651 56.0958Z" fill="white"/>
</mask>
<g mask="url(#mask0_265_5727)">
<path opacity="0.3" d="M101.256 49.0944L99.8525 56.9665L93.1838 58.1792C91.2534 57.33 88.0695 55.8508 87.4334 55.0455C86.675 54.1053 86.7816 48.5648 87.1482 45.7319L94.5376 44.3906C97.1418 46.1863 101.256 49.0944 101.256 49.0944Z" fill="black" fill-opacity="0.7"/>
<path opacity="0.3" d="M85.7759 59.5257L84.4503 59.767C84.2828 59.7978 84.1109 59.7951 83.9444 59.7593C83.7779 59.7235 83.6201 59.6551 83.48 59.5581C83.34 59.4612 83.2205 59.3376 83.1283 59.1943C83.0362 59.0511 82.9732 58.8911 82.943 58.7235L81.0251 48.1783C80.9648 47.8402 81.0406 47.4919 81.2361 47.2095C81.4316 46.9271 81.7309 46.7335 82.0687 46.671L83.3911 46.4297C83.0536 46.4922 82.7545 46.6859 82.5595 46.9684C82.3645 47.2509 82.2894 47.5993 82.3507 47.937L84.2686 58.4822C84.2988 58.6498 84.3618 58.8098 84.4539 58.953C84.5461 59.0963 84.6656 59.2199 84.8056 59.3169C84.9457 59.4138 85.1035 59.4822 85.27 59.518C85.4365 59.5538 85.6084 59.5565 85.7759 59.5257Z" fill="black" fill-opacity="0.7"/>
</g>
<path d="M104.651 56.0959L99.8528 56.967L93.1842 58.1798L84.4503 59.7686C84.2828 59.7994 84.1109 59.7967 83.9444 59.7609C83.7779 59.7251 83.6201 59.6567 83.48 59.5598C83.34 59.4628 83.2205 59.3392 83.1283 59.1959C83.0362 59.0527 82.9732 58.8927 82.943 58.7251L81.0251 48.1799C80.9648 47.8418 81.0406 47.4935 81.2361 47.2111C81.4316 46.9287 81.7309 46.7351 82.0687 46.6726L87.1485 45.7325L94.538 44.3912L102.269 42.9841C102.436 42.9534 102.608 42.956 102.775 42.9919C102.941 43.0277 103.099 43.0961 103.239 43.193C103.379 43.29 103.499 43.4136 103.591 43.5568C103.683 43.7001 103.746 43.8601 103.776 44.0277L105.694 54.5728C105.727 54.7415 105.726 54.915 105.692 55.0834C105.657 55.2517 105.589 55.4114 105.492 55.5531C105.395 55.6949 105.27 55.8159 105.126 55.9091C104.981 56.0023 104.82 56.0658 104.651 56.0959Z" stroke="#263238" stroke-width="0.196606" stroke-linecap="round" stroke-linejoin="round"/>
<path d="M103.225 42.4267L83.1064 46.1219C82.4042 46.2509 81.9395 46.9247 82.0685 47.6269L83.9971 58.127C84.1261 58.8292 84.7998 59.2939 85.502 59.1649L105.621 55.4696C106.323 55.3406 106.788 54.6668 106.659 53.9646L104.73 43.4646C104.601 42.7624 103.927 42.2977 103.225 42.4267Z" stroke="#263238" stroke-width="0.195897" stroke-linecap="round" stroke-linejoin="round"/>
<path d="M102.663 43.6944L83.7036 47.1399C83.363 47.2018 83.1371 47.528 83.199 47.8686L85.0873 58.2592C85.1492 58.5998 85.4754 58.8257 85.816 58.7638L104.775 55.3184C105.116 55.2565 105.342 54.9302 105.28 54.5897L103.391 44.199C103.329 43.8585 103.003 43.6326 102.663 43.6944Z" stroke="#263238" stroke-width="0.196606" stroke-linecap="round" stroke-linejoin="round"/>
<path d="M105.976 55.8546L104.66 56.0927C104.996 56.0295 105.293 55.8359 105.487 55.554C105.681 55.2721 105.755 54.925 105.694 54.5885L103.776 44.0434C103.746 43.8758 103.683 43.7157 103.591 43.5725C103.498 43.4293 103.379 43.3056 103.239 43.2087C103.099 43.1118 102.941 43.0434 102.775 43.0076C102.608 42.9717 102.436 42.9691 102.269 42.9998L103.594 42.7585C103.932 42.6982 104.281 42.774 104.563 42.9695C104.845 43.165 105.039 43.4643 105.101 43.8021L107.019 54.3472C107.08 54.6854 107.004 55.0336 106.808 55.316C106.613 55.5984 106.314 55.792 105.976 55.8546Z" stroke="#263238" stroke-width="0.196606" stroke-linecap="round" stroke-linejoin="round"/>
<path d="M144.093 89.6322L131.116 124.442C131.116 124.442 125.688 114.101 120.674 104.53C116.669 96.8775 112.927 89.7012 112.423 88.6451C111.291 86.2666 107.427 81.2839 107.427 81.2839C107.427 81.2839 103.463 79.015 101.649 75.0633C99.8342 71.1116 97.838 56.9752 97.838 56.9752C97.838 56.9752 92.6265 55.0134 91.3824 54.1548C90.1383 53.2961 89.0039 45.3614 89.0039 44.4558C89.0039 43.5501 90.2574 41.7357 90.2574 41.7357C90.2574 41.7357 89.9785 40.4069 91.5705 39.0657C92.0908 38.6385 92.6677 38.2852 93.2846 38.0159H93.316C93.316 38.0159 93.1092 35.0168 94.6698 34.1425C94.7443 34.1004 94.8218 34.0637 94.9017 34.0328C96.2931 33.497 100.856 32.8044 100.856 32.8044C101.501 32.2376 102.252 31.8041 103.065 31.529C103.874 31.3065 108.311 32.3375 110.79 32.9486C111.786 33.193 112.466 33.3685 112.466 33.3685C112.466 33.3685 116.659 33.5596 117.452 34.0328C118.005 34.3954 118.511 34.826 118.957 35.3146L119.035 35.4054C119.035 35.4054 122.773 36.1826 123.566 37.5521C124.359 38.9215 124.698 45.7155 124.134 50.131C123.569 54.5465 124.582 62.0394 124.582 62.0394C124.582 62.0394 125.751 67.8274 126.656 70.0242C127.562 72.221 144.093 89.6322 144.093 89.6322Z" fill="white"/>
<path opacity="0.4" d="M120.674 104.53C116.669 96.8776 112.927 89.7012 112.423 88.6451C111.291 86.2666 107.427 81.2839 107.427 81.2839C107.427 81.2839 103.463 79.0151 101.649 75.0634C99.8342 71.1117 97.838 56.9752 97.838 56.9752C97.838 56.9752 92.6265 55.0135 91.3824 54.1548C90.1383 53.2962 89.0039 45.3615 89.0039 44.4558C89.0039 43.5502 90.2574 41.7357 90.2574 41.7357C90.2574 41.7357 89.9785 40.407 91.5705 39.0657C91.5705 39.423 91.5705 40.0247 91.5705 40.9711C91.5329 42.7667 93.6482 53.5939 94.1715 53.2649C94.6948 52.9358 95.5033 52.143 95.2903 51.4441C95.2903 51.4441 94.2655 47.2417 93.2972 38.0159H93.3285C93.3285 38.0159 93.1217 35.0169 94.6823 34.1426C94.4138 34.792 94.2417 35.4772 94.1715 36.1764C94.137 37.6367 95.8731 50.1499 96.5532 50.4664C97.2332 50.7829 98.9568 49.1157 98.9568 49.1157C98.9568 49.1157 98.3676 45.5652 98.5776 44.0516C98.5776 44.0516 103.82 47.248 103.977 50.8769C103.993 51.2749 104.999 56.9627 104.999 56.9627C104.999 56.9627 100.489 65.5492 105.093 73.3837C105.093 73.3837 102.752 71.9797 102.194 69.7485C102.194 69.7485 101.514 76.3106 106.349 79.7766C106.349 79.7766 109.818 76.3702 113.244 75.9377C113.244 75.9377 113.306 76.1633 111.012 77.9715C108.718 79.7797 108.408 80.5851 108.408 80.5851C108.408 80.5851 110.89 78.0781 112.874 77.9715C112.874 77.9715 110.827 80.3375 110.89 80.8327C110.953 81.3278 116.741 91.2242 118.847 98.1279C119.705 101.011 120.291 103.092 120.674 104.53Z" fill="#9D8BF9"/>
<path opacity="0.4" d="M104.422 38.8548C104.422 38.8548 106.092 40.1084 106.587 38.8548C106.872 38.1841 107.052 37.474 107.123 36.7489C107.123 36.7489 107.766 36.4544 108.377 38.0025C108.988 39.5505 115.114 39.9454 116.55 40.7382C117.985 41.5311 118.555 40.7382 118.555 40.7382C118.89 41.013 119.119 41.3946 119.204 41.8188C119.29 42.243 119.227 42.6837 119.025 43.0666C118.33 44.505 120.301 44.6335 121.065 43.5743C121.83 42.5151 121.238 46.6047 119.348 47.0215C119.348 47.0215 119.401 48.8077 118.185 50.033H119.216C119.216 50.033 116.471 52.211 115.741 52.3301C115.011 52.4491 118.458 53.6682 117.819 53.9252C117.179 54.1821 115.368 54.1602 115.368 54.1602C115.368 54.1602 116.54 54.9718 116.55 55.5077C116.559 56.0436 115.995 56.4478 115.741 55.9997C115.487 55.5516 113.463 49.1336 112.454 46.7613C111.445 44.3891 107.277 42.512 104.422 38.8548Z" fill="#9D8BF9"/>
<path opacity="0.4" d="M118.953 35.2937C115.437 34.3317 110.721 32.9622 110.721 32.9622L110.787 32.9277C111.783 33.1722 112.463 33.3477 112.463 33.3477C112.463 33.3477 116.656 33.5388 117.449 34.012C118.002 34.3746 118.507 34.8052 118.953 35.2937Z" fill="#9D8BF9"/>
<path d="M114.008 40.8256C110.95 40.1988 108.766 42.8124 108.766 42.8124C108.766 42.8124 111.805 45.5638 112.479 46.7453C113.153 47.9267 114.272 51.9097 114.272 51.9097C115.553 52.1166 117.916 50.7941 118.483 47.2843C119.051 43.7745 117.051 41.4492 114.008 40.8256Z" fill="#9D8BF9"/>
<path d="M131.116 124.442C131.116 124.442 113.566 91.0239 112.423 88.6454C111.279 86.2669 107.427 81.2842 107.427 81.2842C107.427 81.2842 103.463 79.0153 101.649 75.0636C99.8342 71.1119 97.838 56.9755 97.838 56.9755C97.838 56.9755 92.6265 55.0138 91.3824 54.1551C90.1383 53.2964 89.0039 45.3617 89.0039 44.4561C89.0039 43.5504 90.2574 41.736 90.2574 41.736C90.2574 41.736 89.8062 39.5893 93.316 38.0005C93.316 38.0005 93.0903 34.7132 94.9017 34.0175C96.2931 33.4816 100.856 32.789 100.856 32.789C101.501 32.2223 102.252 31.7888 103.065 31.5136C104.196 31.2002 112.466 33.3531 112.466 33.3531C112.466 33.3531 116.659 33.5443 117.452 34.0175C118.032 34.4 118.56 34.8561 119.022 35.3744C119.022 35.3744 122.761 36.1516 123.554 37.521C124.347 38.8905 124.685 45.6845 124.121 50.1C123.557 54.5155 124.569 62.0083 124.569 62.0083C124.569 62.0083 125.738 67.7964 126.644 69.9932C127.549 72.19 144.093 89.6325 144.093 89.6325" stroke="#263238" stroke-width="0.196606" stroke-linecap="round" stroke-linejoin="round"/>
<path d="M116.258 56.5139C116.258 56.5139 115.466 56.3447 114.447 52.6061C113.429 48.8675 113.159 47.1189 111.047 44.9033C109.549 43.3364 106.121 40.7761 104.422 38.852C102.724 36.9279 100.846 35.3735 99.3799 36.5643C98.2078 37.5045 97.4432 39.9457 98.4742 43.7125C99.7998 48.551 103.98 50.8543 103.98 50.8543L105.002 56.9401C105.002 56.9401 100.568 65.8212 105.566 74.2041" stroke="#263238" stroke-width="0.196606" stroke-linecap="round" stroke-linejoin="round"/>
<path d="M108.75 42.8116C108.75 42.8116 110.944 40.2012 113.993 40.8248C117.042 41.4484 119.023 43.7705 118.468 47.2835C117.913 50.7964 115.538 52.1158 114.256 51.9089" stroke="#263238" stroke-width="0.196606" stroke-linecap="round" stroke-linejoin="round"/>
<path d="M100.846 32.7832C100.388 33.9345 100.036 35.125 99.793 36.34" stroke="#263238" stroke-width="0.196606" stroke-linecap="round" stroke-linejoin="round"/>
<path d="M98.9912 45.0547C98.9912 45.0547 99.2545 48.9249 99.7997 50.1126C100.345 51.3003 101.251 52.2655 101.646 53.7948C102.04 55.3241 102.1 57.7026 102.213 58.0442C102.326 58.3858 102.981 58.4735 102.981 58.4735C103.921 58.4954 104.3 58.0066 104.842 57.2607" stroke="#263238" stroke-width="0.196606" stroke-linecap="round" stroke-linejoin="round"/>
<path d="M93.3252 37.9941C93.3252 37.9941 94.1744 46.261 94.8545 49.774C95.5345 53.2869 96.7347 53.7946 98.7059 54.929C100.677 56.0635 101.764 58.3762 101.937 58.724C102.109 59.0719 102.755 59.1095 102.755 59.1095C103.134 59.0779 103.5 58.9522 103.818 58.7437C104.136 58.5352 104.398 58.2506 104.579 57.9155" stroke="#263238" stroke-width="0.196606" stroke-linecap="round" stroke-linejoin="round"/>
<path d="M90.2604 41.7285C90.0473 42.0576 91.8649 50.4529 92.8113 52.8879C93.7577 55.3228 93.8642 55.7083 96.3681 56.3977C98.872 57.0871 100.774 58.2341 101.451 57.8298" stroke="#263238" stroke-width="0.196606" stroke-linecap="round" stroke-linejoin="round"/>
<path d="M107.649 37.0859C107.649 37.0859 108.95 40.2009 108.091 42.2504" stroke="#263238" stroke-width="0.196606" stroke-linecap="round" stroke-linejoin="round"/>
<path d="M112.463 33.3477C114.594 34.1902 116.787 34.8681 119.022 35.3752" stroke="#263238" stroke-width="0.196606" stroke-linecap="round" stroke-linejoin="round"/>
<path d="M121.074 44.1113C121.074 44.1113 120.078 45.932 118.567 46.3238" stroke="#263238" stroke-width="0.196606" stroke-linecap="round" stroke-linejoin="round"/>
<path d="M118.565 42.127C118.565 42.127 118.207 43.0671 117.828 43.3272" stroke="#263238" stroke-width="0.196606" stroke-linecap="round" stroke-linejoin="round"/>
<path d="M119.818 49.6055C119.818 49.6055 117.553 51.3196 115.378 51.7646" stroke="#263238" stroke-width="0.196606" stroke-linecap="round" stroke-linejoin="round"/>
<path d="M114.447 52.6094C114.447 52.6094 115.387 53.7971 117.829 53.9099" stroke="#263238" stroke-width="0.196606" stroke-linecap="round" stroke-linejoin="round"/>
<path d="M107.113 47.4112C107.113 47.4112 109.332 45.2803 110.598 45.5748" stroke="#263238" stroke-width="0.196606" stroke-linecap="round" stroke-linejoin="round"/>
<path d="M111.458 47.8438C111.458 47.8438 109.778 49.0973 109.471 49.0973" stroke="#263238" stroke-width="0.196606" stroke-linecap="round" stroke-linejoin="round"/>
<path d="M94.1621 54.4903C94.1621 54.4903 94.7199 54.5937 95.1555 53.9199" stroke="#263238" stroke-width="0.196606" stroke-linecap="round" stroke-linejoin="round"/>
<path d="M96.1455 51.4368C96.1455 51.4368 97.493 50.6032 98.3736 50.4434" stroke="#263238" stroke-width="0.196606" stroke-linecap="round" stroke-linejoin="round"/>
<path d="M108.017 79.7048C108.296 79.4572 110.9 77.3513 112.51 76.6055" stroke="#263238" stroke-width="0.196606" stroke-linecap="round" stroke-linejoin="round"/>
<path d="M111.395 78.7085C111.21 78.6521 109.731 80.2002 108.95 80.8207" stroke="#263238" stroke-width="0.196606" stroke-linecap="round" stroke-linejoin="round"/>
<path d="M112.128 83.2988C112.128 83.2988 117.089 92.7001 118.204 96.4607" stroke="#263238" stroke-width="0.196606" stroke-linecap="round" stroke-linejoin="round"/>
<path d="M126.656 70.0059C127.076 72.3154 128.439 74.0171 129.185 74.9384" stroke="#263238" stroke-width="0.196606" stroke-linecap="round" stroke-linejoin="round"/>
<path opacity="0.4" d="M111.019 41.7299C110.298 42.1749 111.056 43.629 111.457 44.3717C111.858 45.1144 113.651 46.2958 114.024 47.4114C114.397 48.5271 116.753 48.4957 117.471 47.4114C118.189 46.3271 118.098 44.1617 116.142 42.5133C114.187 40.865 112.043 41.1031 111.019 41.7299Z" fill="white"/>
<path d="M97.2572 104.183C94.0657 103.641 90.7845 104.195 87.9488 105.757C85.1131 107.319 82.8902 109.795 81.6425 112.782C80.3948 115.77 80.196 119.091 81.0786 122.206C81.9611 125.321 83.8729 128.044 86.5021 129.933" stroke="#263238" stroke-width="0.196606" stroke-linecap="round" stroke-linejoin="round"/>
<path d="M103.227 106.68C101.899 105.721 100.414 104.998 98.8398 104.543" stroke="#263238" stroke-width="0.196606" stroke-linecap="round" stroke-linejoin="round"/>
<path d="M101.785 130.825C103.717 129.756 105.375 128.254 106.629 126.437C107.884 124.621 108.701 122.539 109.017 120.354C109.334 118.169 109.14 115.94 108.452 113.843C107.764 111.745 106.6 109.835 105.051 108.262" stroke="#263238" stroke-width="0.196606" stroke-linecap="round" stroke-linejoin="round"/>
<path d="M102.478 135.342L103.331 136.094L102.002 131.541" stroke="#263238" stroke-width="0.196606" stroke-linecap="round" stroke-linejoin="round"/>
<path d="M92.4502 132.414C94.5571 132.775 96.7184 132.659 98.7742 132.072L101.472 134.454" stroke="#263238" stroke-width="0.196606" stroke-linecap="round" stroke-linejoin="round"/>
<path d="M89.166 131.443C89.7009 131.674 90.2493 131.872 90.8081 132.036" stroke="#263238" stroke-width="0.196606" stroke-linecap="round" stroke-linejoin="round"/>
<path d="M95.9846 111.334C97.7596 111.637 99.3568 112.594 100.462 114.016C101.567 115.438 102.099 117.222 101.955 119.017C101.81 120.812 100.999 122.488 99.6807 123.715C98.3625 124.942 96.6329 125.631 94.8322 125.646C93.0315 125.661 91.2902 125.002 89.9511 123.798C88.6121 122.594 87.7722 120.933 87.5968 119.141C87.4214 117.348 87.9232 115.555 89.0035 114.115C90.0838 112.674 91.6642 111.69 93.4338 111.356" stroke="#263238" stroke-width="0.196606" stroke-linecap="round" stroke-linejoin="round"/>
<path d="M93.4339 126.31C91.3466 125.954 89.4861 124.784 88.2614 123.057C87.0367 121.33 86.5481 119.187 86.9031 117.1" stroke="#263238" stroke-width="0.196606" stroke-linecap="round" stroke-linejoin="round"/>
<path d="M102.283 121.152C101.792 122.511 100.941 123.712 99.8212 124.626C98.7015 125.54 97.3549 126.133 95.9248 126.342" stroke="#263238" stroke-width="0.196606" stroke-linecap="round" stroke-linejoin="round"/>
<path d="M87.5176 115.108C88.3267 113.348 89.7475 111.943 91.5156 111.153C93.2836 110.363 95.2784 110.243 97.1286 110.815C98.9788 111.386 100.558 112.611 101.573 114.26C102.588 115.909 102.968 117.871 102.644 119.78" stroke="#263238" stroke-width="0.196606" stroke-linecap="round" stroke-linejoin="round"/>
<path d="M99.5664 115.562L99.6573 115.465" stroke="#263238" stroke-width="0.393212" stroke-linecap="round" stroke-linejoin="round"/>
<path d="M98.2881 116.94L98.9242 116.254" stroke="#263238" stroke-width="0.393212" stroke-linecap="round" stroke-linejoin="round"/>
<path d="M90.4824 117.953L93.5567 122.04L97.7308 117.543" stroke="#263238" stroke-width="0.393212" stroke-linecap="round" stroke-linejoin="round"/>
</svg>
