<svg width="9" height="9" viewBox="0 0 9 9" fill="none" xmlns="http://www.w3.org/2000/svg">
<path fill-rule="evenodd" clip-rule="evenodd" d="M4.5 9C5.09095 9 5.67611 8.8836 6.22208 8.65746C6.76804 8.43131 7.26412 8.09984 7.68198 7.68198C8.09984 7.26412 8.43131 6.76804 8.65746 6.22207C8.88361 5.67611 9 5.09095 9 4.5C9 3.90905 8.88361 3.32389 8.65746 2.77792C8.43131 2.23196 8.09984 1.73588 7.68198 1.31802C7.26412 0.900156 6.76804 0.568688 6.22208 0.342542C5.67611 0.116396 5.09095 -8.80582e-09 4.5 0C3.30653 1.77842e-08 2.16193 0.474106 1.31802 1.31802C0.474106 2.16193 0 3.30653 0 4.5C0 5.69347 0.474106 6.83807 1.31802 7.68198C2.16193 8.52589 3.30653 9 4.5 9ZM4.384 6.32L6.884 3.32L6.116 2.68L3.966 5.2595L2.8535 4.1465L2.1465 4.8535L3.6465 6.3535L4.0335 6.7405L4.384 6.32Z" fill="#1E1E1E"/>
</svg>
