<svg width="16" height="16" viewBox="0 0 16 16" fill="none" xmlns="http://www.w3.org/2000/svg">
<path d="M9.4999 2.67275C9.4999 2.80536 9.55258 2.93254 9.64635 3.0263C9.74012 3.12007 9.8673 3.17275 9.9999 3.17275C10.1325 3.17275 10.2597 3.12007 10.3535 3.0263C10.4472 2.93254 10.4999 2.80536 10.4999 2.67275V0.84375C10.4999 0.711142 10.4472 0.583965 10.3535 0.490197C10.2597 0.396428 10.1325 0.34375 9.9999 0.34375C9.8673 0.34375 9.74012 0.396428 9.64635 0.490197C9.55258 0.583965 9.4999 0.711142 9.4999 0.84375V2.67275ZM13.9999 2.70775C14.091 2.61345 14.1414 2.48715 14.1402 2.35605C14.1391 2.22495 14.0865 2.09954 13.9938 2.00684C13.9011 1.91414 13.7757 1.86155 13.6446 1.86041C13.5135 1.85927 13.3872 1.90967 13.2929 2.00075L11.9999 3.29375C11.9521 3.33987 11.9141 3.39505 11.8879 3.45605C11.8616 3.51705 11.8479 3.58266 11.8473 3.64905C11.8467 3.71544 11.8594 3.78128 11.8845 3.84273C11.9096 3.90418 11.9468 3.96 11.9937 4.00695C12.0407 4.05389 12.0965 4.09102 12.1579 4.11616C12.2194 4.1413 12.2852 4.15395 12.3516 4.15338C12.418 4.1528 12.4836 4.13901 12.5446 4.1128C12.6056 4.0866 12.6608 4.04851 12.7069 4.00075L13.9999 2.70775ZM7.29291 4.00075C7.33903 4.04851 7.3942 4.0866 7.4552 4.1128C7.5162 4.13901 7.58181 4.1528 7.6482 4.15338C7.71459 4.15395 7.78043 4.1413 7.84188 4.11616C7.90333 4.09102 7.95916 4.05389 8.0061 4.00695C8.05305 3.96 8.09018 3.90418 8.11532 3.84273C8.14046 3.78128 8.15311 3.71544 8.15253 3.64905C8.15195 3.58266 8.13816 3.51705 8.11196 3.45605C8.08575 3.39505 8.04766 3.33987 7.99991 3.29375L6.7069 2.00075C6.6126 1.90967 6.4863 1.85927 6.3552 1.86041C6.22411 1.86155 6.0987 1.91414 6.006 2.00684C5.91329 2.09954 5.86071 2.22495 5.85957 2.35605C5.85843 2.48715 5.90883 2.61345 5.99991 2.70775L7.29291 4.00075ZM6.67191 6.50075C6.80451 6.50075 6.93169 6.44807 7.02546 6.3543C7.11923 6.26054 7.17191 6.13336 7.17191 6.00075C7.17191 5.86814 7.11923 5.74096 7.02546 5.6472C6.93169 5.55343 6.80451 5.50075 6.67191 5.50075H4.84291C4.7103 5.50075 4.58312 5.55343 4.48935 5.6472C4.39558 5.74096 4.3429 5.86814 4.3429 6.00075C4.3429 6.13336 4.39558 6.26054 4.48935 6.3543C4.58312 6.44807 4.7103 6.50075 4.84291 6.50075H6.67191ZM15.1569 6.50075C15.2895 6.50075 15.4167 6.44807 15.5105 6.3543C15.6042 6.26054 15.6569 6.13336 15.6569 6.00075C15.6569 5.86814 15.6042 5.74096 15.5105 5.6472C15.4167 5.55343 15.2895 5.50075 15.1569 5.50075H13.3279C13.1953 5.50075 13.0681 5.55343 12.9744 5.6472C12.8806 5.74096 12.8279 5.86814 12.8279 6.00075C12.8279 6.13336 12.8806 6.26054 12.9744 6.3543C13.0681 6.44807 13.1953 6.50075 13.3279 6.50075H15.1569ZM13.2929 10.0007C13.339 10.0485 13.3942 10.0866 13.4552 10.1128C13.5162 10.139 13.5818 10.1528 13.6482 10.1534C13.7146 10.154 13.7804 10.1413 13.8419 10.1162C13.9033 10.091 13.9592 10.0539 14.0061 10.0069C14.053 9.96 14.0902 9.90417 14.1153 9.84273C14.1405 9.78128 14.1531 9.71544 14.1525 9.64905C14.152 9.58266 14.1382 9.51705 14.112 9.45605C14.0858 9.39505 14.0477 9.33987 13.9999 9.29375L12.7069 8.00075C12.6608 7.95299 12.6056 7.9149 12.5446 7.8887C12.4836 7.86249 12.418 7.8487 12.3516 7.84812C12.2852 7.84755 12.2194 7.8602 12.1579 7.88534C12.0965 7.91048 12.0407 7.94761 11.9937 7.99455C11.9468 8.0415 11.9096 8.09732 11.8845 8.15877C11.8594 8.22022 11.8467 8.28606 11.8473 8.35245C11.8479 8.41884 11.8616 8.48445 11.8879 8.54545C11.9141 8.60645 11.9521 8.66163 11.9999 8.70775L13.2929 10.0007ZM9.4999 11.1577C9.4999 11.2904 9.55258 11.4175 9.64635 11.5113C9.74012 11.6051 9.8673 11.6577 9.9999 11.6577C10.1325 11.6577 10.2597 11.6051 10.3535 11.5113C10.4472 11.4175 10.4999 11.2904 10.4999 11.1577V9.32875C10.4999 9.19614 10.4472 9.06896 10.3535 8.9752C10.2597 8.88143 10.1325 8.82875 9.9999 8.82875C9.8673 8.82875 9.74012 8.88143 9.64635 8.9752C9.55258 9.06896 9.4999 9.19614 9.4999 9.32875V11.1577ZM11.3539 6.06075C11.4473 5.96703 11.4998 5.84009 11.4998 5.70775C11.4998 5.57541 11.4473 5.44847 11.3539 5.35475L10.6459 4.64675C10.5521 4.55301 10.425 4.50036 10.2924 4.50036C10.1598 4.50036 10.0327 4.55301 9.9389 4.64675L8.6459 5.94075C8.55217 6.03451 8.49951 6.16167 8.49951 6.29425C8.49951 6.42683 8.55217 6.55399 8.6459 6.64775L9.3539 7.35575C9.44767 7.44949 9.57482 7.50214 9.70741 7.50214C9.83999 7.50214 9.96714 7.44949 10.0609 7.35575L11.3539 6.06275V6.06075ZM8.35391 9.06075C8.44734 8.96703 8.4998 8.84009 8.4998 8.70775C8.4998 8.57541 8.44734 8.44847 8.35391 8.35475L7.64591 7.64675C7.55214 7.55301 7.42499 7.50036 7.29241 7.50036C7.15982 7.50036 7.03267 7.55301 6.93891 7.64675L0.645905 13.9407C0.552169 14.0345 0.499512 14.1617 0.499512 14.2942C0.499512 14.4268 0.552169 14.554 0.645905 14.6477L1.3539 15.3557C1.44767 15.4495 1.57482 15.5021 1.7074 15.5021C1.83999 15.5021 1.96714 15.4495 2.06091 15.3557L8.35391 9.06075Z" fill="#FDFDFD"/>
</svg>
