<svg width="12" height="12" viewBox="0 0 12 12" fill="none" xmlns="http://www.w3.org/2000/svg">
<path d="M6 0.75C4.96165 0.75 3.94662 1.05791 3.08326 1.63478C2.2199 2.21166 1.54699 3.0316 1.14963 3.99091C0.752275 4.95022 0.648307 6.00582 0.85088 7.02422C1.05345 8.04262 1.55347 8.97808 2.28769 9.71231C3.02192 10.4465 3.95738 10.9466 4.97578 11.1491C5.99418 11.3517 7.04978 11.2477 8.00909 10.8504C8.9684 10.453 9.78834 9.7801 10.3652 8.91674C10.9421 8.05339 11.25 7.03835 11.25 6C11.2484 4.6081 10.6948 3.27367 9.71056 2.28944C8.72634 1.30522 7.3919 0.751588 6 0.75ZM6 10.5C4.80653 10.5 3.66194 10.0259 2.81802 9.18198C1.97411 8.33807 1.5 7.19347 1.5 6C1.5 4.80653 1.97411 3.66193 2.81802 2.81802C3.66194 1.97411 4.80653 1.5 6 1.5V6L9.18038 9.18038C8.76333 9.599 8.26767 9.93109 7.72187 10.1576C7.17608 10.384 6.59091 10.5004 6 10.5Z" fill="#9D8BF9"/>
</svg>
