<svg width="18" height="18" viewBox="0 0 18 18" fill="none" xmlns="http://www.w3.org/2000/svg">
<path d="M8.75 0C7.01942 0 5.32769 0.513179 3.88876 1.47464C2.44983 2.4361 1.32832 3.80267 0.666058 5.40152C0.00379123 7.00037 -0.169488 8.75971 0.168133 10.457C0.505753 12.1544 1.33911 13.7135 2.56282 14.9372C3.78653 16.1609 5.34563 16.9943 7.04296 17.3319C8.7403 17.6695 10.4996 17.4962 12.0985 16.8339C13.6973 16.1717 15.0639 15.0502 16.0254 13.6112C16.9868 12.1723 17.5 10.4806 17.5 8.75C17.4974 6.43017 16.5746 4.20611 14.9343 2.56574C13.2939 0.925369 11.0698 0.0026467 8.75 0ZM8.75 16.25C6.76088 16.25 4.85323 15.4598 3.4467 14.0533C2.04018 12.6468 1.25 10.7391 1.25 8.75C1.25 6.76088 2.04018 4.85322 3.4467 3.4467C4.85323 2.04018 6.76088 1.25 8.75 1.25V8.75L14.0506 14.0506C13.3555 14.7483 12.5294 15.3018 11.6198 15.6793C10.7101 16.0567 9.73486 16.2507 8.75 16.25Z" fill="#9D8BF9"/>
</svg>
