<svg width="11" height="11" viewBox="0 0 11 11" fill="none" xmlns="http://www.w3.org/2000/svg">
<path d="M5.25 0C4.21165 0 3.19662 0.307907 2.33326 0.884785C1.4699 1.46166 0.796995 2.2816 0.399635 3.24091C0.00227474 4.20022 -0.101693 5.25582 0.10088 6.27422C0.303452 7.29262 0.803466 8.22808 1.53769 8.96231C2.27192 9.69654 3.20738 10.1966 4.22578 10.3991C5.24418 10.6017 6.29978 10.4977 7.25909 10.1004C8.2184 9.70301 9.03834 9.0301 9.61522 8.16674C10.1921 7.30339 10.5 6.28835 10.5 5.25C10.4984 3.8581 9.94478 2.52367 8.96056 1.53944C7.97634 0.555221 6.6419 0.00158802 5.25 0ZM5.25 9.75C4.05653 9.75 2.91194 9.27589 2.06802 8.43198C1.22411 7.58807 0.750002 6.44347 0.750002 5.25C0.750002 4.05653 1.22411 2.91193 2.06802 2.06802C2.91194 1.22411 4.05653 0.75 5.25 0.75V5.25L8.43038 8.43038C8.01333 8.849 7.51767 9.18109 6.97187 9.40755C6.42608 9.63402 5.84091 9.7504 5.25 9.75Z" fill="#1E1E1E"/>
</svg>
