<svg width="228" height="131" viewBox="0 0 228 131" fill="none" xmlns="http://www.w3.org/2000/svg">
<path d="M142.482 5.46115C140.091 5.22566 136.851 9.21877 139.196 11.1385C140.496 12.2034 143.327 11.7426 143.291 9.75119C143.285 9.69595 143.262 9.64411 143.224 9.60348C143.186 9.56284 143.136 9.53563 143.081 9.52593C141.202 9.09591 139.339 9.90477 139.656 12.0856C139.827 13.0258 140.311 13.8804 141.029 14.5099C141.748 15.1393 142.659 15.5065 143.614 15.5514C143.726 15.5514 143.685 15.3569 143.614 15.3364C141.975 14.9934 140.429 13.9747 140.107 12.2238C140.034 11.914 140.028 11.5922 140.089 11.2798C140.15 10.9673 140.276 10.6714 140.46 10.4116C140.679 10.1484 140.968 9.95308 141.294 9.84846C141.576 9.76143 142.585 9.60273 142.83 9.84846C143.271 10.3041 142.073 11.0771 141.714 11.2C141.36 11.327 140.983 11.3744 140.609 11.339C140.234 11.3037 139.873 11.1863 139.549 10.9952C138.556 10.299 138.801 8.9884 139.283 8.06179C139.933 6.80754 141.069 5.78879 142.533 5.7376C142.666 5.7376 142.595 5.48674 142.492 5.47651L142.482 5.46115Z" fill="#FDFDFD"/>
<path d="M143.277 84.1161C144.029 82.4216 143.947 80.6656 146.138 80.1076C147.101 79.8619 149.379 79.6366 150.101 80.4916C150.232 80.698 150.286 80.9448 150.251 81.1871C150.216 81.4294 150.096 81.6512 149.911 81.8124C149.343 82.3243 148.918 81.71 148.77 81.1673C148.656 80.6663 148.7 80.1421 148.896 79.6672C149.092 79.1922 149.431 78.7898 149.865 78.5155C150.785 77.91 151.897 77.6709 152.984 77.8452C154.071 78.0196 155.053 78.5948 155.737 79.4575C155.819 79.5599 155.906 79.4575 155.87 79.3448C154.191 75.4797 146.144 78.1674 148.703 81.8738C149.487 82.995 150.869 82.0069 150.608 80.8192C150.321 79.5035 148.079 79.5701 147.086 79.6366C146.079 79.6372 145.109 80.0112 144.362 80.6861C143.487 81.5462 143.369 82.9079 143.185 84.0649C143.185 84.1161 143.231 84.1929 143.266 84.1161H143.277Z" fill="#FDFDFD"/>
<path d="M200.68 1.00381C202.251 0.543066 204.412 0.67105 205.727 1.73076C206.751 2.54986 207.324 4.32629 205.825 4.93549C205.236 5.17099 203.296 5.17098 203.065 4.37236C202.901 3.81435 203.5 3.48159 203.982 3.40992C205.389 3.18979 206.71 4.6744 206.674 6.00032C206.628 7.99176 204.309 8.65216 202.671 8.66752C202.563 8.66752 202.589 8.87229 202.671 8.87741C205.461 9.14874 208.574 6.56346 206.091 3.97305C205.425 3.27681 204.381 2.78023 203.418 3.16419C202.876 3.38432 202.446 3.87578 202.717 4.46451C203.152 5.4116 204.903 5.57542 205.753 5.33481C205.978 5.27487 206.189 5.16935 206.372 5.02479C206.555 4.88023 206.706 4.69968 206.816 4.49432C206.927 4.28896 206.994 4.06315 207.013 3.83084C207.033 3.59854 207.005 3.36467 206.93 3.14371C206.244 0.624977 202.717 0.0720831 200.628 0.855348C200.567 0.855348 200.593 1.02429 200.664 1.00381H200.68Z" fill="#FDFDFD"/>
<path d="M221.274 106.682C222.846 106.222 225.006 106.35 226.322 107.409C227.346 108.228 227.919 110.005 226.419 110.614C225.83 110.85 223.89 110.85 223.66 110.046C223.496 109.493 224.095 109.16 224.571 109.083C225.984 108.868 227.3 110.353 227.269 111.679C227.223 113.67 224.904 114.331 223.266 114.346C223.158 114.346 223.184 114.551 223.266 114.556C226.056 114.827 229.168 112.242 226.685 109.652C226.02 108.955 224.976 108.459 224.013 108.843C223.47 109.058 223.04 109.554 223.312 110.143C223.747 111.09 225.498 111.254 226.348 111.008C226.573 110.95 226.784 110.845 226.967 110.701C227.151 110.557 227.302 110.377 227.413 110.172C227.523 109.967 227.59 109.741 227.61 109.509C227.629 109.277 227.6 109.043 227.525 108.822C226.839 106.298 223.312 105.751 221.223 106.534C221.162 106.534 221.182 106.703 221.259 106.682H221.274Z" fill="#FDFDFD"/>
<path d="M209.756 30.1369C207.883 30.6949 206.142 33.9918 207.883 35.4918C209.362 36.7665 212.352 36.4798 211.855 34.0481C211.851 34.0204 211.839 33.9944 211.821 33.9728C211.803 33.9512 211.779 33.9348 211.753 33.9252C209.787 33.4543 209.137 35.7477 209.552 37.2631C210.192 39.618 212.567 39.5873 214.282 38.3586C214.338 38.3177 214.313 38.1538 214.231 38.1948C212.828 38.8962 210.862 39.5207 210.007 37.7289C209.552 36.7716 209.536 35.1692 210.417 34.4474C210.646 34.2337 210.948 34.1163 211.262 34.1198C211.917 34.1966 211.804 34.903 211.436 35.3535C210.847 36.0703 209.664 35.9935 208.876 35.717C206.178 34.7597 208.031 31.2632 209.792 30.2802C209.843 30.2495 209.833 30.1164 209.756 30.1369Z" fill="#FDFDFD"/>
<path d="M168.089 21.8991C165.878 21.6175 161.122 23.481 162.361 26.5065C163.021 28.1191 165.97 29.1533 166.938 27.3052C166.958 27.2548 166.959 27.1984 166.939 27.1478C166.919 27.0971 166.88 27.0563 166.83 27.0338C162.223 24.423 157.37 31.9638 162.259 34.7129C162.412 34.7999 162.407 34.5388 162.32 34.4723C161.898 34.1835 161.538 33.8135 161.261 33.3839C160.984 32.9542 160.795 32.4737 160.706 31.9703C160.617 31.4669 160.629 30.9508 160.742 30.4521C160.855 29.9535 161.066 29.4823 161.363 29.0662C161.861 28.271 162.57 27.6295 163.41 27.213C164.04 26.9161 165.622 26.4963 166.211 27.1106C166.477 27.3973 166.472 27.039 166.334 27.3717C166.202 27.5694 166.001 27.7101 165.77 27.7659C165.268 27.9255 164.725 27.9075 164.235 27.7147C163.211 27.3564 162.407 26.4144 162.699 25.283C163.236 23.0151 166.124 22.2114 168.146 22.1755C168.284 22.1755 168.197 21.9145 168.089 21.8991Z" fill="#FDFDFD"/>
<path d="M178.154 1.49023C178.154 1.49023 178.021 3.96801 179.859 5.34513L181.784 4.7564C181.784 4.7564 180.499 4.14207 179.859 1.49023H178.154Z" fill="#FDFDFD"/>
<path d="M145.729 61.4727C145.729 61.4727 145.591 63.9504 147.429 65.3275L149.359 64.7388C149.359 64.7388 148.068 64.1245 147.429 61.4727H145.729Z" fill="#FDFDFD"/>
<path d="M161.465 89.3945C161.465 89.3945 161.327 91.8672 163.17 93.2443L165.094 92.6607C165.094 92.6607 163.809 92.0413 163.17 89.3945H161.465Z" fill="#FDFDFD"/>
<path d="M221.803 13.9045C221.803 13.9045 220.677 16.1161 218.399 16.3874L217.021 14.913C217.021 14.913 218.445 15.0256 220.329 13.0547L221.803 13.9045Z" fill="#FDFDFD"/>
<path d="M208.599 92.978C208.599 92.978 207.478 95.1896 205.194 95.4558L203.817 93.9865C203.817 93.9865 205.246 94.094 207.124 92.123L208.599 92.978Z" fill="#FDFDFD"/>
<path d="M177.089 46.5307C177.089 46.5307 175.967 48.7423 173.684 49.0085L172.307 47.5392C172.307 47.5392 173.735 47.6467 175.614 45.6758L177.089 46.5307Z" fill="#FDFDFD"/>
<path d="M156.606 19.2385C156.606 19.2385 155.485 21.4501 153.207 21.7214L151.83 20.247C151.83 20.247 153.253 20.3596 155.137 18.3887L156.606 19.2385Z" fill="#FDFDFD"/>
<path d="M199.145 22.5653C199.145 22.5653 196.682 22.8724 195.182 21.1267L195.638 19.166C195.638 19.166 196.339 20.41 199.027 20.8656L199.145 22.5653Z" fill="#FDFDFD"/>
<path d="M163.442 10.4781C163.442 10.4781 160.985 10.7853 159.485 9.04471L159.935 7.08398C159.935 7.08398 160.642 8.32288 163.33 8.78362L163.442 10.4781Z" fill="#FDFDFD"/>
<path d="M122.041 5.10313C122.041 5.10313 119.583 5.4103 118.083 3.66971L118.534 1.70898C118.534 1.70898 119.24 2.94788 121.923 3.40862L122.041 5.10313Z" fill="#FDFDFD"/>
<path d="M151.497 38.1336C151.497 38.1336 149.04 38.4357 147.54 36.6951L147.991 34.7344C147.991 34.7344 148.697 35.9784 151.385 36.434L151.497 38.1336Z" fill="#FDFDFD"/>
<path d="M225.16 56.4657C225.16 56.4657 222.698 56.7677 221.203 55.0271L221.654 53.0664C221.654 53.0664 222.36 54.3104 225.043 54.766L225.16 56.4657Z" fill="#FDFDFD"/>
<path d="M182.286 31.6525C182.286 31.6525 181.165 33.8641 178.882 34.1354L177.504 32.661C177.504 32.661 179.189 32.9221 181.088 30.9512L182.286 31.6525Z" fill="#FDFDFD"/>
<path d="M184.764 34.9187C184.764 34.9187 184.324 37.3606 182.204 38.2719L180.464 37.248C181.695 36.6923 182.719 35.7603 183.387 34.5859L184.764 34.9187Z" fill="#FDFDFD"/>
<path d="M98.2361 3.5471C100.632 3.31161 103.867 7.2996 101.523 9.21937C100.228 10.2893 97.3914 9.82346 97.4273 7.83202C97.4341 7.77771 97.4582 7.72702 97.496 7.68739C97.5338 7.64777 97.5832 7.62131 97.6372 7.61189C99.5211 7.18186 101.379 7.9856 101.062 10.1716C100.893 11.1108 100.409 11.9646 99.6913 12.5933C98.9734 13.222 98.0632 13.5883 97.1099 13.6323C96.9921 13.6323 97.0331 13.4377 97.1099 13.4224C98.7481 13.0743 100.294 12.0555 100.612 10.3047C100.686 9.99574 100.692 9.67449 100.631 9.3627C100.57 9.0509 100.443 8.75585 100.258 8.49754C100.037 8.2253 99.7392 8.02559 99.4034 7.92417C99.1269 7.83714 98.1133 7.67844 97.8931 7.92417C97.4478 8.38491 98.6508 9.15282 99.0092 9.27568C99.3618 9.40437 99.7388 9.45277 100.112 9.41734C100.486 9.38192 100.847 9.26356 101.17 9.07091C102.163 8.37979 101.917 7.06923 101.436 6.1375C100.791 4.88838 99.6491 3.8645 98.1849 3.81843C98.057 3.81843 98.1235 3.56758 98.2259 3.55734L98.2361 3.5471Z" fill="#FDFDFD"/>
<path d="M94.3964 87.4638C93.6438 85.7693 93.7206 84.0133 91.5347 83.4502C90.5722 83.2044 88.2941 82.9792 87.5671 83.8392C87.437 84.0452 87.3846 84.2909 87.4193 84.532C87.454 84.7732 87.5736 84.994 87.7566 85.1549C88.3299 85.6669 88.7804 85.0525 88.9033 84.515C89.018 84.0132 88.9742 83.4882 88.778 83.0123C88.5817 82.5365 88.2428 82.1332 87.8077 81.8581C86.8857 81.2456 85.7667 81.003 84.6738 81.1785C83.5809 81.354 82.5942 81.9348 81.9102 82.8051C81.8334 82.9024 81.7464 82.8051 81.7822 82.6925C83.4614 78.8274 91.5091 81.515 88.9494 85.2215C88.1661 86.3426 86.7788 85.3495 87.0398 84.1669C87.3316 82.8512 89.5995 82.9178 90.562 82.9792C91.5696 82.9814 92.5411 83.3551 93.2906 84.0287C94.166 84.8938 94.2838 86.2556 94.4681 87.4075C94.4681 87.4638 94.422 87.5354 94.3861 87.4638H94.3964Z" fill="#FDFDFD"/>
<path d="M31.4848 1.00381C29.9131 0.543066 27.7528 0.67105 26.432 1.73076C25.4081 2.54986 24.8398 4.32629 26.3398 4.93549C26.9285 5.17099 28.8688 5.17098 29.0992 4.37236C29.263 3.81435 28.664 3.48159 28.1828 3.40992C26.775 3.18979 25.4542 4.6744 25.4849 6.00032C25.5361 7.99176 27.8551 8.65216 29.4934 8.66752C29.6009 8.66752 29.5753 8.87229 29.4934 8.87741C26.7033 9.14874 23.5907 6.56346 26.0685 3.97305C26.7391 3.27681 27.7835 2.78023 28.7459 3.16419C29.2886 3.38432 29.7186 3.87578 29.4473 4.46451C29.0121 5.4116 27.2613 5.57542 26.4115 5.33481C26.1862 5.27487 25.9756 5.16935 25.7927 5.02479C25.6098 4.88023 25.4585 4.69968 25.3481 4.49432C25.2378 4.28896 25.1707 4.06315 25.1511 3.83084C25.1314 3.59854 25.1597 3.36467 25.234 3.14371C25.92 0.624977 29.4422 0.0720831 31.536 0.855348C31.5974 0.855348 31.5718 1.02429 31.5001 1.00381H31.4848Z" fill="#FDFDFD"/>
<path d="M13.2018 104.788C11.6301 104.327 9.46975 104.455 8.14895 105.515C7.12507 106.334 6.5517 108.11 8.0568 108.719C8.64553 108.955 10.5807 108.955 10.8161 108.156C10.9748 107.598 10.3759 107.265 9.89978 107.194C8.48683 106.974 7.17115 108.458 7.20187 109.784C7.24794 111.776 9.56702 112.436 11.2052 112.451C11.3178 112.451 11.2871 112.656 11.2052 112.666C8.41516 112.933 5.30258 110.347 7.78036 107.757C8.45099 107.061 9.49023 106.564 10.4527 106.948C11.0004 107.168 11.4305 107.66 11.1591 108.248C10.724 109.195 8.96805 109.359 8.11823 109.119C7.89299 109.059 7.68246 108.953 7.49972 108.809C7.31699 108.664 7.16595 108.483 7.05601 108.278C6.94606 108.072 6.87955 107.846 6.8606 107.614C6.84166 107.382 6.87069 107.148 6.9459 106.928C7.62677 104.409 11.154 103.882 13.2479 104.639C13.3093 104.639 13.2837 104.808 13.212 104.788H13.2018Z" fill="#FDFDFD"/>
<path d="M17.232 31.0842C19.1057 31.6422 20.8463 34.9391 19.1057 36.439C17.6262 37.7189 14.6364 37.4271 15.133 34.9954C15.1386 34.968 15.1509 34.9425 15.1688 34.9211C15.1866 34.8996 15.2095 34.8829 15.2354 34.8725C17.2013 34.4066 17.8514 36.7001 17.4367 38.2155C16.7968 40.5653 14.4214 40.5397 12.7064 39.3059C12.6501 39.2649 12.6757 39.1062 12.7576 39.1472C14.1603 39.8485 16.1262 40.468 16.9811 38.6762C17.4367 37.7189 17.4521 36.1165 16.5716 35.3998C16.3431 35.1847 16.0407 35.0655 15.7269 35.067C15.0716 35.1438 15.1842 35.8554 15.5528 36.3008C16.1415 37.0175 17.3241 36.9407 18.1125 36.6643C20.8104 35.7121 18.9572 32.2104 17.1961 31.2275C17.1449 31.1968 17.1552 31.0637 17.232 31.0842Z" fill="#FDFDFD"/>
<path d="M23.1865 73.0122C19.9971 73.2681 20.5705 79.3244 23.1456 80.1435C23.3038 80.2001 23.4717 80.2247 23.6396 80.2159C23.8074 80.2071 23.9719 80.1651 24.1234 80.0923C24.3123 79.9533 24.4639 79.7699 24.5649 79.5582C24.6658 79.3465 24.7128 79.1132 24.7018 78.879C24.3947 77.8551 22.6541 79.1554 22.4544 79.5599C22.123 80.0928 21.9683 80.7168 22.0124 81.3428C22.0566 81.9689 22.2973 82.565 22.7002 83.0461C24.0107 84.4642 26.5192 84.5103 28.1574 83.6912C28.2393 83.6451 28.2547 83.8038 28.1984 83.8448C26.4322 84.9762 23.4732 84.8123 22.1626 83.0205C21.1388 81.5871 21.8401 77.7834 24.1234 78.1213C26.253 78.4336 24.7786 80.8602 23.166 80.5377C21.5534 80.2151 20.9698 78.0752 20.8162 76.7493C20.6217 75.0804 21.1183 72.8279 23.1865 72.8637C23.2531 72.8637 23.2479 73.007 23.1865 73.0122Z" fill="#FDFDFD"/>
<path d="M63.2399 21.8991C65.4515 21.6175 70.2074 23.481 68.9685 26.5065C68.3081 28.1191 65.3593 29.1533 64.3918 27.3052C64.371 27.2548 64.3706 27.1984 64.3907 27.1478C64.4107 27.0971 64.4497 27.0563 64.4993 27.0338C69.1067 24.423 73.9599 31.9638 69.0709 34.7129C68.9173 34.7999 68.9224 34.5388 69.0095 34.4723C69.432 34.1835 69.7926 33.8132 70.0702 33.3832C70.3478 32.9531 70.5367 32.472 70.6259 31.968C70.715 31.464 70.7027 30.9472 70.5895 30.4481C70.4763 29.9489 70.2646 29.4774 69.9668 29.0611C69.4687 28.2659 68.7598 27.6244 67.919 27.2079C67.2893 26.911 65.7074 26.4912 65.1187 27.1055C64.8525 27.3922 64.8576 27.0338 64.9959 27.3666C65.1272 27.5642 65.3283 27.705 65.559 27.7608C66.0616 27.9204 66.6039 27.9023 67.0948 27.7096C68.1187 27.3512 68.9224 26.4093 68.6306 25.2779C68.0931 23.01 65.2057 22.2063 63.1836 22.1704C63.0454 22.1704 63.1324 21.9093 63.2399 21.894V21.8991Z" fill="#FDFDFD"/>
<path d="M54.2654 5.9934C54.2654 5.9934 54.4036 8.47118 52.5606 9.84829L50.6357 9.25445C50.6357 9.25445 51.9207 8.64012 52.5606 5.98828L54.2654 5.9934Z" fill="#FDFDFD"/>
<path d="M94.0486 67.3145C94.0486 67.3145 94.1868 69.7922 92.3438 71.1693L90.4189 70.5857C90.4189 70.5857 91.7039 69.9663 92.3438 67.3145H94.0486Z" fill="#FDFDFD"/>
<path d="M86.4417 96.9297C86.4417 96.9297 86.5748 99.4075 84.7369 100.785L82.812 100.196C82.812 100.196 84.097 99.5815 84.7369 96.9297H86.4417Z" fill="#FDFDFD"/>
<path d="M9.52686 13.9045C9.52686 13.9045 10.6531 16.1161 12.9312 16.3874L14.334 14.913C14.334 14.913 12.9108 15.0256 11.0268 13.0547L9.52686 13.9045Z" fill="#FDFDFD"/>
<path d="M33.3418 90.2795C33.3418 90.2795 34.4629 92.4911 36.7462 92.7624L38.1233 91.288C38.1233 91.288 36.695 91.4006 34.8162 89.4297L33.3418 90.2795Z" fill="#FDFDFD"/>
<path d="M57.5869 49.3967C57.5869 49.3967 58.7081 51.6083 60.9913 51.8796L62.3633 50.4052C62.3633 50.4052 60.9401 50.5178 59.0613 48.5469L57.5869 49.3967Z" fill="#FDFDFD"/>
<path d="M79.8623 20.4514C79.8623 20.4514 80.9834 22.663 83.2667 22.9343L84.6387 21.4599C84.6387 21.4599 83.2155 21.5725 81.3367 19.6016L79.8623 20.4514Z" fill="#FDFDFD"/>
<path d="M32.1802 22.5653C32.1802 22.5653 34.6426 22.8724 36.1426 21.1267L35.6869 19.166C35.6869 19.166 34.9856 20.41 32.2979 20.8656L32.1802 22.5653Z" fill="#FDFDFD"/>
<path d="M74.231 3.39415C74.231 3.39415 76.6934 3.70131 78.1934 1.96072L77.7429 0C77.7429 0 77.0364 1.23889 74.3487 1.69964L74.231 3.39415Z" fill="#FDFDFD"/>
<path d="M79.8164 36.0653C79.8164 36.0653 82.2737 36.3673 83.7737 34.6267L83.3232 32.666C83.3232 32.666 82.6167 33.91 79.929 34.3656L79.8164 36.0653Z" fill="#FDFDFD"/>
<path d="M0 84.7469C0 84.7469 2.46242 85.0541 3.9624 83.3135L3.51189 81.3477C3.51189 81.3477 2.80542 82.5917 0.117745 83.0473L0 84.7469Z" fill="#FDFDFD"/>
<path d="M49.0439 31.6525C49.0439 31.6525 50.1651 33.8641 52.4483 34.1354L53.8254 32.661C53.8254 32.661 52.1412 32.9221 50.2419 30.9512L49.0439 31.6525Z" fill="#FDFDFD"/>
<path d="M46.5864 34.9187C46.5864 34.9187 47.0267 37.3606 49.1461 38.2719L50.8867 37.248C49.6552 36.6923 48.6317 35.7603 47.9635 34.5859L46.5864 34.9187Z" fill="#FDFDFD"/>
<path d="M127.41 22.176C127.41 22.176 126.289 24.3875 124.006 24.6589L122.629 23.1896C122.629 23.1896 124.313 23.4456 126.212 21.4746L127.41 22.176Z" fill="#FDFDFD"/>
<path d="M116.375 19.5242C116.375 19.5242 115.934 21.9661 113.815 22.8825L112.074 21.8586C113.307 21.3022 114.331 20.3681 114.997 19.1914L116.375 19.5242Z" fill="#FDFDFD"/>
<g filter="url(#filter0_d_265_6480)">
<path d="M114.085 56.0359C114.869 58.3828 116.051 60.5774 117.578 62.524C124.512 70.8216 131.535 75.1854 135.112 82.5599C139.219 82.0354 144.553 74.9232 141.254 70.8478C137.661 69.568 124.271 55.3698 123.028 53.3033C121.895 51.1476 118.092 41.2398 117.2 37.4949C117.066 36.8667 117.163 36.2112 117.473 35.6486C118.344 34.0017 118.234 32.2394 118.627 30.5767C118.937 29.2759 119.492 28.6728 119.235 28.4787C118.91 28.2759 118.521 28.2031 118.145 28.2751C117.768 28.3471 117.433 28.5584 117.206 28.8668C116.622 29.6921 116.116 30.5701 115.695 31.4893C115.574 29.9868 115.564 28.4774 115.664 26.9734C115.884 23.5064 115.087 20.9311 111.247 23.134C108.84 24.5135 107.492 28.0591 108.777 34.3951C109.149 36.2151 109.826 40.4688 110.476 43.086C111.688 47.9219 112.396 51.6511 114.085 56.0359Z" fill="#B16668"/>
<path d="M143.41 70.8591C141.784 70.0881 139.833 69.4639 137.688 67.7121C135.448 65.8868 132.668 63.8203 132.668 63.8203C132.668 63.8203 127.785 67.7908 127.9 73.6547C129.7 75.4631 131.262 77.4936 132.548 79.6969C133.517 81.4 134.278 83.2139 134.813 85.0993C134.813 85.0993 140.21 86.1483 141.197 80.3368C141.716 77.1305 142.455 73.9638 143.41 70.8591Z" fill="#FDFDFD"/>
<path d="M134.824 98.4571C134.624 96.742 134.677 93.5582 134.64 92.6876C130.114 88.822 131.829 84.6784 133.261 81.3374C136.13 74.6657 139.03 70.8159 141.883 70.7949L149.751 71.0257C153.816 71.0991 158.51 71.3247 159.554 71.503C162.213 71.9593 163.451 74.65 163.75 77.4456C164.059 80.4982 164.773 80.7342 164.274 85.8376C164.274 85.8376 162.444 91.0826 160.807 95.7297C160.807 95.7297 160.215 99.1547 160.807 100.749C161.898 103.702 163.467 110.552 164.012 115.53C164.012 115.53 161.122 119.626 148.046 119.621C138.537 119.621 131.262 114.643 131.262 114.643L134.824 98.4571Z" fill="#FDFDFD"/>
<path d="M162.474 81.1553C162.474 81.6011 162.438 82.0784 162.401 82.6292L133.401 81.0557C133.622 80.5312 133.837 80.0748 134.057 79.6133L162.474 81.1553Z" fill="#FDFDFD"/>
<path d="M141.898 70.8105L149.765 71.0413C153.83 71.1148 158.525 71.3403 159.568 71.5186C162.228 71.9749 162.018 74.3876 162.296 77.1727C162.433 77.9644 162.505 78.7662 162.511 79.5697L134.77 78.1955C137.13 73.4855 139.543 70.8315 141.898 70.8105Z" fill="#FDFDFD"/>
<path opacity="0.1" d="M158.107 100.608C158.065 100.121 158.038 99.6276 158.038 99.1398C158.061 97.508 158.278 95.8846 158.684 94.3039C159.428 91.309 161.007 88.0099 160.372 86.342C159.738 84.6741 158.164 81.8523 158.893 76.4079L163.173 74.9551C163.462 75.7642 163.647 76.6066 163.724 77.4622C164.033 80.5148 164.747 80.7508 164.248 85.8542C164.248 85.8542 162.418 91.0992 160.782 95.7463C160.782 95.7463 160.189 99.1713 160.782 100.766C161.872 103.719 163.441 110.569 163.986 115.546C163.986 115.546 161.096 119.643 148.02 119.637H147.632C152.877 118.473 157.975 114.917 158.746 109.231C159.156 106.367 158.348 103.493 158.107 100.608Z" fill="black"/>
<path opacity="0.1" d="M155.431 89.8613C154.864 91.0833 153.957 92.1159 152.819 92.8351C151.68 93.5543 150.358 93.9295 149.011 93.9157C147.713 93.9446 146.431 93.6306 145.294 93.0053C144.156 92.3799 143.204 91.4655 142.533 90.3544C142.533 90.3544 143.016 95.4787 149.084 95.1483C155.153 94.8178 155.431 89.8613 155.431 89.8613Z" fill="black"/>
<path d="M134.866 49.7484C134.739 48.8547 134.73 47.9483 134.84 47.0524C135.08 45.0021 136.068 43.1123 137.614 41.7445C140.405 39.3895 143.94 40.171 147.265 40.3283C153.286 40.6011 159.292 42.9508 160.981 48.2902C162.03 51.6313 161.594 55.6332 160.131 60.2751C158.867 64.319 157.251 66.7159 153.91 67.2247L147.742 66.1757C144.978 66.674 142.319 65.5778 140.279 63.742C139.73 63.2462 139.22 62.7097 138.752 62.137C138.313 61.5667 138.002 60.9084 137.84 60.2069C137.339 58.5957 136.95 56.9519 136.675 55.2871C136.485 54.4972 136.192 53.7356 135.805 53.0212C135.342 51.9787 135.026 50.8774 134.866 49.7484Z" fill="#263238"/>
<path d="M139.586 45.6934C138.044 46.5326 136.045 50.2565 135.94 58.2184C135.856 64.9687 137.981 66.7101 139.061 67.2293C140.142 67.7486 142.266 67.5336 144.338 67.2661L144.191 71.31C144.191 71.31 143.918 75.6318 145.575 75.9151C150.091 75.6318 153.899 71.5145 153.899 71.5145V62.9022C154.443 63.0904 155.029 63.1173 155.588 62.9795C156.146 62.8418 156.653 62.5453 157.046 62.126C158.62 60.4895 159.144 58.2237 157.896 56.8337C157.565 56.5046 157.161 56.2586 156.717 56.1158C156.273 55.973 155.801 55.9375 155.34 56.0122C154.88 56.0869 154.443 56.2697 154.067 56.5456C153.691 56.8215 153.385 57.1827 153.175 57.5995C153.175 57.5995 151.964 57.6572 150.836 55.3704C148.808 55.5211 146.788 54.9934 145.093 53.8703C140.86 51.2111 139.911 47.0571 139.586 45.6934Z" fill="#B16668"/>
<path d="M144.726 56.4137C144.718 56.58 144.76 56.7449 144.845 56.8879C144.931 57.0309 145.056 57.1457 145.206 57.2179C145.356 57.2902 145.524 57.3167 145.689 57.2943C145.854 57.2719 146.009 57.2015 146.134 57.0918C146.26 56.9822 146.35 56.8381 146.394 56.6775C146.438 56.5169 146.434 56.3469 146.383 56.1886C146.331 56.0303 146.234 55.8907 146.103 55.7871C145.973 55.6835 145.815 55.6205 145.649 55.6059C145.535 55.5974 145.421 55.6116 145.313 55.6477C145.204 55.6838 145.104 55.7412 145.018 55.8163C144.932 55.8915 144.862 55.9831 144.812 56.0856C144.762 56.1882 144.733 56.2997 144.726 56.4137Z" fill="#263238"/>
<path d="M143.473 62.0156L140.798 62.7657C140.839 62.9446 140.917 63.1134 141.025 63.2619C141.133 63.4104 141.27 63.5357 141.428 63.6301C141.585 63.7246 141.76 63.7864 141.942 63.8118C142.124 63.8372 142.309 63.8257 142.487 63.7779C142.847 63.6682 143.15 63.4236 143.334 63.0951C143.518 62.7667 143.568 62.3799 143.473 62.0156Z" fill="#9A4A4D"/>
<path d="M137.156 53.4978L138.913 52.3702C138.846 52.2526 138.755 52.15 138.646 52.0687C138.537 51.9874 138.413 51.9291 138.281 51.8972C138.149 51.8653 138.012 51.8605 137.878 51.8832C137.744 51.906 137.617 51.9556 137.503 52.0292C137.268 52.1831 137.101 52.4213 137.037 52.6945C136.972 52.9677 137.015 53.2553 137.156 53.4978Z" fill="#263238"/>
<path d="M146.016 53.4757L147.936 54.273C147.995 54.1495 148.028 54.0154 148.033 53.8788C148.038 53.7423 148.016 53.606 147.967 53.4784C147.917 53.3508 147.843 53.2346 147.747 53.1367C147.652 53.0389 147.538 52.9615 147.411 52.9093C147.15 52.8089 146.861 52.8117 146.602 52.9168C146.343 53.022 146.133 53.2218 146.016 53.4757Z" fill="#263238"/>
<path d="M137.54 55.9678C137.517 56.1951 137.584 56.4225 137.727 56.6003C137.871 56.7782 138.079 56.8921 138.306 56.9172C138.535 56.9302 138.76 56.8529 138.933 56.7019C139.105 56.5509 139.212 56.3381 139.229 56.1095C139.247 55.9941 139.242 55.8762 139.212 55.7631C139.183 55.65 139.131 55.5442 139.058 55.4523C138.986 55.3603 138.896 55.2843 138.793 55.2288C138.69 55.1734 138.577 55.1397 138.461 55.1299C138.344 55.1202 138.227 55.1345 138.117 55.1721C138.006 55.2096 137.904 55.2696 137.818 55.3483C137.732 55.4269 137.662 55.5225 137.615 55.6291C137.567 55.7357 137.541 55.851 137.54 55.9678Z" fill="#263238"/>
<path d="M141.626 55.627L141.306 60.7251L138.652 59.7967L141.626 55.627Z" fill="#9A4A4D"/>
<path d="M144.338 67.2656C146.515 67.0558 151.02 65.9386 151.781 64.1973C151.469 65.0809 150.895 65.8479 150.134 66.3949C148.76 67.4859 144.291 68.6136 144.291 68.6136L144.338 67.2656Z" fill="#9A4A4D"/>
<path d="M153.18 57.6002L153.049 61.1511C152.41 61.1265 151.806 60.8493 151.37 60.3804C150.935 59.9114 150.703 59.2889 150.726 58.6492L150.841 55.3711L153.18 57.6002Z" fill="#263238"/>
<path d="M160.388 120.315C159.679 120.477 158.258 120.624 158.048 119.748C157.838 118.872 159.019 118.814 159.894 118.07C160.838 117.225 161.831 116.436 162.868 115.709C164.19 114.844 165.821 114.839 166.482 113.805C167.164 112.966 171.124 101.59 172.168 98.1859C168.69 93.35 165.197 88.556 162.617 84.8793C162.617 84.8793 159.134 77.1901 159.716 72.05C162.061 71.5255 165.732 72.1969 169.582 77.0433C173.008 81.2524 176.161 85.676 179.023 90.2869C182.28 95.6368 182.579 95.5319 180.812 100.488C179.117 105.246 175.152 113.853 172.944 117.587C171.077 120.766 170.484 121.862 168.858 124.054C167.384 126.042 164.374 128.109 162.795 128.471C160.45 128.995 157.293 128.35 157.293 126.026C157.293 123.703 161.73 121.757 162.59 119.475C161.885 119.825 161.147 120.106 160.388 120.315Z" fill="#B16668"/>
<path d="M159.549 71.5202C159.549 71.5202 164.574 71.4572 166.021 72.5692C167.972 74.0378 170.401 77.3316 171.791 79.1464C173.181 80.9612 175.462 83.7305 175.462 83.7305C175.462 83.7305 172.913 90.3235 166.714 91.3463L160.813 83.9036C159.355 82.3511 158.065 77.3946 159.549 71.5202Z" fill="#FDFDFD"/>
<path d="M165.187 47.7022C165.014 47.5343 164.836 47.377 164.663 47.2196C163.703 46.3194 162.443 45.8073 161.127 45.7825C160.078 45.8297 157.949 47.0361 157.388 45.5098C157.283 45.1501 157.283 44.768 157.388 44.4083C158.001 41.8645 160.535 40.9676 162.906 41.0568C167.327 41.2194 170.154 45.1584 173.632 47.3088C174.902 48.018 176.331 48.395 177.786 48.405C179.271 48.4737 180.76 48.3467 182.212 48.0274C183.744 47.6864 185.233 47.1305 186.791 46.9417C188.349 46.7528 190.059 46.9784 191.229 48.0274C191.853 48.6441 192.294 49.4229 192.501 50.2763C192.707 51.1297 192.672 52.0237 192.398 52.858C191.825 54.5306 190.719 55.9693 189.251 56.9544C187.778 57.9987 186.112 58.7392 184.349 59.1328C182.587 59.5263 180.764 59.5649 178.987 59.2464C175.411 58.5768 172.186 56.6698 169.876 53.8598C168.224 51.872 167.028 49.4855 165.187 47.7022Z" fill="#263238"/>
<path d="M157.948 44.077C157.707 44.0081 157.482 43.8924 157.286 43.7365C157.089 43.5806 156.926 43.3876 156.804 43.1684C156.682 42.9493 156.605 42.7083 156.576 42.4592C156.547 42.2101 156.568 41.9578 156.637 41.7167C156.706 41.4757 156.822 41.2505 156.977 41.0542C157.133 40.8578 157.326 40.6941 157.545 40.5723C157.765 40.4505 158.006 40.3731 158.255 40.3445C158.504 40.3159 158.756 40.3366 158.997 40.4055L157.948 44.077Z" fill="#263238"/>
<path d="M105.064 54.3262C104.37 56.5476 103.255 58.6149 101.781 60.4157C94.9989 68.8444 87.7713 73.8849 84.1942 81.2593C80.0873 80.7348 74.7532 73.6226 78.0575 69.542C81.6451 68.2622 95.0356 54.064 96.2839 52.0027C97.4116 49.847 101.214 39.9392 102.106 36.1943C102.241 35.5644 102.144 34.9068 101.833 34.3428C100.962 32.6959 101.073 30.9335 100.679 29.2656C100.37 27.9701 99.8138 27.3617 100.071 27.1676C100.395 26.9642 100.784 26.8907 101.161 26.9617C101.537 27.0326 101.873 27.2429 102.101 27.5505C102.684 28.3761 103.19 29.254 103.611 30.173C103.732 28.6687 103.743 27.1576 103.643 25.6518C103.422 22.1901 104.22 19.6148 108.059 21.8177C110.472 23.1972 111.814 26.7428 110.529 33.0735C110.162 34.8988 109.139 38.628 108.484 41.2452C107.272 46.0968 106.753 49.9362 105.064 54.3262Z" fill="#FFA8A7"/>
<path d="M75.895 69.5525C77.521 68.7815 79.4721 68.1573 81.6173 66.4055C83.8569 64.5802 86.642 62.5137 86.642 62.5137C86.642 62.5137 91.5199 66.4841 91.4045 72.3481C89.6061 74.1613 88.0446 76.1951 86.7574 78.4008C85.7882 80.1017 85.0291 81.914 84.4968 83.7979C84.4968 83.7979 79.0945 84.8469 78.1084 79.0354C77.5885 75.8275 76.849 72.6591 75.895 69.5525Z" fill="#FDFDFD"/>
<path d="M83.7689 97.5025C83.9683 95.7821 83.9158 92.6036 83.9473 91.733C88.479 87.8674 87.4614 83.3724 86.0453 80.0366C83.1763 73.3649 80.2758 69.5151 77.4277 69.4941L69.5602 69.7197C65.4954 69.7931 60.8011 70.0239 59.7573 70.2022C57.0981 70.6585 55.8603 73.3492 55.5613 76.1448C55.2571 79.1974 54.5385 79.4334 55.0368 84.5368C55.0368 84.5368 56.8673 89.7818 58.5038 94.4236C58.5038 94.4236 59.0965 97.8539 58.5038 99.4484C57.4128 102.401 55.8446 109.246 55.2991 114.229C55.2991 114.229 58.1891 118.325 71.2649 118.32C76.9574 118.317 82.5192 116.613 87.2359 113.426L83.7689 97.5025Z" fill="#FDFDFD"/>
<path d="M56.8345 79.8487C56.8345 80.2945 56.8659 80.777 56.9079 81.3278L85.9023 79.7543C85.682 79.2298 85.4669 78.7734 85.2519 78.3066L56.8345 79.8487Z" fill="#FDFDFD"/>
<path d="M77.4107 69.5117L69.5432 69.7373C65.4783 69.8107 60.7841 70.0415 59.7403 70.2198C57.0811 70.6761 57.2909 73.0888 57.0129 75.8687C56.8781 76.6625 56.8062 77.4657 56.7979 78.2709L84.5439 76.8967C82.1732 72.1867 79.7867 69.5275 77.4107 69.5117Z" fill="#FDFDFD"/>
<path opacity="0.1" d="M61.9864 99.3802C60.8639 98.4361 61.3622 96.0077 60.6227 93.0128C59.8831 90.0179 58.2991 86.7188 58.9338 85.0508C59.5684 83.3829 61.1157 80.0681 60.9269 75.2847L56.1487 73.6797C55.86 74.4888 55.6749 75.3312 55.5979 76.1868C55.2937 79.2394 54.5752 79.4754 55.0734 84.5788C55.0734 84.5788 56.9039 89.8238 58.5404 94.4656C58.5404 94.4656 59.1331 97.8959 58.5404 99.4904C57.4494 102.443 55.8812 109.288 55.3357 114.271C55.3357 114.271 58.2257 118.367 71.3015 118.362H71.6896C77.0343 102.034 63.0616 100.277 61.9864 99.3802Z" fill="black"/>
<path opacity="0.1" d="M63.8745 88.5547C64.4412 89.7801 65.3503 90.8155 66.4922 91.5358C67.6342 92.2561 68.9601 92.6307 70.3101 92.6143C71.6077 92.6432 72.89 92.3292 74.0274 91.7039C75.1647 91.0785 76.1169 90.1641 76.7877 89.053C76.7877 89.053 76.3052 94.1773 70.2367 93.8417C64.1682 93.506 63.8745 88.5547 63.8745 88.5547Z" fill="black"/>
<path d="M85.3936 48.5782C86.2036 46.4189 86.4667 44.0927 86.1594 41.8069C85.3501 42.0571 84.527 42.2603 83.6942 42.4154C83.9754 41.7594 84.2942 41.1202 84.6488 40.5009C85.0068 39.8777 85.1881 39.1687 85.1733 38.4501C85.155 38.0925 85.0318 37.7481 84.8192 37.4599C84.6066 37.1717 84.3138 36.9525 83.9775 36.8294C83.3545 36.7393 82.719 36.8495 82.1627 37.1441C78.9166 38.3237 75.4982 38.9599 72.0451 39.0271C66.0238 39.2998 60.0183 41.6496 58.3294 46.989C57.2804 50.3301 58.2298 54.825 59.8137 58.7326C61.3977 62.6401 63.8524 65.5511 65.3997 65.9182L71.5678 64.8692C74.3319 65.3623 76.9911 64.2713 79.0314 62.4355C79.5799 61.9397 80.0901 61.4032 80.5577 60.8306C80.9961 60.2596 81.3073 59.6015 81.4704 58.9004C81.9707 57.2891 82.3597 55.6453 82.6348 53.9806C82.6761 53.6492 82.7553 53.3236 82.8708 53.0103C83.0391 52.6694 83.2488 52.3506 83.4949 52.0609C84.2911 50.9968 84.9305 49.824 85.3936 48.5782Z" fill="#263238"/>
<path d="M79.72 44.3926C81.262 45.2265 83.2604 48.9557 83.3653 56.9176C83.4492 63.6627 81.3249 65.4093 80.2445 65.9286C79.164 66.4478 77.0398 66.2328 74.968 65.96L75.1149 70.0092C75.1149 70.0092 75.3876 74.3311 73.7354 74.6143C69.2142 74.3311 65.4064 70.2137 65.4064 70.2137V61.6014C64.8627 61.7883 64.2767 61.8145 63.7185 61.6768C63.1604 61.5391 62.6538 61.2434 62.2594 60.8252C60.6859 59.1887 60.1614 56.9176 61.4097 55.533C61.7404 55.2038 62.1445 54.9578 62.5887 54.815C63.033 54.6722 63.5047 54.6367 63.9653 54.7114C64.4259 54.7861 64.8622 54.9689 65.2385 55.2449C65.6148 55.5208 65.9204 55.8819 66.1302 56.2987C66.1302 56.2987 67.3418 56.3564 68.4694 54.0696C70.5067 54.2255 72.5376 53.6956 74.2389 52.5643C78.4454 49.9051 79.3948 45.7563 79.72 44.3926Z" fill="#FFA8A7"/>
<path d="M74.5785 55.1072C74.5908 55.2203 74.5806 55.3347 74.5484 55.4438C74.5163 55.5529 74.4628 55.6545 74.3911 55.7428C74.3194 55.8311 74.2309 55.9043 74.1307 55.9581C74.0305 56.012 73.9207 56.0455 73.8075 56.0566C73.6331 56.0779 73.4564 56.0466 73.2999 55.9668C73.1434 55.8869 73.0144 55.7621 72.9294 55.6084C72.8444 55.4547 72.8073 55.2791 72.8228 55.1041C72.8383 54.9291 72.9058 54.7628 73.0165 54.6264C73.1272 54.4901 73.2762 54.3899 73.4443 54.3389C73.6123 54.2878 73.7918 54.2881 73.9597 54.3398C74.1276 54.3915 74.2762 54.4921 74.3865 54.6289C74.4967 54.7656 74.5636 54.9322 74.5785 55.1072Z" fill="#263238"/>
<g style="mix-blend-mode:multiply" opacity="0.5">
<path d="M75.8309 60.7148L78.5058 61.4649C78.4643 61.6432 78.3872 61.8113 78.2793 61.9592C78.1714 62.1071 78.0348 62.2317 77.8777 62.3257C77.7206 62.4197 77.5461 62.4811 77.3648 62.5062C77.1835 62.5313 76.9989 62.5196 76.8222 62.4719C76.4608 62.3656 76.1551 62.1226 75.97 61.7945C75.7849 61.4664 75.735 61.0791 75.8309 60.7148Z" fill="#F28F8F"/>
</g>
<path d="M82.1472 52.1761L80.3901 51.0484C80.4569 50.9297 80.5474 50.826 80.656 50.7438C80.7646 50.6616 80.889 50.6027 81.0214 50.5707C81.1537 50.5387 81.2913 50.5343 81.4254 50.5579C81.5596 50.5814 81.6874 50.6323 81.801 50.7074C82.0368 50.8605 82.2045 51.0986 82.2689 51.3723C82.3334 51.6459 82.2898 51.9338 82.1472 52.1761Z" fill="#263238"/>
<path d="M73.2882 52.1759L71.358 52.9941C71.2985 52.8708 71.2648 52.7366 71.2592 52.5998C71.2535 52.463 71.2759 52.3265 71.3251 52.1987C71.3742 52.0709 71.4491 51.9545 71.5449 51.8568C71.6408 51.759 71.7557 51.682 71.8825 51.6304C72.1422 51.5242 72.4326 51.5216 72.6941 51.6231C72.9555 51.7245 73.1682 51.9224 73.2882 52.1759Z" fill="#263238"/>
<path d="M81.7708 54.6676C81.7784 54.8339 81.7369 54.9989 81.6515 55.1418C81.5661 55.2848 81.4406 55.3996 81.2906 55.4718C81.1406 55.5441 80.9726 55.5706 80.8076 55.5482C80.6426 55.5258 80.4878 55.4554 80.3624 55.3457C80.2371 55.2361 80.1468 55.092 80.1026 54.9314C80.0585 54.7708 80.0625 54.6008 80.1142 54.4425C80.1659 54.2842 80.263 54.1446 80.3934 54.041C80.5238 53.9374 80.6817 53.8744 80.8476 53.8598C80.9615 53.8513 81.0759 53.8655 81.1842 53.9016C81.2925 53.9377 81.3925 53.9951 81.4785 54.0703C81.5644 54.1454 81.6345 54.237 81.6847 54.3395C81.7349 54.4421 81.7641 54.5536 81.7708 54.6676Z" fill="#263238"/>
<g style="mix-blend-mode:multiply" opacity="0.5">
<path d="M77.6831 54.3262L77.9978 59.4243L80.657 58.496L77.6831 54.3262Z" fill="#F28F8F"/>
</g>
<g style="mix-blend-mode:multiply" opacity="0.5">
<path d="M74.97 65.9596C72.7933 65.755 68.2879 64.6326 67.5273 62.8965C67.8386 63.7789 68.4135 64.5442 69.1743 65.0889C70.5485 66.1851 75.0172 67.3128 75.0172 67.3128L74.97 65.9596Z" fill="#F28F8F"/>
</g>
<path d="M66.1401 56.2975L66.2713 59.8431C66.5884 59.8323 66.9002 59.7589 67.1889 59.6271C67.4776 59.4954 67.7374 59.3079 67.9533 59.0753C68.1692 58.8428 68.3371 58.5699 68.4472 58.2723C68.5572 57.9747 68.6074 57.6583 68.5948 57.3412L68.4794 54.0684L66.1401 56.2975Z" fill="#263238"/>
<path d="M55.4183 119.684C56.1054 119.904 57.5163 120.171 57.7943 119.316C58.0723 118.462 56.9079 118.304 56.0949 117.491C55.2239 116.564 54.2992 115.688 53.3256 114.869C52.0825 113.893 50.4566 113.757 49.8849 112.671C49.2712 111.779 46.3812 98.9973 45.6207 95.5199C49.4967 90.9935 53.0161 87.1751 55.9009 83.7239C55.9009 83.7239 59.9553 75.7095 59.8032 70.5327C57.5111 69.7984 54.8676 70.0816 50.6296 74.5923C46.6171 78.9138 42.8555 83.4617 39.3634 88.2136C35.6919 93.2698 35.3824 93.1282 36.7409 98.2263C38.4534 104.269 40.5917 110.183 43.1398 115.923C44.7133 119.248 45.2378 120.386 46.6697 122.705C47.9757 124.803 50.8027 127.121 52.3448 127.614C54.6421 128.338 57.8415 127.95 58.0303 125.637C58.2192 123.324 53.9655 121.011 53.3098 118.666C53.9792 119.071 54.6851 119.411 55.4183 119.684Z" fill="#FFA8A7"/>
<path d="M60.4169 70.1351C60.4169 70.1351 56.179 69.7732 54.1754 71.2418C52.1718 72.7104 51.0284 73.686 47.2887 77.6932C45.925 79.167 44.2466 81.2598 44.2466 81.2598C44.2466 81.2598 46.3446 87.5538 52.5599 88.5556L58.4973 82.5973C59.9554 81.0238 61.917 76.0096 60.4169 70.1351Z" fill="#FDFDFD"/>
</g>
<defs>
<filter id="filter0_d_265_6480" x="34" y="19" width="160.633" height="111.641" filterUnits="userSpaceOnUse" color-interpolation-filters="sRGB">
<feFlood flood-opacity="0" result="BackgroundImageFix"/>
<feColorMatrix in="SourceAlpha" type="matrix" values="0 0 0 0 0 0 0 0 0 0 0 0 0 0 0 0 0 0 127 0" result="hardAlpha"/>
<feOffset/>
<feGaussianBlur stdDeviation="1"/>
<feComposite in2="hardAlpha" operator="out"/>
<feColorMatrix type="matrix" values="0 0 0 0 0 0 0 0 0 0 0 0 0 0 0 0 0 0 0.25 0"/>
<feBlend mode="normal" in2="BackgroundImageFix" result="effect1_dropShadow_265_6480"/>
<feBlend mode="normal" in="SourceGraphic" in2="effect1_dropShadow_265_6480" result="shape"/>
</filter>
</defs>
</svg>
