<svg width="32" height="32" viewBox="0 0 32 32" fill="none" xmlns="http://www.w3.org/2000/svg">
<path d="M30.1602 0L20.084 3.78369L23.7002 6.06348C17.2402 14.1982 7.89551 19.209 0 21.1162L2.23672 25.1904C11.1084 22.2988 20.501 17.083 26.5508 7.86816L29.3057 9.60449L30.1602 0ZM30.6865 7.97754L30.3584 11.7236L26.8516 9.50879C26.7285 9.69336 26.5986 9.87109 26.4688 10.0557V31.9033H31.8008V7.97754H30.6865ZM20.3916 16.7275C19.5234 17.4795 18.6279 18.1904 17.7188 18.8604V31.9033H23.0508V16.7275H20.3916ZM11.9355 22.4697C10.9512 22.9893 9.9668 23.4678 8.96875 23.9189V31.9033H14.3008V22.4697H11.9355ZM0.21875 25.4775V31.9033H5.55078V25.4775H5.1625C4.14941 25.8535 3.13701 26.2021 2.13076 26.5234L1.64814 26.6738L0.991895 25.4775H0.21875Z" fill="#FDFDFD"/>
</svg>
