<svg width="29" height="29" viewBox="0 0 29 29" fill="none" xmlns="http://www.w3.org/2000/svg">
<rect x="29" width="29" height="29" rx="14.5" transform="rotate(90 29 0)" fill="#9D8BF9"/>
<path d="M15.0597 7.8785C14.9113 7.73009 14.7099 7.64671 14.5 7.64671C14.2901 7.64671 14.0888 7.73009 13.9403 7.8785L9.46184 12.357C9.31763 12.5063 9.23784 12.7062 9.23964 12.9138C9.24145 13.1214 9.32471 13.32 9.47149 13.4667C9.61827 13.6135 9.81683 13.6968 10.0244 13.6986C10.232 13.7004 10.4319 13.6206 10.5813 13.4764L13.7083 10.3493V20.8333C13.7083 21.0433 13.7918 21.2447 13.9402 21.3931C14.0887 21.5416 14.29 21.625 14.5 21.625C14.71 21.625 14.9113 21.5416 15.0598 21.3931C15.2083 21.2447 15.2917 21.0433 15.2917 20.8333V10.3493L18.4188 13.4764C18.5681 13.6206 18.768 13.7004 18.9756 13.6986C19.1832 13.6968 19.3818 13.6135 19.5285 13.4667C19.6753 13.32 19.7586 13.1214 19.7604 12.9138C19.7622 12.7062 19.6824 12.5063 19.5382 12.357L15.0597 7.8785Z" fill="#1E1E1E"/>
</svg>
