<svg width="34" height="35" viewBox="0 0 34 35" fill="none" xmlns="http://www.w3.org/2000/svg">
<path fill-rule="evenodd" clip-rule="evenodd" d="M25.8581 10.1737C26.2961 9.80894 26.861 9.63301 27.4287 9.68462C27.9963 9.73622 28.5203 10.0111 28.8853 10.4489L33.3637 15.8239C33.7126 16.2636 33.8757 16.8223 33.8182 17.3806C33.7607 17.9389 33.4871 18.4526 33.0559 18.8119C32.6247 19.1713 32.0701 19.3477 31.5106 19.3036C30.951 19.2595 30.4309 18.9984 30.0613 18.5759L25.5829 13.2009C25.2181 12.7629 25.0422 12.198 25.0938 11.6303C25.1454 11.0627 25.4203 10.5387 25.8581 10.1737Z" fill="#FDFDFD"/>
<path fill-rule="evenodd" clip-rule="evenodd" d="M25.858 24.2261C25.4199 23.8614 25.1446 23.3376 25.0926 22.7699C25.0406 22.2022 25.2161 21.6372 25.5807 21.1989L30.0613 15.8239C30.2395 15.5993 30.4608 15.4126 30.7122 15.2749C30.9636 15.1371 31.24 15.051 31.5252 15.0216C31.8103 14.9922 32.0985 15.0201 32.3727 15.1038C32.6469 15.1874 32.9017 15.325 33.1219 15.5086C33.3421 15.6921 33.5234 15.9178 33.6552 16.1725C33.7869 16.4271 33.8663 16.7055 33.8889 16.9913C33.9114 17.2771 33.8765 17.5645 33.7863 17.8367C33.6961 18.1088 33.5524 18.3601 33.3637 18.5759L28.8852 23.9509C28.5202 24.3887 27.9963 24.6636 27.4286 24.7152C26.8609 24.7668 26.296 24.5909 25.858 24.2261Z" fill="#FDFDFD"/>
<path fill-rule="evenodd" clip-rule="evenodd" d="M31.175 17.2C31.175 17.7702 30.9485 18.3171 30.5453 18.7203C30.1421 19.1235 29.5952 19.35 29.025 19.35H15.05C14.4798 19.35 13.9329 19.1235 13.5297 18.7203C13.1265 18.3171 12.9 17.7702 12.9 17.2C12.9 16.6298 13.1265 16.0829 13.5297 15.6797C13.9329 15.2765 14.4798 15.05 15.05 15.05H29.025C29.5952 15.05 30.1421 15.2765 30.5453 15.6797C30.9485 16.0829 31.175 16.6298 31.175 17.2ZM0 2.15C0 1.57978 0.226517 1.03292 0.62972 0.62972C1.03292 0.226517 1.57978 0 2.15 0H21.5C22.0702 0 22.6171 0.226517 23.0203 0.62972C23.4235 1.03292 23.65 1.57978 23.65 2.15C23.65 2.72022 23.4235 3.26708 23.0203 3.67028C22.6171 4.07348 22.0702 4.3 21.5 4.3H2.15C1.57978 4.3 1.03292 4.07348 0.62972 3.67028C0.226517 3.26708 0 2.72022 0 2.15ZM0 32.25C0 31.6798 0.226517 31.1329 0.62972 30.7297C1.03292 30.3265 1.57978 30.1 2.15 30.1H21.5C22.0702 30.1 22.6171 30.3265 23.0203 30.7297C23.4235 31.1329 23.65 31.6798 23.65 32.25C23.65 32.8202 23.4235 33.3671 23.0203 33.7703C22.6171 34.1735 22.0702 34.4 21.5 34.4H2.15C1.57978 34.4 1.03292 34.1735 0.62972 33.7703C0.226517 33.3671 0 32.8202 0 32.25Z" fill="#FDFDFD"/>
<path fill-rule="evenodd" clip-rule="evenodd" d="M21.5 0C22.0702 0 22.6171 0.226517 23.0203 0.62972C23.4235 1.03292 23.65 1.57978 23.65 2.15V10.75C23.65 11.3202 23.4235 11.8671 23.0203 12.2703C22.6171 12.6735 22.0702 12.9 21.5 12.9C20.9298 12.9 20.3829 12.6735 19.9797 12.2703C19.5765 11.8671 19.35 11.3202 19.35 10.75V2.15C19.35 1.57978 19.5765 1.03292 19.9797 0.62972C20.3829 0.226517 20.9298 0 21.5 0ZM21.5 21.5C22.0702 21.5 22.6171 21.7265 23.0203 22.1297C23.4235 22.5329 23.65 23.0798 23.65 23.65V32.25C23.65 32.8202 23.4235 33.3671 23.0203 33.7703C22.6171 34.1735 22.0702 34.4 21.5 34.4C20.9298 34.4 20.3829 34.1735 19.9797 33.7703C19.5765 33.3671 19.35 32.8202 19.35 32.25V23.65C19.35 23.0798 19.5765 22.5329 19.9797 22.1297C20.3829 21.7265 20.9298 21.5 21.5 21.5ZM2.15 0C2.72022 0 3.26708 0.226517 3.67028 0.62972C4.07348 1.03292 4.3 1.57978 4.3 2.15V32.25C4.3 32.8202 4.07348 33.3671 3.67028 33.7703C3.26708 34.1735 2.72022 34.4 2.15 34.4C1.57978 34.4 1.03292 34.1735 0.62972 33.7703C0.226517 33.3671 0 32.8202 0 32.25V2.15C0 1.57978 0.226517 1.03292 0.62972 0.62972C1.03292 0.226517 1.57978 0 2.15 0Z" fill="#FDFDFD"/>
</svg>
