<svg width="31" height="28" viewBox="0 0 31 28" fill="none" xmlns="http://www.w3.org/2000/svg">
<path d="M1.44496 26.0686C-0.39687 20.2815 3.285 6.77596 16.1689 6.77596V2.9185C16.1533 2.56987 16.2374 2.224 16.4112 1.92142C16.5851 1.61884 16.8416 1.37207 17.1507 1.21002C17.4598 1.04796 17.8086 0.97732 18.1564 1.00638C18.5042 1.03544 18.8365 1.16298 19.1144 1.37409L28.9309 9.09079C29.161 9.27689 29.3466 9.51207 29.4741 9.77914C29.6016 10.0462 29.6677 10.3384 29.6677 10.6343C29.6677 10.9302 29.6016 11.2224 29.4741 11.4895C29.3466 11.7566 29.161 11.9917 28.9309 12.1778L19.1126 19.8945C18.8346 20.1042 18.5028 20.2306 18.1558 20.2591C17.8087 20.2875 17.4608 20.2168 17.1523 20.0552C16.8439 19.8936 16.5878 19.6477 16.4137 19.3462C16.2395 19.0446 16.1547 18.6998 16.1689 18.3519V14.4927C3.285 16.4223 1.44496 26.0686 1.44496 26.0686Z" stroke="#FDFDFD" stroke-width="2" stroke-linecap="round" stroke-linejoin="round"/>
</svg>
