<svg width="18" height="31" viewBox="0 0 18 31" fill="none" xmlns="http://www.w3.org/2000/svg">
<path d="M11.5809 24.075C11.1688 23.8693 9.43336 22.9935 8.84332 22.6957C8.72618 22.6377 8.65242 22.5998 8.64664 22.596C8.35326 22.4533 8.01047 22.4085 7.68203 22.4698C7.40011 22.5198 7.1301 22.6115 6.88374 22.7411C6.84325 22.7613 6.80275 22.7853 6.76371 22.808C6.09702 23.1753 5.52433 23.7532 5.04709 24.5483C4.56114 25.3227 4.30043 26.1893 4.28784 27.0721C4.28784 27.9084 4.54333 28.4952 5.05432 28.8326C5.10606 28.8662 5.16015 28.8969 5.21629 28.9247C5.69498 29.1619 8.09564 30.3759 8.14915 30.4024H8.16217C8.1031 30.3742 8.04654 30.3421 7.99296 30.3065C7.48101 29.97 7.22552 29.3836 7.22649 28.5474C7.23908 27.6645 7.49978 26.7979 7.98573 26.0235C8.48997 25.1822 9.1017 24.5794 9.82093 24.2151C10.5055 23.8702 11.0965 23.8252 11.594 24.0801L11.5809 24.075Z" fill="#FDFDFD"/>
<path opacity="0.4" d="M11.5944 24.0826C11.0969 23.8302 10.5059 23.8748 9.82137 24.2163C9.15323 24.5528 8.57717 25.0997 8.09318 25.8569L5.15454 24.3715C5.60864 23.6636 6.14518 23.1424 6.76269 22.8029C6.80174 22.7815 6.84224 22.7563 6.88273 22.7361C7.12883 22.6063 7.39897 22.5149 7.68102 22.466C8.00943 22.4039 8.35251 22.4488 8.64562 22.5922L8.84231 22.6919C9.43235 22.9885 11.1678 23.8642 11.5799 24.0699L11.5944 24.0826Z" fill="#524885"/>
<path opacity="0.3" d="M8.16217 30.3986H8.14915C8.09564 30.3721 5.69064 29.1581 5.21629 28.9209C5.16015 28.8931 5.10606 28.8624 5.05432 28.8287C4.54333 28.4922 4.28784 27.9058 4.28784 27.0696C4.30008 26.1867 4.56081 25.32 5.04709 24.5457C5.0818 24.4864 5.11795 24.4283 5.15555 24.3728L8.09275 25.8531C8.0566 25.9086 8.02044 25.9666 7.98573 26.0247C7.49978 26.7991 7.23908 27.6657 7.22649 28.5486C7.22649 29.3848 7.48198 29.9712 7.99296 30.3077C8.04673 30.3416 8.10328 30.372 8.16217 30.3986Z" fill="#524885"/>
<path d="M10.2999 2.42023C11.7259 1.70092 12.9397 1.3951 13.9414 1.50279C14.3491 1.54529 14.7427 1.65948 15.0984 1.83847C15.0884 1.83389 15.0788 1.82883 15.0694 1.82333C14.7253 1.65422 12.6514 0.610595 12.1771 0.36704C11.8152 0.182499 11.4134 0.0656095 10.997 0.0237905C9.99431 -0.0830542 8.78 0.222337 7.35407 0.939963C5.13659 2.05636 3.35296 3.69689 2.00319 5.86155C0.653423 8.02621 -0.0142319 10.2359 0.000229958 12.4906L2.93743 13.9708C2.91718 11.7145 3.58483 9.50437 4.94039 7.34055C6.29594 5.17674 8.08246 3.53663 10.2999 2.42023Z" fill="#FDFDFD"/>
<path opacity="0.2" d="M15.0752 1.82438C14.7247 1.65403 14.3396 1.54474 13.9414 1.50258C12.9406 1.39489 11.7268 1.7007 10.2999 2.42001C8.08241 3.53557 6.29878 5.1761 4.94901 7.3416C4.89261 7.4312 4.83766 7.52206 4.78415 7.61166L1.83972 6.12887C1.89323 6.03927 1.94819 5.94841 2.00459 5.85882C3.36014 3.69584 5.14377 2.05531 7.35546 0.937227C8.78332 0.218759 9.99764 -0.0866313 10.9984 0.0210547C11.4149 0.063298 11.8167 0.180616 12.1785 0.365566C12.6572 0.611645 14.731 1.65654 15.0752 1.82438Z" fill="#524885"/>
<path opacity="0.3" d="M4.77716 7.60911C3.53248 9.68627 2.91978 11.8059 2.93906 13.9681L0.00186368 12.4878C-0.0164546 10.3248 0.596246 8.20517 1.83996 6.12885L4.77716 7.60911Z" fill="#524885"/>
<path d="M12.2953 6.61485C11.7621 6.36751 11.0501 6.46426 10.1593 6.9051C10.1292 7.36761 10.02 7.82358 9.83532 8.25791C9.61261 8.78119 8.96472 9.86058 7.89165 11.4961C6.78002 13.1871 5.97594 14.8019 5.47942 16.3407C4.98695 17.8599 4.73682 19.4311 4.73608 21.0099L4.75055 21.7961L6.75496 22.8056L7.68919 23.2763L7.67328 22.4889V22.4788C7.67646 20.9051 7.92657 19.3392 8.41662 17.8247C8.91314 16.286 9.7177 14.6715 10.8303 12.9814C11.9024 11.3459 12.5498 10.2661 12.7725 9.74195C12.9949 9.2238 13.1086 8.67493 13.108 8.12162C13.108 7.36866 12.8371 6.8664 12.2953 6.61485Z" fill="#FDFDFD"/>
<path opacity="0.3" d="M12.4847 10.3085C12.1531 10.9109 11.6016 11.8002 10.8303 12.9763C9.71674 14.6673 8.91218 16.2822 8.41662 17.8209C7.92605 19.3366 7.67594 20.9038 7.67328 22.4787V22.4989L7.68919 23.2864L6.75496 22.8169L4.75055 21.8074L4.73608 21.0199C4.73693 19.4411 4.98706 17.87 5.47942 16.3507C5.97594 14.812 6.78002 13.1971 7.89165 11.5061C8.66295 10.3283 9.21539 9.43948 9.54898 8.83963L12.4847 10.3085Z" fill="#524885"/>
<path opacity="0.4" d="M13.1086 8.12162C13.1089 8.67315 12.9958 9.22026 12.7745 9.73691C12.7124 9.88455 12.6155 10.0751 12.4853 10.3086L9.54956 8.82957C9.67779 8.59569 9.7742 8.40513 9.8388 8.25791C10.0235 7.82358 10.1326 7.36761 10.1627 6.9051C11.0536 6.46426 11.7656 6.36751 12.2988 6.61485C12.8319 6.86219 13.1019 7.36445 13.1086 8.12162Z" fill="#524885"/>
<path d="M6.91424 11.9642L2.93868 13.9681C2.91843 11.7118 3.58609 9.50169 4.94164 7.33787C6.2972 5.17405 8.08082 3.53352 10.2925 2.41628C11.7185 1.69697 12.9323 1.39116 13.934 1.49885C14.9357 1.60653 15.7374 2.08565 16.339 2.9362C16.9416 3.78675 17.2429 4.84763 17.2429 6.11883C17.2369 6.85685 17.1399 7.59217 16.9536 8.31209C16.7283 9.17327 16.4241 10.0173 16.044 10.836C15.801 11.371 15.2192 12.3587 14.2984 13.799C13.4182 15.172 12.8667 16.1063 12.644 16.6018C12.3968 17.19 12.2133 17.7971 12.0959 18.4152C11.9208 19.3391 11.8241 20.2729 11.8067 21.2092L7.69518 23.2813L7.67927 22.4938C7.68011 20.915 7.93024 19.3439 8.42261 17.8246C8.91913 16.2859 9.72369 14.6715 10.8363 12.9813C11.9084 11.3458 12.5558 10.266 12.7785 9.74188C12.9989 9.2234 13.1106 8.67454 13.1082 8.12154C13.1082 7.36437 12.8378 6.86212 12.2969 6.61477C11.7561 6.36743 11.0301 6.47091 10.119 6.92521C9.18763 7.39466 8.42357 8.09882 7.82678 9.03771C7.24313 9.92989 6.92911 10.9369 6.91424 11.9642Z" fill="#FDFDFD"/>
<path d="M9.81428 24.2238C10.5518 23.8512 11.1814 23.828 11.703 24.1544C12.2246 24.4809 12.4854 25.0618 12.4854 25.8972C12.4696 26.7848 12.2039 27.6555 11.7117 28.4324C11.1968 29.2864 10.5745 29.8971 9.84465 30.2648C9.11481 30.6324 8.49488 30.6476 7.98486 30.3102C7.47388 29.9737 7.21838 29.3869 7.21838 28.5498C7.23097 27.667 7.49168 26.8003 7.97763 26.0259C8.48379 25.1863 9.09601 24.5856 9.81428 24.2238Z" fill="#FDFDFD"/>
</svg>
