<svg width="15" height="15" viewBox="0 0 15 15" fill="none" xmlns="http://www.w3.org/2000/svg">
<path d="M13.7133 1.23798C14.0258 1.55052 14.2013 1.97437 14.2013 2.41631C14.2013 2.85825 14.0258 3.2821 13.7133 3.59464C14.0702 4.59142 14.1491 5.66654 13.9415 6.70474C13.734 7.74294 13.2477 8.70507 12.535 9.48798L10.7667 11.2546C10.4446 11.6654 10.2235 12.146 10.1212 12.6578C10.0189 13.1696 10.0382 13.6983 10.1775 14.2013L0.75 4.77464C1.25287 4.91386 1.7814 4.93307 2.29305 4.83074C2.8047 4.72841 3.28519 4.50739 3.69583 4.18548L5.46333 2.41631C6.24625 1.70357 7.20837 1.21735 8.24657 1.00977C9.28477 0.80219 10.3599 0.881078 11.3567 1.23798C11.6692 0.925526 12.0931 0.75 12.535 0.75C12.9769 0.75 13.4008 0.925526 13.7133 1.23798Z" stroke="#FDFDFD" stroke-width="1.5" stroke-linecap="round" stroke-linejoin="round"/>
<path d="M3.69585 7.71965L3.10668 8.30882C2.6378 8.7777 2.37439 9.41364 2.37439 10.0767C2.37439 10.7398 2.6378 11.3758 3.10668 11.8447C3.57557 12.3135 4.2115 12.5769 4.8746 12.5769C5.5377 12.5769 6.17364 12.3135 6.64252 11.8447L7.23169 11.2555" stroke="#FDFDFD" stroke-width="1.5" stroke-linecap="round" stroke-linejoin="round"/>
</svg>
