<svg width="15" height="15" viewBox="0 0 15 15" fill="none" xmlns="http://www.w3.org/2000/svg">
  <!-- Outer Circle -->
  <circle cx="7.5" cy="7.5" r="6.5" fill="#FDFDFD" stroke="#9D8BF9" stroke-width="2"/>

  <!-- Lock centered -->
  <g transform="translate(4,3.5)">
    <path d="M0.875 8C0.634375 8 0.428385 7.9254 0.257031 7.77619C0.0856771 7.62698 0 7.44762 0 7.2381V3.42857C0 3.21905 0.0856771 3.03968 0.257031 2.89048C0.428385 2.74127 0.634375 2.66667 0.875 2.66667H1.3125V1.90476C1.3125 1.37778 1.52578 0.928572 1.95234 0.557143C2.37891 0.185715 2.89479 0 3.5 0C4.10521 0 4.62109 0.185715 5.04766 0.557143C5.47422 0.928572 5.6875 1.37778 5.6875 1.90476V2.66667H6.125C6.36563 2.66667 6.57161 2.74127 6.74297 2.89048C6.91432 3.03968 7 3.21905 7 3.42857V7.2381C7 7.44762 6.91432 7.62698 6.74297 7.77619C6.57161 7.9254 6.36563 8 6.125 8H0.875ZM0.875 7.2381H6.125V3.42857H0.875V7.2381ZM3.5 6.09524C3.74063 6.09524 3.94661 6.02064 4.11797 5.87143C4.28932 5.72222 4.375 5.54286 4.375 5.33333C4.375 5.12381 4.28932 4.94444 4.11797 4.79524C3.94661 4.64603 3.74063 4.57143 3.5 4.57143C3.25938 4.57143 3.05339 4.64603 2.88203 4.79524C2.71068 4.94444 2.625 5.12381 2.625 5.33333C2.625 5.54286 2.71068 5.72222 2.88203 5.87143C3.05339 6.02064 3.25938 6.09524 3.5 6.09524ZM2.1875 2.66667H4.8125V1.90476C4.8125 1.5873 4.6849 1.31746 4.42969 1.09524C4.17448 0.873016 3.86458 0.761905 3.5 0.761905C3.13542 0.761905 2.82552 0.873016 2.57031 1.09524C2.3151 1.31746 2.1875 1.5873 2.1875 1.90476V2.66667Z" fill="#9D8BF9"/>
  </g>
</svg>
