<svg width="15" height="15" viewBox="0 0 15 15" fill="none" xmlns="http://www.w3.org/2000/svg">
  <!-- Original purple circle -->
  <circle cx="7.5" cy="7.5" r="6.5" fill="#9D8BF9" stroke="#9D8BF9" stroke-width="2"/>

  <!-- Original tick path, centered manually -->
  <g transform="translate(3.7, 4.6)"> 
    <path d="M2.42388 4.02187L6.30825 0.1375C6.39992 0.0458334 6.50686 0 6.62909 0C6.75131 0 6.85825 0.0458334 6.94992 0.1375C7.04159 0.229167 7.08742 0.338097 7.08742 0.464292C7.08742 0.590486 7.04159 0.699264 6.94992 0.790625L2.74471 5.00729C2.65304 5.09896 2.5461 5.14479 2.42388 5.14479C2.30166 5.14479 2.19471 5.09896 2.10305 5.00729L0.132212 3.03646C0.0405449 2.94479 -0.00345513 2.83601 0.000211538 2.71012C0.00387821 2.58424 0.0516975 2.47531 0.14367 2.38333C0.235642 2.29136 0.344573 2.24553 0.470462 2.24583C0.59635 2.24614 0.705128 2.29197 0.796795 2.38333L2.42388 4.02187Z" 
          fill="#FDFDFD"/>
  </g>
</svg>
