<svg width="41" height="41" viewBox="0 0 41 41" fill="none" xmlns="http://www.w3.org/2000/svg">
<path d="M20.4168 0C9.14071 0 0.000167847 9.14054 0.000167847 20.4167C0.000167847 31.6928 9.14071 40.8333 20.4168 40.8333C31.693 40.8333 40.8335 31.6928 40.8335 20.4167C40.8335 9.14054 31.693 0 20.4168 0ZM20.4168 8.16667C20.9583 8.16667 21.4776 8.38177 21.8605 8.76466C22.2434 9.14754 22.4585 9.66685 22.4585 10.2083V20.4167C22.4584 20.9581 22.2432 21.4773 21.8603 21.8601L15.7353 27.9851C15.3502 28.357 14.8345 28.5628 14.2992 28.5582C13.7639 28.5535 13.2518 28.3388 12.8732 27.9603C12.4947 27.5817 12.28 27.0696 12.2753 26.5343C12.2707 25.999 12.4765 25.4833 12.8484 25.0982L18.3752 19.5714V10.2083C18.3752 9.66685 18.5903 9.14754 18.9732 8.76466C19.356 8.38177 19.8753 8.16667 20.4168 8.16667Z" fill="#FCFCFC"/>
</svg>
