<svg width="48" height="48" viewBox="0 0 48 48" fill="none" xmlns="http://www.w3.org/2000/svg">
<rect width="48" height="48" rx="24" fill="#E9E9E9"/>
<path d="M18.1691 34.2031C17.6346 34.2031 17.177 34.0128 16.7964 33.6322C16.4158 33.2516 16.2255 32.794 16.2255 32.2595V22.5413C16.2255 22.0068 16.4158 21.5493 16.7964 21.1686C17.177 20.788 17.6346 20.5977 18.1691 20.5977H19.1409V18.654C19.1409 17.3097 19.6147 16.1638 20.5622 15.2162C21.5097 14.2687 22.6557 13.795 24 13.795C25.3444 13.795 26.4903 14.2687 27.4378 15.2162C28.3853 16.1638 28.8591 17.3097 28.8591 18.654V20.5977H29.8309C30.3654 20.5977 30.823 20.788 31.2036 21.1686C31.5842 21.5493 31.7745 22.0068 31.7745 22.5413V32.2595C31.7745 32.794 31.5842 33.2516 31.2036 33.6322C30.823 34.0128 30.3654 34.2031 29.8309 34.2031H18.1691ZM18.1691 32.2595H29.8309V22.5413H18.1691V32.2595ZM24 29.344C24.5345 29.344 24.9921 29.1537 25.3727 28.7731C25.7533 28.3925 25.9436 27.9349 25.9436 27.4004C25.9436 26.8659 25.7533 26.4083 25.3727 26.0277C24.9921 25.6471 24.5345 25.4568 24 25.4568C23.4655 25.4568 23.0079 25.6471 22.6273 26.0277C22.2467 26.4083 22.0564 26.8659 22.0564 27.4004C22.0564 27.9349 22.2467 28.3925 22.6273 28.7731C23.0079 29.1537 23.4655 29.344 24 29.344ZM21.0846 20.5977H26.9155V18.654C26.9155 17.8442 26.632 17.1558 26.0651 16.5889C25.4982 16.022 24.8099 15.7386 24 15.7386C23.1902 15.7386 22.5018 16.022 21.9349 16.5889C21.368 17.1558 21.0846 17.8442 21.0846 18.654V20.5977Z" fill="#9E9E9E"/>
</svg>
