<svg width="64" height="64" viewBox="0 0 64 64" fill="none" xmlns="http://www.w3.org/2000/svg">
<rect width="64" height="64" rx="32" fill="#9D8BF9"/>
<path d="M42.0449 30.1685L36.0215 27.9781L33.8311 21.9546C33.6944 21.5787 33.4454 21.254 33.1178 21.0245C32.7902 20.795 32.4 20.6719 32 20.6719C31.6 20.6719 31.2098 20.795 30.8822 21.0245C30.5546 21.254 30.3056 21.5787 30.1689 21.9546L27.9785 27.9781L21.9551 30.1685C21.5792 30.3051 21.2544 30.5541 21.0249 30.8817C20.7954 31.2093 20.6723 31.5996 20.6723 31.9995C20.6723 32.3995 20.7954 32.7898 21.0249 33.1174C21.2544 33.445 21.5792 33.694 21.9551 33.8306L27.9785 36.021L30.1689 42.0445C30.3056 42.4204 30.5546 42.7451 30.8822 42.9746C31.2098 43.2041 31.6 43.3272 32 43.3272C32.4 43.3272 32.7902 43.2041 33.1178 42.9746C33.4454 42.7451 33.6944 42.4204 33.8311 42.0445L36.0215 36.021L42.0449 33.8306C42.4208 33.694 42.7456 33.445 42.9751 33.1174C43.2046 32.7898 43.3277 32.3995 43.3277 31.9995C43.3277 31.5996 43.2046 31.2093 42.9751 30.8817C42.7456 30.5541 42.4208 30.3051 42.0449 30.1685ZM34.707 34.0054C34.546 34.0639 34.3998 34.157 34.2786 34.2782C34.1575 34.3993 34.0644 34.5456 34.0059 34.7066L32 40.2232L29.9941 34.7066C29.9356 34.5456 29.8425 34.3993 29.7214 34.2782C29.6002 34.157 29.454 34.0639 29.293 34.0054L23.7764 31.9995L29.293 29.9937C29.454 29.9352 29.6002 29.8421 29.7214 29.7209C29.8425 29.5998 29.9356 29.4535 29.9941 29.2925L32 23.7759L34.0059 29.2925C34.0644 29.4535 34.1575 29.5998 34.2786 29.7209C34.3998 29.8421 34.546 29.9352 34.707 29.9937L40.2236 31.9995L34.707 34.0054Z" fill="white"/>
</svg>
