<svg width="48" height="48" viewBox="0 0 48 48" fill="none" xmlns="http://www.w3.org/2000/svg">
<rect width="48" height="48" rx="24" fill="#D5F7E3"/>
<path d="M22.6389 28.4727L29.4931 21.6185L28.1319 20.2574L22.6389 25.7504L19.8681 22.9796L18.5069 24.3407L22.6389 28.4727ZM24 33.7227C22.6551 33.7227 21.3912 33.4674 20.2083 32.957C19.0255 32.4466 17.9965 31.7539 17.1215 30.8789C16.2465 30.0039 15.5538 28.975 15.0434 27.7921C14.533 26.6092 14.2778 25.3453 14.2778 24.0004C14.2778 22.6555 14.533 21.3916 15.0434 20.2088C15.5538 19.0259 16.2465 17.997 17.1215 17.122C17.9965 16.247 19.0255 15.5543 20.2083 15.0438C21.3912 14.5334 22.6551 14.2782 24 14.2782C25.3449 14.2782 26.6088 14.5334 27.7917 15.0438C28.9745 15.5543 30.0035 16.247 30.8785 17.122C31.7535 17.997 32.4462 19.0259 32.9566 20.2088C33.467 21.3916 33.7222 22.6555 33.7222 24.0004C33.7222 25.3453 33.467 26.6092 32.9566 27.7921C32.4462 28.975 31.7535 30.0039 30.8785 30.8789C30.0035 31.7539 28.9745 32.4466 27.7917 32.957C26.6088 33.4674 25.3449 33.7227 24 33.7227ZM24 31.7782C26.1713 31.7782 28.0104 31.0247 29.5174 29.5178C31.0243 28.0109 31.7778 26.1717 31.7778 24.0004C31.7778 21.8291 31.0243 19.99 29.5174 18.4831C28.0104 16.9761 26.1713 16.2227 24 16.2227C21.8287 16.2227 19.9896 16.9761 18.4826 18.4831C16.9757 19.99 16.2222 21.8291 16.2222 24.0004C16.2222 26.1717 16.9757 28.0109 18.4826 29.5178C19.9896 31.0247 21.8287 31.7782 24 31.7782Z" fill="#38E07B"/>
</svg>
