<svg width="27" height="22" viewBox="0 0 27 22" fill="none" xmlns="http://www.w3.org/2000/svg">
<path d="M24.7914 8.32271L25.8225 9.35375L26.8535 8.32271L25.8225 7.29167L24.7914 8.32271ZM-0.000234604 19.9894C-0.000234604 20.3762 0.15341 20.7471 0.426901 21.0206C0.700392 21.2941 1.07133 21.4477 1.4581 21.4477C1.84487 21.4477 2.21581 21.2941 2.4893 21.0206C2.76279 20.7471 2.91643 20.3762 2.91643 19.9894H-0.000234604ZM18.5308 16.6454L25.8225 9.35375L23.7604 7.29167L16.4687 14.5833L18.5308 16.6454ZM25.8225 7.29167L18.5308 0L16.4687 2.06208L23.7604 9.35375L25.8225 7.29167ZM24.7914 6.86437H10.2081V9.78104H24.7914V6.86437ZM-0.000234604 17.0727V19.9894H2.91643V17.0727H-0.000234604ZM10.2081 6.86437C7.50068 6.86437 4.90415 7.93989 2.98972 9.85433C1.07528 11.7688 -0.000234604 14.3653 -0.000234604 17.0727H2.91643C2.91643 15.1388 3.68466 13.2842 5.05211 11.9167C6.41957 10.5493 8.27423 9.78104 10.2081 9.78104V6.86437Z" fill="#FDFDFD"/>
</svg>
