<svg width="24" height="23" viewBox="0 0 24 23" fill="none" xmlns="http://www.w3.org/2000/svg">
  <path
    d="M18.2504 22.1789C18.1075 22.1794 17.9667 22.1448 17.8403 22.0781L11.6153 18.8045L5.38912 22.0781C5.24402 22.154 5.08059 22.1879 4.91727 22.1758C4.75395 22.1638 4.59723 22.1064 4.46479 22.0101C4.33235 21.9138 4.22945 21.7824 4.1677 21.6307C4.10595 21.4791 4.0878 21.3132 4.11529 21.1517L5.30475 14.2189L0.265684 9.30875C0.148172 9.1943 0.0650336 9.04925 0.0256748 8.89001C-0.013684 8.73076 -0.00769248 8.56368 0.0429717 8.40767C0.0936359 8.25165 0.186951 8.11292 0.312359 8.00719C0.437768 7.90145 0.590265 7.83291 0.752599 7.80934L7.71412 6.79801L10.8272 0.489809C10.8998 0.342778 11.0121 0.218987 11.1513 0.132429C11.2906 0.0458717 11.4513 0 11.6153 0C11.7793 0 11.94 0.0458717 12.0792 0.132429C12.2185 0.218987 12.3308 0.342778 12.4034 0.489809L15.5165 6.79801L22.4774 7.80934C22.6398 7.83282 22.7924 7.90129 22.9178 8.00699C23.0433 8.11269 23.1367 8.25141 23.1874 8.40744C23.2382 8.56347 23.2442 8.73059 23.2049 8.88988C23.1656 9.04917 23.0824 9.19427 22.9649 9.30875L17.9258 14.2189L19.1153 21.1517C19.1369 21.2778 19.1307 21.4071 19.0971 21.5306C19.0635 21.654 19.0034 21.7687 18.9209 21.8665C18.8385 21.9643 18.7356 22.0429 18.6196 22.0969C18.5036 22.1509 18.3772 22.1788 18.2493 22.1789H18.2504Z"
    fill="#9D8BF9"
  />
</svg>
