<svg width="7" height="5" viewBox="0 0 7 5" fill="none" xmlns="http://www.w3.org/2000/svg">
<path d="M6.5879 1.7347C6.49596 1.7347 6.40779 1.77123 6.34278 1.83624C6.27777 1.90125 6.24125 1.98942 6.24125 2.08136V2.9792L4.06077 0.795263C4.02855 0.762771 3.99021 0.736982 3.94796 0.719383C3.90572 0.701784 3.86041 0.692723 3.81465 0.692723C3.76888 0.692723 3.72357 0.701784 3.68133 0.719383C3.63909 0.736982 3.60075 0.762771 3.56852 0.795263L2.42802 1.93923L0.594202 0.101949C0.528925 0.0366722 0.440391 0 0.348075 0C0.25576 0 0.167226 0.0366722 0.101949 0.101949C0.0366721 0.167226 0 0.25576 0 0.348076C0 0.440391 0.0366721 0.528925 0.101949 0.594202L2.18189 2.67414C2.21412 2.70664 2.25246 2.73243 2.2947 2.75002C2.33695 2.76762 2.38226 2.77668 2.42802 2.77668C2.47378 2.77668 2.51909 2.76762 2.56133 2.75002C2.60358 2.73243 2.64192 2.70664 2.67414 2.67414L3.81465 1.53018L5.75246 3.46799H4.85462C4.76268 3.46799 4.6745 3.50451 4.60949 3.56952C4.54448 3.63453 4.50796 3.72271 4.50796 3.81465C4.50796 3.90659 4.54448 3.99476 4.60949 4.05977C4.6745 4.12478 4.76268 4.1613 4.85462 4.1613H6.5879C6.6332 4.16076 6.67796 4.15133 6.71963 4.13357C6.80434 4.09839 6.87165 4.03108 6.90683 3.94638C6.92459 3.9047 6.93401 3.85995 6.93456 3.81465V2.08136C6.93456 1.98942 6.89804 1.90125 6.83303 1.83624C6.76802 1.77123 6.67984 1.7347 6.5879 1.7347Z" fill="#EF5656"/>
</svg>
