<svg width="50" height="51" viewBox="0 0 50 51" fill="none" xmlns="http://www.w3.org/2000/svg">
<g filter="url(#filter0_d_1_22700)">
<mask id="path-1-inside-1_1_22700" fill="white">
<path d="M37.1239 37.1241C43.9581 30.29 43.9588 19.2088 37.1247 12.3747C30.2905 5.54048 19.2093 5.54123 12.3752 12.3754C5.54099 19.2096 5.54025 30.2907 12.3744 37.1249C19.2086 43.9591 30.2897 43.9583 37.1239 37.1241Z"/>
</mask>
<path d="M39.6558 37.9671C46.9559 30.667 46.9559 18.8311 39.6558 11.5309C32.3556 4.23081 20.5198 4.23081 13.2196 11.5309L12.3759 12.3747C18.2782 6.47241 28.6031 7.22789 35.4372 14.0621C41.3395 19.9643 41.3395 29.5337 35.4372 35.436L39.6558 37.9671ZM5.25455e-05 24.7505L24.7488 49.4993L5.25455e-05 24.7505ZM13.2174 37.9678C20.5179 45.2684 32.3545 45.2684 39.655 37.9678L39.6558 37.9671C46.9559 30.667 46.9559 18.8311 39.6558 11.5309L35.4372 14.0621C41.3395 19.9643 41.3395 29.5337 35.4372 35.436L35.4357 35.4375C28.6016 42.2717 18.2767 43.0271 12.3744 37.1249L13.2174 37.9678ZM24.7503 0.00028652L5.25455e-05 24.7505L24.7503 0.00028652Z" fill="#FCFCFC" mask="url(#path-1-inside-1_1_22700)"/>
<path d="M24.7495 16.9311C24.9604 16.9311 25.1628 17.0149 25.3119 17.1641C25.4611 17.3133 25.5449 17.5156 25.5449 17.7266C25.5449 17.9375 25.4611 18.1398 25.3119 18.289C25.1628 18.4382 24.9604 18.522 24.7495 18.522C23.4909 18.522 22.2605 18.8952 21.214 19.5945C20.1675 20.2937 19.3519 21.2876 18.8702 22.4504C18.3886 23.6132 18.2626 24.8927 18.5081 26.1271C18.7536 27.3616 19.3597 28.4954 20.2497 29.3854C21.1397 30.2754 22.2736 30.8815 23.508 31.127C24.7424 31.3725 26.0219 31.2465 27.1847 30.7649C28.3475 30.2832 29.3414 29.4676 30.0406 28.4211C30.7399 27.3746 31.1131 26.1443 31.1131 24.8856C31.1131 24.6747 31.1969 24.4724 31.3461 24.3232C31.4953 24.174 31.6976 24.0902 31.9086 24.0902C32.1195 24.0902 32.3219 24.174 32.471 24.3232C32.6202 24.4724 32.704 24.6747 32.704 24.8856C32.704 29.2789 29.1428 32.8402 24.7495 32.8402C20.3562 32.8402 16.7949 29.2789 16.7949 24.8856C16.7949 20.4924 20.3562 16.9311 24.7495 16.9311ZM24.7495 20.1129C24.9604 20.1129 25.1628 20.1967 25.3119 20.3459C25.4611 20.4951 25.5449 20.6974 25.5449 20.9084C25.5449 21.1193 25.4611 21.3217 25.3119 21.4708C25.1628 21.62 24.9604 21.7038 24.7495 21.7038C24.1202 21.7038 23.505 21.8904 22.9817 22.2401C22.4585 22.5897 22.0507 23.0866 21.8098 23.668C21.569 24.2494 21.506 24.8892 21.6288 25.5064C21.7516 26.1236 22.0546 26.6905 22.4996 27.1355C22.9446 27.5805 23.5115 27.8836 24.1287 28.0063C24.7459 28.1291 25.3857 28.0661 25.9671 27.8253C26.5485 27.5844 27.0454 27.1766 27.3951 26.6534C27.7447 26.1301 27.9313 25.5149 27.9313 24.8856C27.9313 24.6747 28.0151 24.4724 28.1643 24.3232C28.3134 24.174 28.5158 24.0902 28.7267 24.0902C28.9377 24.0902 29.14 24.174 29.2892 24.3232C29.4384 24.4724 29.5222 24.6747 29.5222 24.8856C29.5222 25.8296 29.2423 26.7524 28.7178 27.5372C28.1934 28.3221 27.448 28.9338 26.5759 29.2951C25.7038 29.6563 24.7442 29.7508 23.8184 29.5667C22.8925 29.3825 22.0421 28.928 21.3746 28.2605C20.7072 27.593 20.2526 26.7426 20.0684 25.8168C19.8843 24.8909 19.9788 23.9313 20.34 23.0592C20.7013 22.1871 21.313 21.4417 22.0979 20.9173C22.8828 20.3928 23.8055 20.1129 24.7495 20.1129ZM29.2486 17.0106C29.3993 16.8686 29.5994 16.791 29.8064 16.794C30.0135 16.7971 30.2112 16.8807 30.3576 17.0272C30.504 17.1736 30.5877 17.3713 30.5907 17.5783C30.5938 17.7854 30.5161 17.9855 30.3741 18.1362L29.8109 18.6978C29.6617 18.847 29.5786 19.0493 29.5785 19.2603C29.5784 19.4713 29.6622 19.6737 29.8113 19.823C29.9605 19.9722 30.1628 20.0561 30.3738 20.0562C30.5849 20.0563 30.7873 19.9725 30.9365 19.8234L31.4989 19.261C31.6481 19.1117 31.8504 19.0278 32.0614 19.0278C32.2724 19.0277 32.4748 19.1114 32.6241 19.2606C32.7733 19.4097 32.8572 19.6121 32.8573 19.8231C32.8574 20.0341 32.7736 20.2365 32.6245 20.3858L30.9381 22.0737C30.8641 22.1475 30.7763 22.206 30.6796 22.2459C30.583 22.2858 30.4795 22.3062 30.3749 22.306H28.4547L25.3126 25.448C25.1626 25.5929 24.9617 25.6731 24.7531 25.6713C24.5446 25.6695 24.345 25.5858 24.1976 25.4383C24.0501 25.2909 23.9664 25.0913 23.9646 24.8828C23.9628 24.6742 24.043 24.4733 24.1879 24.3233L27.3299 21.1812V19.2618C27.3298 19.0509 27.4133 18.8487 27.5622 18.6994L29.2486 17.0106Z" fill="#FCFCFC"/>
</g>
<defs>
<filter id="filter0_d_1_22700" x="-4" y="0" width="57.499" height="57.499" filterUnits="userSpaceOnUse" color-interpolation-filters="sRGB">
<feFlood flood-opacity="0" result="BackgroundImageFix"/>
<feColorMatrix in="SourceAlpha" type="matrix" values="0 0 0 0 0 0 0 0 0 0 0 0 0 0 0 0 0 0 127 0" result="hardAlpha"/>
<feOffset dy="4"/>
<feGaussianBlur stdDeviation="2"/>
<feComposite in2="hardAlpha" operator="out"/>
<feColorMatrix type="matrix" values="0 0 0 0 0 0 0 0 0 0 0 0 0 0 0 0 0 0 0.25 0"/>
<feBlend mode="normal" in2="BackgroundImageFix" result="effect1_dropShadow_1_22700"/>
<feBlend mode="normal" in="SourceGraphic" in2="effect1_dropShadow_1_22700" result="shape"/>
</filter>
</defs>
</svg>
