<svg width="50" height="51" viewBox="0 0 50 51" fill="none" xmlns="http://www.w3.org/2000/svg">
<g filter="url(#filter0_d_1_22696)">
<mask id="path-1-inside-1_1_22696" fill="white">
<path d="M12.3751 37.1241C5.54094 30.29 5.54019 19.2088 12.3744 12.3747C19.2085 5.54048 30.2897 5.54123 37.1239 12.3754C43.958 19.2096 43.9588 30.2907 37.1246 37.1249C30.2904 43.9591 19.2093 43.9583 12.3751 37.1241Z"/>
</mask>
<path d="M9.84325 37.9671C2.54311 30.667 2.54311 18.8311 9.84325 11.5309C17.1434 4.23081 28.9793 4.23081 36.2794 11.5309L37.1231 12.3747C31.2209 6.47241 20.896 7.22789 14.0618 14.0621C8.15954 19.9643 8.15954 29.5337 14.0618 35.436L9.84325 37.9671ZM49.499 24.7505L24.7502 49.4993L49.499 24.7505ZM36.2816 37.9678C28.9811 45.2684 17.1446 45.2684 9.844 37.9678L9.84325 37.9671C2.54311 30.667 2.54311 18.8311 9.84325 11.5309L14.0618 14.0621C8.15954 19.9643 8.15954 29.5337 14.0618 35.436L14.0633 35.4375C20.8975 42.2717 31.2224 43.0271 37.1246 37.1249L36.2816 37.9678ZM24.7487 0.00028652L49.499 24.7505L24.7487 0.00028652Z" fill="#FCFCFC" mask="url(#path-1-inside-1_1_22696)"/>
<g clip-path="url(#clip0_1_22696)">
<path d="M17.1123 23.795C17.3557 23.7953 17.5897 23.8884 17.7666 24.0555C17.9436 24.2225 18.05 24.4508 18.0643 24.6937C18.0786 24.9366 17.9995 25.1758 17.8434 25.3624C17.6872 25.549 17.4657 25.6689 17.224 25.6976L17.1123 25.7043H16.1577C15.9144 25.704 15.6803 25.6108 15.5034 25.4438C15.3265 25.2768 15.22 25.0485 15.2057 24.8056C15.1915 24.5627 15.2705 24.3235 15.4267 24.1369C15.5829 23.9503 15.8044 23.8304 16.046 23.8017L16.1577 23.795H17.1123ZM24.7496 15.2031C24.9834 15.2032 25.2091 15.289 25.3838 15.4444C25.5585 15.5998 25.6702 15.8139 25.6975 16.0461L25.7042 16.1578V17.1124C25.7039 17.3557 25.6108 17.5898 25.4437 17.7667C25.2767 17.9436 25.0484 18.0501 24.8055 18.0644C24.5626 18.0786 24.3234 17.9996 24.1368 17.8434C23.9502 17.6873 23.8303 17.4657 23.8016 17.2241L23.7949 17.1124V16.1578C23.7949 15.9046 23.8955 15.6618 24.0745 15.4827C24.2535 15.3037 24.4964 15.2031 24.7496 15.2031ZM33.3414 23.795C33.5847 23.7953 33.8188 23.8884 33.9957 24.0555C34.1726 24.2225 34.2791 24.4508 34.2934 24.6937C34.3076 24.9366 34.2286 25.1758 34.0724 25.3624C33.9163 25.549 33.6947 25.6689 33.4531 25.6976L33.3414 25.7043H32.3868C32.1434 25.704 31.9094 25.6108 31.7325 25.4438C31.5555 25.2768 31.4491 25.0485 31.4348 24.8056C31.4206 24.5627 31.4996 24.3235 31.6558 24.1369C31.8119 23.9503 32.0335 23.8304 32.2751 23.8017L32.3868 23.795H33.3414ZM17.9649 17.9649C18.1292 17.8006 18.3479 17.7018 18.5799 17.6872C18.812 17.6726 19.0413 17.7432 19.225 17.8857L19.3147 17.9649L19.983 18.6332C20.1542 18.805 20.2536 19.0355 20.261 19.2779C20.2684 19.5204 20.1833 19.7565 20.0228 19.9385C19.8624 20.1204 19.6388 20.2344 19.3973 20.2574C19.1559 20.2804 18.9147 20.2107 18.7228 20.0623L18.6331 19.9831L17.9649 19.3148C17.7859 19.1358 17.6853 18.893 17.6853 18.6399C17.6853 18.3867 17.7859 18.144 17.9649 17.9649ZM30.1844 17.9649C30.3562 17.7937 30.5867 17.6943 30.8291 17.6869C31.0716 17.6795 31.3077 17.7647 31.4897 17.9251C31.6716 18.0855 31.7856 18.3091 31.8086 18.5506C31.8316 18.792 31.7619 19.0332 31.6135 19.2251L31.5343 19.3148L30.866 19.9831C30.6942 20.1543 30.4637 20.2537 30.2213 20.2611C29.9788 20.2685 29.7427 20.1833 29.5607 20.0229C29.3788 19.8625 29.2648 19.6389 29.2418 19.3974C29.2188 19.156 29.2885 18.9148 29.4369 18.7229L29.5161 18.6332L30.1844 17.9649ZM26.6589 30.4775C26.912 30.4775 27.1549 30.5781 27.3339 30.7572C27.5129 30.9362 27.6135 31.179 27.6135 31.4322C27.6135 32.1918 27.3118 32.9202 26.7747 33.4573C26.2376 33.9944 25.5091 34.2961 24.7496 34.2961C23.99 34.2961 23.2615 33.9944 22.7244 33.4573C22.1873 32.9202 21.8856 32.1918 21.8856 31.4322C21.8856 31.1984 21.9715 30.9727 22.1269 30.798C22.2822 30.6232 22.4963 30.5116 22.7286 30.4842L22.8403 30.4775H26.6589ZM24.7496 19.0217C25.9517 19.0217 27.1235 19.4 28.0987 20.1029C29.074 20.8058 29.8034 21.7978 30.1835 22.9383C30.5637 24.0788 30.5754 25.31 30.2169 26.4575C29.8585 27.605 29.1481 28.6106 28.1863 29.332C28.0547 29.4308 27.8998 29.4939 27.7367 29.5153L27.6135 29.5229H21.8856C21.679 29.5229 21.4781 29.4559 21.3128 29.332C20.3511 28.6106 19.6406 27.605 19.2822 26.4575C18.9237 25.31 18.9354 24.0788 19.3156 22.9383C19.6958 21.7978 20.4251 20.8058 21.4004 20.1029C22.3757 19.4 23.5474 19.0217 24.7496 19.0217Z" fill="#FCFCFC"/>
</g>
</g>
<defs>
<filter id="filter0_d_1_22696" x="-4" y="0" width="57.499" height="57.499" filterUnits="userSpaceOnUse" color-interpolation-filters="sRGB">
<feFlood flood-opacity="0" result="BackgroundImageFix"/>
<feColorMatrix in="SourceAlpha" type="matrix" values="0 0 0 0 0 0 0 0 0 0 0 0 0 0 0 0 0 0 127 0" result="hardAlpha"/>
<feOffset dy="4"/>
<feGaussianBlur stdDeviation="2"/>
<feComposite in2="hardAlpha" operator="out"/>
<feColorMatrix type="matrix" values="0 0 0 0 0 0 0 0 0 0 0 0 0 0 0 0 0 0 0.25 0"/>
<feBlend mode="normal" in2="BackgroundImageFix" result="effect1_dropShadow_1_22696"/>
<feBlend mode="normal" in="SourceGraphic" in2="effect1_dropShadow_1_22696" result="shape"/>
</filter>
<clipPath id="clip0_1_22696">
<rect width="19.0909" height="19.093" fill="white" transform="translate(15.2041 15.2031)"/>
</clipPath>
</defs>
</svg>
