<svg width="50" height="51" viewBox="0 0 50 51" fill="none" xmlns="http://www.w3.org/2000/svg">
<g filter="url(#filter0_d_1_22710)">
<mask id="path-1-inside-1_1_22710" fill="white">
<path d="M37.1239 37.1241C43.9581 30.29 43.9588 19.2088 37.1247 12.3747C30.2905 5.54048 19.2093 5.54123 12.3752 12.3754C5.54099 19.2096 5.54025 30.2907 12.3744 37.1249C19.2086 43.9591 30.2897 43.9583 37.1239 37.1241Z"/>
</mask>
<path d="M39.6558 37.9671C46.9559 30.667 46.9559 18.8311 39.6558 11.5309C32.3556 4.23081 20.5198 4.23081 13.2196 11.5309L12.3759 12.3747C18.2782 6.47241 28.6031 7.22789 35.4372 14.0621C41.3395 19.9643 41.3395 29.5337 35.4372 35.436L39.6558 37.9671ZM5.25455e-05 24.7505L24.7488 49.4993L5.25455e-05 24.7505ZM13.2174 37.9678C20.5179 45.2684 32.3545 45.2684 39.655 37.9678L39.6558 37.9671C46.9559 30.667 46.9559 18.8311 39.6558 11.5309L35.4372 14.0621C41.3395 19.9643 41.3395 29.5337 35.4372 35.436L35.4357 35.4375C28.6016 42.2717 18.2767 43.0271 12.3744 37.1249L13.2174 37.9678ZM24.7503 0.00028652L5.25455e-05 24.7505L24.7503 0.00028652Z" fill="#FCFCFC" mask="url(#path-1-inside-1_1_22710)"/>
<path d="M23.6438 16.25C21.4842 16.25 19.413 17.1079 17.886 18.635C16.3589 20.1621 15.501 22.2332 15.501 24.3929C15.501 26.5525 16.3589 28.6236 17.886 30.1507C19.413 31.6778 21.4842 32.5357 23.6438 32.5357C25.4534 32.5357 27.1905 31.9386 28.62 30.8529L27.3172 29.55C26.3704 30.226 25.2557 30.6281 24.0954 30.7119C22.9351 30.7957 21.7741 30.5581 20.74 30.0252C19.7059 29.4923 18.8387 28.6846 18.2337 27.691C17.6287 26.6974 17.3093 25.5562 17.3105 24.3929C17.3105 20.8914 20.1424 18.0595 23.6438 18.0595C27.1453 18.0595 29.9772 20.8914 29.9772 24.3929H27.2629L30.8819 28.0119L34.501 24.3929H31.7867C31.7867 22.2332 30.9288 20.1621 29.4017 18.635C27.8746 17.1079 25.8035 16.25 23.6438 16.25ZM19.7624 25.4424C19.681 25.5057 19.6538 25.6143 19.6991 25.7048L20.5134 27.1071C20.5676 27.2157 20.6762 27.2157 20.7667 27.2157L21.7891 26.8086C22.0062 26.9533 22.2324 27.08 22.4676 27.1886L22.6305 28.2652C22.6486 28.3648 22.7391 28.4371 22.8295 28.4371H24.4581C24.5486 28.4643 24.6481 28.3829 24.6662 28.2833L24.8291 27.2157C25.0734 27.1071 25.3086 26.9714 25.5167 26.8086L26.53 27.2157C26.6295 27.2519 26.7381 27.2067 26.7834 27.1071L27.5976 25.75C27.6429 25.6414 27.6157 25.5329 27.5434 25.4695L26.6386 24.8C26.6657 24.5286 26.6657 24.2571 26.6386 23.9857L27.5434 23.2981C27.6248 23.2348 27.6429 23.1352 27.5976 23.0357L26.7834 21.6333C26.7592 21.5902 26.7202 21.5572 26.6737 21.5406C26.6271 21.5239 26.5761 21.5247 26.53 21.5429L25.5167 21.95C25.2995 21.7962 25.0643 21.6786 24.82 21.57L24.6662 20.4933C24.6554 20.4457 24.6292 20.403 24.5915 20.3719C24.5538 20.3408 24.5069 20.323 24.4581 20.3214H22.8657C22.7753 20.3214 22.6938 20.3848 22.6757 20.4752L22.5219 21.5429C22.2867 21.6514 22.0424 21.7871 21.8343 21.95L20.7938 21.57C20.7444 21.5524 20.6902 21.5537 20.6417 21.5738C20.5933 21.5938 20.554 21.6312 20.5315 21.6786L19.7081 23.0357C19.6629 23.1443 19.69 23.2529 19.7624 23.3162L20.6672 23.9857C20.6491 24.1214 20.6491 24.2571 20.6672 24.3929C20.6581 24.5286 20.6581 24.6643 20.6672 24.8L19.7624 25.4695M23.6438 25.75C22.8838 25.75 22.2867 25.1348 22.2867 24.3929C22.2867 23.6419 22.8929 23.0357 23.6438 23.0357C24.3948 23.0357 25.001 23.6419 25.001 24.3929C25.001 25.1438 24.3948 25.75 23.6438 25.75Z" fill="#FCFCFC"/>
</g>
<defs>
<filter id="filter0_d_1_22710" x="-4" y="0" width="57.499" height="57.499" filterUnits="userSpaceOnUse" color-interpolation-filters="sRGB">
<feFlood flood-opacity="0" result="BackgroundImageFix"/>
<feColorMatrix in="SourceAlpha" type="matrix" values="0 0 0 0 0 0 0 0 0 0 0 0 0 0 0 0 0 0 127 0" result="hardAlpha"/>
<feOffset dy="4"/>
<feGaussianBlur stdDeviation="2"/>
<feComposite in2="hardAlpha" operator="out"/>
<feColorMatrix type="matrix" values="0 0 0 0 0 0 0 0 0 0 0 0 0 0 0 0 0 0 0.25 0"/>
<feBlend mode="normal" in2="BackgroundImageFix" result="effect1_dropShadow_1_22710"/>
<feBlend mode="normal" in="SourceGraphic" in2="effect1_dropShadow_1_22710" result="shape"/>
</filter>
</defs>
</svg>
