<svg width="50" height="51" viewBox="0 0 50 51" fill="none" xmlns="http://www.w3.org/2000/svg">
<g filter="url(#filter0_d_1_22705)">
<mask id="path-1-inside-1_1_22705" fill="white">
<path d="M12.3751 37.1241C5.54094 30.29 5.54019 19.2088 12.3744 12.3747C19.2085 5.54048 30.2897 5.54123 37.1239 12.3754C43.958 19.2096 43.9588 30.2907 37.1246 37.1249C30.2904 43.9591 19.2093 43.9583 12.3751 37.1241Z"/>
</mask>
<path d="M9.84325 37.9671C2.54311 30.667 2.54311 18.8311 9.84325 11.5309C17.1434 4.23081 28.9793 4.23081 36.2794 11.5309L37.1231 12.3747C31.2209 6.47241 20.896 7.22789 14.0618 14.0621C8.15954 19.9643 8.15954 29.5337 14.0618 35.436L9.84325 37.9671ZM49.499 24.7505L24.7502 49.4993L49.499 24.7505ZM36.2816 37.9678C28.9811 45.2684 17.1446 45.2684 9.844 37.9678L9.84325 37.9671C2.54311 30.667 2.54311 18.8311 9.84325 11.5309L14.0618 14.0621C8.15954 19.9643 8.15954 29.5337 14.0618 35.436L14.0633 35.4375C20.8975 42.2717 31.2224 43.0271 37.1246 37.1249L36.2816 37.9678ZM24.7487 0.00028652L49.499 24.7505L24.7487 0.00028652Z" fill="#FCFCFC" mask="url(#path-1-inside-1_1_22705)"/>
<g clip-path="url(#clip0_1_22705)">
<g clip-path="url(#clip1_1_22705)">
<path fill-rule="evenodd" clip-rule="evenodd" d="M17 23.1088C17 18.7795 20.4509 15.25 24.7324 15.25C29.014 15.25 32.4649 18.7795 32.4649 23.1088C32.4649 25.1988 31.8693 27.4434 30.8159 29.3823C29.7643 31.3185 28.2284 33.001 26.3063 33.8998C25.8137 34.1304 25.2764 34.25 24.7324 34.25C24.1885 34.25 23.6512 34.1304 23.1586 33.8998C21.2365 33.001 19.7006 31.3193 18.649 29.3823C17.5956 27.4434 17 25.1988 17 23.1088ZM24.7324 16.5756C21.2047 16.5756 18.3256 19.4891 18.3256 23.1088C18.3256 24.962 18.8584 26.9901 19.8137 28.7495C20.7699 30.5108 22.122 31.9521 23.7197 32.6988C24.0365 32.8473 24.3821 32.9242 24.732 32.9242C25.0819 32.9242 25.4275 32.8473 25.7443 32.6988C27.3429 31.9521 28.695 30.5108 29.6512 28.7495C30.6065 26.9909 31.1393 24.962 31.1393 23.1088C31.1393 19.4891 28.2602 16.5756 24.7324 16.5756ZM23.8196 19.3875C24.4094 19.1736 25.0555 19.1736 25.6453 19.3875L27.715 20.1431C28.193 20.3181 28.4882 20.744 28.4882 21.215C28.4882 21.686 28.193 22.112 27.715 22.287L27.6045 22.3267V24.4847C27.6045 25.0795 27.2563 25.6592 26.6501 25.8828C26.1853 26.0542 25.4209 26.2963 24.7324 26.2963C24.044 26.2963 23.2796 26.0542 22.8148 25.8828C22.2086 25.6592 21.8604 25.0795 21.8604 24.4847V22.3267L21.7499 22.287C21.2718 22.112 20.9767 21.686 20.9767 21.215C20.9767 20.744 21.2718 20.3181 21.7499 20.1431L23.8196 19.3875ZM23.186 22.811V24.4847C23.186 24.5775 23.2363 24.6253 23.2743 24.6394C23.7171 24.8029 24.2941 24.9708 24.7324 24.9708C25.1708 24.9708 25.7478 24.8029 26.1906 24.6394C26.2286 24.6253 26.2789 24.5775 26.2789 24.4847V22.811L25.6453 23.0425C25.0555 23.2564 24.4094 23.2564 23.8196 23.0425L23.186 22.811ZM25.1911 20.6327C24.8947 20.5258 24.5702 20.5258 24.2738 20.6327L22.6796 21.215L24.2738 21.7983C24.5672 21.9043 24.8986 21.9043 25.1911 21.7983L26.7853 21.215L25.1911 20.6327Z" fill="#FCFCFC"/>
</g>
</g>
</g>
<defs>
<filter id="filter0_d_1_22705" x="-4" y="0" width="57.499" height="57.499" filterUnits="userSpaceOnUse" color-interpolation-filters="sRGB">
<feFlood flood-opacity="0" result="BackgroundImageFix"/>
<feColorMatrix in="SourceAlpha" type="matrix" values="0 0 0 0 0 0 0 0 0 0 0 0 0 0 0 0 0 0 127 0" result="hardAlpha"/>
<feOffset dy="4"/>
<feGaussianBlur stdDeviation="2"/>
<feComposite in2="hardAlpha" operator="out"/>
<feColorMatrix type="matrix" values="0 0 0 0 0 0 0 0 0 0 0 0 0 0 0 0 0 0 0.25 0"/>
<feBlend mode="normal" in2="BackgroundImageFix" result="effect1_dropShadow_1_22705"/>
<feBlend mode="normal" in="SourceGraphic" in2="effect1_dropShadow_1_22705" result="shape"/>
</filter>
<clipPath id="clip0_1_22705">
<rect width="15.1136" height="19" fill="white" transform="translate(17 15.25)"/>
</clipPath>
<clipPath id="clip1_1_22705">
<rect width="15.4649" height="19" fill="white" transform="translate(17 15.25)"/>
</clipPath>
</defs>
</svg>
