<svg width="15" height="15" viewBox="0 0 15 15" fill="none" xmlns="http://www.w3.org/2000/svg">
<path d="M1.25 7.5C1.25 8.99184 1.84263 10.4226 2.89752 11.4775C3.95242 12.5324 5.38316 13.125 6.875 13.125C8.36875 13.125 9.8 12.5375 10.875 11.5L9.9375 10.5625C9.54402 10.9792 9.06919 11.3107 8.54241 11.5365C8.01563 11.7622 7.44811 11.8774 6.875 11.875C2.975 11.875 1.025 7.1625 3.78125 4.40625C6.5375 1.65 11.25 3.60625 11.25 7.5H9.375L11.875 10H11.9375L14.375 7.5H12.5C12.5 6.00816 11.9074 4.57742 10.8525 3.52252C9.79758 2.46763 8.36684 1.875 6.875 1.875C5.38316 1.875 3.95242 2.46763 2.89752 3.52252C1.84263 4.57742 1.25 6.00816 1.25 7.5Z" fill="#FDFDFD"/>
</svg>
