<svg width="100" height="100" viewBox="0 0 100 100" fill="none" xmlns="http://www.w3.org/2000/svg">
<path d="M38.4611 0.722658C33.5046 0.721142 28.5963 1.69621 24.0168 3.59216C19.4373 5.48812 15.2761 8.26779 11.7712 11.7724C8.26625 15.277 5.48615 19.4378 3.58973 24.0172C1.69331 28.5965 0.717741 33.5046 0.718752 38.4611C0.717236 43.4179 1.69243 48.3265 3.58863 52.9063C5.48482 57.4861 8.26484 61.6473 11.7698 65.1523C15.2748 68.6573 19.4361 71.4374 24.0159 73.3336C28.5957 75.2297 33.5042 76.2049 38.4611 76.2034C47.2688 76.2034 55.3572 73.0842 61.7803 68.0304L65.1457 71.3957C64.4546 72.7384 64.2099 74.2666 64.4472 75.758C64.6845 77.2493 65.3913 78.6261 66.4649 79.688L84.1341 97.4765C86.8764 100.223 91.3649 100.223 94.1111 97.4765L97.4764 94.1111C98.7941 92.7852 99.5336 90.9919 99.5336 89.1227C99.5336 87.2534 98.7941 85.4601 97.4764 84.1342L79.688 66.465C78.6199 65.3964 77.2347 64.7022 75.7394 64.4859C74.2441 64.2696 72.719 64.5429 71.3918 65.265L68.0264 61.8996C72.4316 56.3406 75.181 49.6527 75.9594 42.6028C76.7378 35.5528 75.5137 28.4262 72.4275 22.0401C69.3412 15.6539 64.5177 10.2668 58.5101 6.49642C52.5024 2.72601 45.5539 0.72494 38.4611 0.722658ZM38.4611 7.69189C46.6216 7.69189 54.4478 10.9336 60.2182 16.704C65.9885 22.4743 69.2303 30.3006 69.2303 38.4611C69.2303 46.6216 65.9885 54.4479 60.2182 60.2183C54.4478 65.9886 46.6216 69.2304 38.4611 69.2304C30.3006 69.2304 22.4743 65.9886 16.7039 60.2183C10.9336 54.4479 7.69183 46.6216 7.69183 38.4611C7.69183 30.3006 10.9336 22.4743 16.7039 16.704C22.4743 10.9336 30.3006 7.69189 38.4611 7.69189ZM18.988 28.7265C16.9373 32.0496 15.8557 35.8794 15.8649 39.7842C15.8603 42.5478 16.4013 45.2851 17.4568 47.8392C18.5123 50.3933 20.0615 52.7139 22.0156 54.6681C23.9698 56.6222 26.2904 58.1715 28.8445 59.2269C31.3986 60.2824 34.1359 60.8234 36.8995 60.8188C41.2447 60.8138 45.4829 59.4709 49.038 56.9727C48.0792 57.0627 47.1163 57.1012 46.1534 57.088C42.5837 57.0972 39.0474 56.4009 35.7477 55.0392C32.448 53.6775 29.4499 51.6772 26.9255 49.1532C24.4012 46.6293 22.4005 43.6314 21.0383 40.3319C19.6762 37.0323 18.9794 33.4962 18.988 29.9265C18.988 29.5265 18.9688 29.1265 18.988 28.7265Z" fill="#9D8BF9"/>
</svg>
