<svg width="13" height="9" viewBox="0 0 13 9" fill="none" xmlns="http://www.w3.org/2000/svg">
<path d="M0.803551 7.53262L0 8.31977V7.07632L0.803551 6.39627L4.40346 2.79636C4.4788 2.72112 4.58091 2.67886 4.68738 2.67886C4.79385 2.67886 4.89597 2.72112 4.9713 2.79636L6.83019 4.65457L10.6819 0.803551H8.97299C8.86643 0.803551 8.76424 0.761221 8.68889 0.685874C8.61354 0.610526 8.57121 0.508333 8.57121 0.401776C8.57121 0.295218 8.61354 0.193025 8.68889 0.117678C8.76424 0.04233 8.86643 0 8.97299 0H11.6515C11.7581 0 11.8602 0.04233 11.9356 0.117678C12.0109 0.193025 12.0533 0.295218 12.0533 0.401776V3.08028C12.0533 3.18684 12.0109 3.28903 11.9356 3.36438C11.8602 3.43973 11.7581 3.48206 11.6515 3.48206C11.5449 3.48206 11.4427 3.43973 11.3674 3.36438C11.292 3.28903 11.2497 3.18684 11.2497 3.08028V1.37139L7.11411 5.50701C7.03878 5.58225 6.93666 5.62451 6.83019 5.62451C6.72372 5.62451 6.6216 5.58225 6.54627 5.50701L4.68738 3.64879L0.803551 7.53262Z" fill="#43A047"/>
</svg>
